<svg width="130" height="102" viewBox="0 0 130 102" fill="none" xmlns="http://www.w3.org/2000/svg">
<path d="M127.53 3.80248e-05H16.9091C15.9868 3.80248e-05 15.2395 0.770628 15.2395 1.71996V18.2434H1.86881C1.42388 18.2434 0.99696 18.4266 0.683791 18.7522C0.369902 19.0778 0.195679 19.5191 0.199273 19.9774V99.3034C0.199273 100.254 0.946572 101.024 1.86881 101.024H116.591C117.513 101.024 118.26 100.254 118.26 99.3034V93.0601H127.463C127.92 93.0786 128.364 92.9036 128.692 92.5758C129.02 92.2487 129.203 91.797 129.199 91.3261V1.73401C129.203 1.27491 129.028 0.834366 128.715 0.508784C128.401 0.183202 127.975 0 127.53 0L127.53 3.80248e-05ZM13.9252 97.6386L48.2647 61.5983L80.5548 97.6386H13.9252ZM85.0648 97.6386L65.6852 75.9692L75.2036 65.9464L103.773 97.6388L85.0648 97.6386ZM114.922 97.6386H108.348L76.4544 62.2761C76.1413 61.9282 75.7043 61.7272 75.2449 61.7206C74.7813 61.6583 74.3205 61.8541 74.0354 62.2353L63.4647 73.4358L49.5289 57.9284C49.2207 57.5827 48.7881 57.3817 48.3323 57.3728C47.8759 57.3773 47.4389 57.5612 47.1099 57.8876L9.23353 97.6379H3.54019V21.7921H114.91L114.922 97.6386ZM125.861 89.6747L118.261 89.6754V19.9775C118.261 19.0275 117.514 18.2576 116.592 18.2576H18.5806V3.45395H125.862L125.861 89.6747Z" fill="#959595"/>
</svg>
