<svg width="19" height="19" viewBox="0 0 19 19" fill="none" xmlns="http://www.w3.org/2000/svg">
<path d="M18.9922 8.7218H17.1293C16.9283 7.13765 16.2066 5.66544 15.0776 4.53636C13.9485 3.40736 12.4763 2.68567 10.8921 2.48468V0.621765H9.09223V2.48468C7.50807 2.68567 6.03586 3.40739 4.90678 4.53636C3.77778 5.66547 3.0561 7.13769 2.8551 8.7218H0.992188V10.5219L2.8551 10.5217C3.05609 12.1059 3.77782 13.5781 4.90678 14.7072C6.0359 15.8362 7.50811 16.5579 9.09223 16.7589V18.6218H10.8923L10.8922 16.7589C12.4763 16.5579 13.9485 15.8361 15.0776 14.7072C16.2066 13.5781 16.9283 12.1058 17.1293 10.5217H18.9922L18.9922 8.7218ZM9.99219 15.0218C8.56005 15.0218 7.18654 14.4528 6.17371 13.4402C5.16105 12.4273 4.59211 11.0538 4.59211 9.62169C4.59211 8.18955 5.16105 6.81604 6.17371 5.80322C7.18654 4.79055 8.56005 4.22161 9.99219 4.22161C11.4243 4.22161 12.7978 4.79055 13.8107 5.80322C14.8233 6.81604 15.3923 8.18955 15.3923 9.62169C15.3923 11.0538 14.8233 12.4273 13.8107 13.4402C12.7978 14.4528 11.4243 15.0218 9.99219 15.0218Z" fill="#0E62CB"/>
<path d="M9.99062 6.02179C9.03581 6.02179 8.12019 6.40103 7.44503 7.07619C6.76986 7.75136 6.39062 8.66698 6.39062 9.62179C6.39062 10.5766 6.76986 11.4922 7.44503 12.1674C8.12019 12.8425 9.03581 13.2218 9.99062 13.2218C10.9454 13.2218 11.8611 12.8425 12.5362 12.1674C13.2114 11.4922 13.5906 10.5766 13.5906 9.62179C13.5906 8.66698 13.2114 7.75136 12.5362 7.07619C11.8611 6.40103 10.9454 6.02179 9.99062 6.02179ZM9.99062 11.4219C9.5133 11.4219 9.05541 11.2322 8.71775 10.8947C8.38024 10.557 8.19055 10.0991 8.19055 9.62179C8.19055 9.14446 8.38024 8.68657 8.71775 8.34891C9.0554 8.01141 9.5133 7.82171 9.99062 7.82171C10.468 7.82171 10.9258 8.01141 11.2635 8.34891C11.601 8.68657 11.7907 9.14446 11.7907 9.62179C11.7907 10.0991 11.601 10.557 11.2635 10.8947C10.9258 11.2322 10.468 11.4219 9.99062 11.4219Z" fill="#0E62CB"/>
</svg>
