<svg width="18" height="24" viewBox="0 0 18 24" fill="none" xmlns="http://www.w3.org/2000/svg">
<path d="M8.98088 0.834595C4.78917 0.834595 1.32812 4.08934 1.32812 8.17146C1.32812 10.4728 2.57026 13.3251 3.93369 15.7945C5.31709 18.3001 6.9104 20.5582 7.76482 21.716C7.90408 21.9069 8.08632 22.0626 8.29698 22.1701C8.50872 22.2782 8.74307 22.3346 8.98088 22.3346C9.21868 22.3346 9.45304 22.2782 9.66478 22.1701C9.87468 22.063 10.0564 21.9081 10.1954 21.7181C11.0495 20.5613 12.6439 18.3029 14.0281 15.7962C15.3915 13.327 16.6336 10.4744 16.6336 8.17146C16.6336 4.08934 13.1726 0.834595 8.98088 0.834595Z" stroke="#676767" stroke-width="1.5" stroke-linecap="round" stroke-linejoin="round"/>
<path d="M8.98061 11.5654C10.6677 11.5654 12.0315 10.1943 12.0315 8.50764C12.0315 6.82097 10.6677 5.44983 8.98061 5.44983C7.29352 5.44983 5.92969 6.82097 5.92969 8.50764C5.92969 10.1943 7.29352 11.5654 8.98061 11.5654Z" stroke="#676767" stroke-width="1.5" stroke-linecap="round" stroke-linejoin="round"/>
</svg>
