<svg width="16" height="22" viewBox="0 0 16 22" fill="none" xmlns="http://www.w3.org/2000/svg">
<mask id="path-1-outside-1_1835_2883" maskUnits="userSpaceOnUse" x="0" y="0.121765" width="16" height="22" fill="black">
<rect fill="white" y="0.121765" width="16" height="22"/>
<path d="M8.21248 2.12177C4.78267 2.12177 2 4.7782 2 8.04994C2 11.8146 6.14165 17.7804 7.66242 19.841C7.72554 19.9279 7.80828 19.9987 7.90387 20.0475C7.99947 20.0963 8.10521 20.1218 8.21248 20.1218C8.31974 20.1218 8.42549 20.0963 8.52108 20.0475C8.61668 19.9987 8.69942 19.9279 8.76254 19.841C10.2833 17.7812 14.425 11.8176 14.425 8.04994C14.425 4.7782 11.6423 2.12177 8.21248 2.12177Z"/>
</mask>
<path d="M7.66242 19.841L8.87645 18.9599L8.86932 18.9502L7.66242 19.841ZM8.21248 20.1218L8.21248 21.6218L8.21248 20.1218ZM8.76254 19.841L7.55578 18.95L7.54854 18.9599L8.76254 19.841ZM8.21248 0.621765C4.02105 0.621765 0.5 3.8845 0.5 8.04994H3.5C3.5 5.67189 5.54429 3.62177 8.21248 3.62177V0.621765ZM0.5 8.04994C0.5 10.352 1.71876 13.0835 2.94778 15.3095C4.21827 17.6106 5.67673 19.6765 6.45551 20.7317L8.86932 18.9502C8.12734 17.9449 6.75459 15.9976 5.57406 13.8594C4.35207 11.6462 3.5 9.51247 3.5 8.04994H0.5ZM6.44842 20.722C6.65031 21.0002 6.91524 21.227 7.22186 21.3835L8.58589 18.7115C8.70132 18.7705 8.80077 18.8557 8.87642 18.9599L6.44842 20.722ZM7.22186 21.3835C7.52851 21.5401 7.86797 21.6218 8.21248 21.6218L8.21248 18.6218C8.34246 18.6218 8.47043 18.6526 8.58589 18.7115L7.22186 21.3835ZM8.21248 21.6218C8.55699 21.6218 8.89645 21.5401 9.2031 21.3835L7.83907 18.7115C7.95453 18.6526 8.0825 18.6218 8.21248 18.6218L8.21248 21.6218ZM9.2031 21.3835C9.50972 21.227 9.77465 21.0002 9.97654 20.722L7.54854 18.9599C7.62418 18.8557 7.72364 18.7705 7.83907 18.7115L9.2031 21.3835ZM9.96926 20.7319C10.7481 19.6771 12.2066 17.6119 13.4771 15.311C14.7063 13.0851 15.925 10.3535 15.925 8.04994H12.925C12.925 9.51406 12.0728 11.6481 10.8509 13.8608C9.67046 15.9986 8.29777 17.9451 7.55582 18.95L9.96926 20.7319ZM15.925 8.04994C15.925 3.8845 12.4039 0.621765 8.21248 0.621765V3.62177C10.8807 3.62177 12.925 5.67189 12.925 8.04994H15.925Z" fill="#0E62CB" mask="url(#path-1-outside-1_1835_2883)"/>
<path d="M8.21145 11.1795C9.77146 11.1795 11.0323 9.91169 11.0323 8.35248C11.0323 6.79327 9.77146 5.52545 8.21145 5.52545C6.65144 5.52545 5.39062 6.79327 5.39062 8.35248C5.39062 9.91169 6.65144 11.1795 8.21145 11.1795Z" stroke="#0E62CB" stroke-width="1.5" stroke-linecap="round" stroke-linejoin="round"/>
</svg>
