<svg width="37" height="31" viewBox="0 0 37 31" fill="none" xmlns="http://www.w3.org/2000/svg">
<path d="M24.6283 25.8708C24.6296 24.7437 25.0778 23.663 25.8747 22.866C26.6718 22.0691 27.7525 21.6209 28.8795 21.6196C30.0066 21.6208 31.0871 22.0691 31.8841 22.866C32.681 23.663 33.1292 24.7437 33.1305 25.8708C33.1293 26.9979 32.681 28.0783 31.8841 28.8754C31.0871 29.6722 30.0066 30.1205 28.8795 30.1218C27.7525 30.1205 26.6718 29.6723 25.8749 28.8754C25.0779 28.0783 24.6296 26.9979 24.6283 25.8708ZM26.939 25.8708C26.9397 26.3851 27.1443 26.8784 27.508 27.2421C27.8719 27.6058 28.3649 27.8104 28.8795 27.8111C29.3939 27.8104 29.8872 27.6058 30.2509 27.2421C30.6146 26.8784 30.8192 26.3852 30.8198 25.8708C30.8194 25.3562 30.6148 24.863 30.2509 24.4992C29.8872 24.1353 29.3939 23.9309 28.8795 23.9303C28.365 23.9307 27.8718 24.1353 27.5079 24.499C27.1439 24.8629 26.9393 25.3562 26.9387 25.8707L26.939 25.8708ZM11.6862 25.8708C11.6873 24.7437 12.1355 23.663 12.9326 22.866C13.7295 22.0691 14.8101 21.6209 15.9372 21.6196C17.0643 21.6208 18.1449 22.0691 18.9418 22.866C19.7389 23.663 20.1871 24.7437 20.1882 25.8708C20.1871 26.9979 19.7389 28.0783 18.9418 28.8754C18.1449 29.6722 17.0643 30.1205 15.9372 30.1218C14.8101 30.1207 13.7293 29.6725 12.9322 28.8754C12.1351 28.0785 11.6869 26.9979 11.6856 25.8708H11.6862ZM13.9969 25.8708H13.9967C13.9973 26.3851 14.202 26.8784 14.5659 27.2421C14.9296 27.6058 15.4228 27.8104 15.9372 27.8111C16.4516 27.8104 16.9448 27.6058 17.3085 27.2421C17.6722 26.8784 17.8769 26.3852 17.8777 25.8708C17.8771 25.3562 17.6724 24.863 17.3085 24.4992C16.9448 24.1355 16.4516 23.9309 15.9372 23.9303C15.4226 23.9307 14.9294 24.1353 14.5655 24.499C14.2016 24.8627 13.997 25.3562 13.9963 25.8707L13.9969 25.8708ZM12.4034 21.0598C12.1596 21.0596 11.9223 20.9824 11.7249 20.8392C11.5278 20.6961 11.3809 20.4942 11.3054 20.2625L5.49664 2.43182H1.5824H1.58261C1.27603 2.43224 0.981803 2.31066 0.764786 2.09407C0.547779 1.87748 0.425781 1.58347 0.425781 1.27689C0.425781 0.970527 0.54757 0.676732 0.764159 0.460143C0.980748 0.243554 1.27455 0.121765 1.58091 0.121765H6.33349C6.57728 0.121765 6.81479 0.198983 7.01191 0.34212C7.20904 0.485466 7.35594 0.687194 7.43148 0.919083L8.63727 4.62113H35.5793C35.8857 4.62113 36.1795 4.74271 36.3961 4.95951C36.6127 5.17609 36.7345 5.46989 36.7345 5.77625C36.7347 5.83485 36.7303 5.89344 36.7217 5.95161C36.7462 6.11086 36.737 6.27367 36.6947 6.42936L32.966 20.2068C32.8997 20.4519 32.7547 20.668 32.5532 20.8223C32.3516 20.9765 32.1049 21.0602 31.8511 21.0602L12.4034 21.0598ZM13.2419 18.7491H30.9681L34.1671 6.93021H9.39143L13.2419 18.7491Z" fill="#0E62CB"/>
</svg>
