<svg width="21" height="11" viewBox="0 0 21 11" fill="none" xmlns="http://www.w3.org/2000/svg">
<path d="M10.5701 10.8249C10.7921 10.7929 10.9979 10.6917 11.1591 10.536L20.0472 2.00339C20.2717 1.81392 20.4081 1.54013 20.4242 1.24701C20.4403 0.953632 20.3349 0.666706 20.1325 0.453684C19.9304 0.240655 19.6492 0.120628 19.3556 0.121618C19.0617 0.12261 18.7815 0.244624 18.5806 0.459138L10.4258 8.29208L2.27096 0.459138C2.07008 0.244624 1.78985 0.122608 1.49598 0.121618C1.20235 0.120626 0.921131 0.240655 0.719034 0.453684C0.516672 0.666713 0.411272 0.953639 0.427391 1.24701C0.44351 1.54014 0.579903 1.81392 0.80434 2.00339L9.69243 10.536C9.92604 10.7604 10.249 10.867 10.5701 10.8249Z" fill="#0E62CB"/>
</svg>
