<svg width="23" height="23" viewBox="0 0 23 23" fill="none" xmlns="http://www.w3.org/2000/svg">
<path d="M22.0879 10.9983H19.711C19.3794 7.15655 16.3115 4.08871 12.4698 3.75705V1.38016C12.4698 0.993239 12.1657 0.689209 11.7788 0.689209C11.3919 0.689209 11.0879 0.993239 11.0879 1.38016V3.75705C7.24615 4.08865 4.17831 7.1565 3.84665 10.9983H1.46976C1.08284 10.9983 0.778809 11.3023 0.778809 11.6892C0.778809 12.0761 1.08284 12.3802 1.46976 12.3802H3.84665C4.17825 16.2219 7.2461 19.2897 11.0879 19.6214V21.9983C11.0879 22.3852 11.3919 22.6892 11.7788 22.6892C12.1657 22.6892 12.4698 22.3852 12.4698 21.9983V19.6214C16.3115 19.2898 19.3793 16.2219 19.711 12.3802H22.0879C22.4748 12.3802 22.7788 12.0761 22.7788 11.6892C22.7788 11.3023 22.4748 10.9983 22.0879 10.9983ZM18.3291 12.3802C17.9975 15.448 15.5652 17.9078 12.4698 18.2395C12.2486 18.267 11.9999 18.267 11.7788 18.267C11.5577 18.267 11.309 18.267 11.0879 18.2395C8.02001 17.9079 5.56022 15.4756 5.22856 12.3802C5.20099 12.159 5.20099 11.9103 5.20099 11.6892C5.20099 11.4681 5.20099 11.2194 5.22856 10.9983C5.56016 7.93042 7.99238 5.47062 11.0879 5.13896C11.309 5.11139 11.5577 5.11139 11.7788 5.11139C11.9999 5.11139 12.2486 5.11139 12.4698 5.13896C15.5376 5.47056 17.9974 7.93037 18.3291 10.9983C18.3566 11.2194 18.3566 11.4405 18.3566 11.6892C18.3568 11.9103 18.3568 12.159 18.3291 12.3802Z" fill="#EB870E"/>
<path d="M14.7365 11.6893C14.7365 13.3226 13.4125 14.6467 11.7792 14.6467C10.1458 14.6467 8.82178 13.3226 8.82178 11.6893C8.82178 10.056 10.1458 8.73193 11.7792 8.73193C13.4125 8.73193 14.7365 10.056 14.7365 11.6893Z" fill="#EB870E"/>
</svg>
