<svg width="20" height="21" viewBox="0 0 20 21" fill="none" xmlns="http://www.w3.org/2000/svg">
<path d="M20 9.12181H17.9301C17.7068 7.36164 16.9049 5.72584 15.6504 4.47131C14.3959 3.21687 12.7601 2.415 11 2.19167V0.121765H9.00004V2.19167C7.23987 2.41499 5.60408 3.21691 4.34955 4.47131C3.0951 5.72589 2.29323 7.36168 2.0699 9.12181H0V11.1219L2.0699 11.1217C2.29323 12.8819 3.09514 14.5177 4.34955 15.7722C5.60412 17.0267 7.23992 17.8285 9.00004 18.0519V20.1218H11.0001L11 18.0519C12.7601 17.8285 14.3959 17.0266 15.6505 15.7722C16.9049 14.5176 17.7068 12.8819 17.9301 11.1217H20L20 9.12181ZM10 16.1218C8.40873 16.1218 6.88261 15.4896 5.75725 14.3644C4.63207 13.2391 3.99991 11.7129 3.99991 10.1217C3.99991 8.53041 4.63207 7.00429 5.75725 5.87893C6.88261 4.75374 8.40873 4.12159 10 4.12159C11.5913 4.12159 13.1174 4.75374 14.2427 5.87893C15.3679 7.00429 16.0001 8.53041 16.0001 10.1217C16.0001 11.7129 15.3679 13.2391 14.2427 14.3644C13.1174 15.4896 11.5913 16.1218 10 16.1218Z" fill="white"/>
<path d="M10 6.12177C8.9391 6.12177 7.92174 6.54314 7.17156 7.29332C6.42138 8.04351 6 9.06086 6 10.1218C6 11.1827 6.42138 12.2 7.17156 12.9502C7.92174 13.7004 8.9391 14.1218 10 14.1218C11.0609 14.1218 12.0783 13.7004 12.8284 12.9502C13.5786 12.2 14 11.1827 14 10.1218C14 9.06086 13.5786 8.04351 12.8284 7.29332C12.0783 6.54314 11.0609 6.12177 10 6.12177ZM10 12.1219C9.46963 12.1219 8.96087 11.9111 8.58569 11.5361C8.21069 11.1609 7.99991 10.6521 7.99991 10.1218C7.99991 9.5914 8.21069 9.08264 8.58569 8.70746C8.96087 8.33245 9.46963 8.12168 10 8.12168C10.5304 8.12168 11.0391 8.33245 11.4143 8.70746C11.7893 9.08263 12.0001 9.5914 12.0001 10.1218C12.0001 10.6521 11.7893 11.1609 11.4143 11.5361C11.0391 11.9111 10.5304 12.1219 10 12.1219Z" fill="white"/>
</svg>
