<svg width="31" height="21" viewBox="0 0 31 21" fill="none" xmlns="http://www.w3.org/2000/svg">
<path d="M0.6875 19.33C0.6875 20.2505 1.43375 20.9968 2.3543 20.9968H29.0207C29.9412 20.9968 30.6875 20.2505 30.6875 19.33C30.6875 18.4094 29.9412 17.6632 29.0207 17.6632H2.3543C1.43375 17.6632 0.6875 18.4094 0.6875 19.33ZM0.6875 10.9968C0.6875 11.9171 1.43357 12.6632 2.35391 12.6632H29.0211C29.9414 12.6632 30.6875 11.9171 30.6875 10.9968C30.6875 10.0764 29.9414 9.33036 29.0211 9.33036H2.3539C1.43357 9.33036 0.6875 10.0764 0.6875 10.9968ZM2.3543 0.996765C1.43375 0.996765 0.6875 1.74302 0.6875 2.66356C0.6875 3.58411 1.43375 4.33036 2.3543 4.33036H29.0207C29.9412 4.33036 30.6875 3.58411 30.6875 2.66356C30.6875 1.74302 29.9412 0.996765 29.0207 0.996765H2.3543Z" fill="#0E62CB"/>
</svg>
