<svg width="25" height="21" viewBox="0 0 25 21" fill="none" xmlns="http://www.w3.org/2000/svg">
<path d="M16.8225 18.1628C16.8234 17.4114 17.1222 16.691 17.6535 16.1596C18.1849 15.6283 18.9053 15.3295 19.6567 15.3286C20.4081 15.3295 21.1284 15.6283 21.6597 16.1596C22.191 16.691 22.4898 17.4114 22.4907 18.1628C22.4898 18.9142 22.191 19.6344 21.6597 20.1658C21.1284 20.6971 20.4081 20.9959 19.6567 20.9968C18.9053 20.9959 18.1849 20.6971 17.6536 20.1658C17.1222 19.6344 16.8234 18.9142 16.8225 18.1628ZM18.363 18.1628C18.3634 18.5057 18.4999 18.8345 18.7423 19.077C18.9849 19.3195 19.3136 19.4559 19.6567 19.4563C19.9996 19.4559 20.3284 19.3194 20.5709 19.077C20.8134 18.8345 20.9498 18.5057 20.9502 18.1628C20.9499 17.8197 20.8135 17.4909 20.5709 17.2484C20.3284 17.0058 19.9996 16.8695 19.6567 16.8691C19.3136 16.8694 18.9848 17.0058 18.7422 17.2483C18.4996 17.4909 18.3632 17.8197 18.3628 18.1627L18.363 18.1628ZM8.19445 18.1628C8.19515 17.4114 8.49398 16.691 9.02538 16.1596C9.55663 15.6283 10.2771 15.3295 11.0284 15.3286C11.7798 15.3295 12.5003 15.6283 13.0315 16.1596C13.5629 16.691 13.8617 17.4114 13.8624 18.1628C13.8617 18.9142 13.5629 19.6344 13.0315 20.1658C12.5003 20.6971 11.7798 20.9959 11.0284 20.9968C10.2771 20.9961 9.55649 20.6972 9.02509 20.1658C8.4937 19.6346 8.19488 18.9142 8.19403 18.1628H8.19445ZM9.73491 18.1628H9.73477C9.73519 18.5057 9.87163 18.8345 10.1142 19.077C10.3567 19.3195 10.6855 19.4559 11.0285 19.4563C11.3714 19.4559 11.7002 19.3194 11.9427 19.077C12.1851 18.8345 12.3216 18.5057 12.3221 18.1628C12.3217 17.8197 12.1853 17.4909 11.9427 17.2484C11.7002 17.0059 11.3714 16.8695 11.0285 16.8691C10.6854 16.8694 10.3566 17.0058 10.114 17.2483C9.87138 17.4907 9.73495 17.8197 9.73452 18.1627L9.73491 18.1628ZM8.67256 14.9555C8.51003 14.9553 8.35183 14.9038 8.22027 14.8084C8.08886 14.713 7.99092 14.5784 7.94056 14.4239L4.06807 2.5368H1.45858H1.45872C1.25433 2.53708 1.05818 2.45603 0.913503 2.31163C0.768832 2.16724 0.6875 1.97123 0.6875 1.76685C0.6875 1.56261 0.768693 1.36674 0.913085 1.22235C1.05748 1.07796 1.25335 0.996765 1.45758 0.996765H4.62597C4.7885 0.996765 4.94684 1.04824 5.07825 1.14367C5.20967 1.23923 5.30761 1.37372 5.35797 1.52831L6.16182 3.99634H24.1232C24.3275 3.99634 24.5233 4.07739 24.6677 4.22193C24.8121 4.36632 24.8933 4.56219 24.8933 4.76642C24.8934 4.80549 24.8905 4.84455 24.8848 4.88333C24.9011 4.9895 24.895 5.09803 24.8668 5.20183L22.381 14.3868C22.3368 14.5502 22.2401 14.6943 22.1058 14.7971C21.9714 14.8999 21.8069 14.9557 21.6377 14.9557L8.67256 14.9555ZM9.23156 13.415H21.049L23.1817 5.53573H6.6646L9.23156 13.415Z" fill="#0E62CB"/>
</svg>
