<?xml version="1.0" standalone="yes"?>
<svg xmlns="http://www.w3.org/2000/svg" width="12400" height="8512">
<path style="fill:#010101; stroke:none;" d="M0 0L0 741L1 741C1 671.213 17.6922 598.923 39.6667 533C117.052 300.844 304.247 115.918 536 38.667C600.883 17.0391 672.349 1 741 1L721 0L677 0L525 0L0 0z"/>
<path style="fill:#069bbf; stroke:none;" d="M0 1469L12400 1469L12400 1002L12400 828C12400 771.909 12400.2 716.566 12391.6 661C12359.1 451.819 12239.8 255.446 12063 137.001C11998.2 93.6152 11929.3 59.0996 11855 35.3438C11796.2 16.5498 11734.5 5.30078 11673 1.08984C11607.2 -3.41504 11540 0 11474 0L10993 0L9301 0L3663 0L1557 0L969 0C888.761 0 807.01 -4.38574 727 1.08984C655.662 5.97266 585.541 20.9014 518 44.3438C448.392 68.5039 382.798 104.006 323 146.859C154.776 267.414 38.4477 457.155 8.2716 662C-0.0737076 718.65 0 774.854 0 832L0 1001L0 1469z"/>
<path style="fill:#010101; stroke:none;" d="M11659 0L11659 1C11728.8 1 11801.1 17.6924 11867 39.667C12099.2 117.053 12284.1 304.247 12361.3 536C12383 600.883 12399 672.349 12399 741L12400 741L12400 0L11659 0z"/>
<path style="fill:#fcfdfd; stroke:none;" d="M0 1469L0 7039L12400 7039L12400 1469L0 1469z"/>
<path style="fill:#069bbf; stroke:none;" d="M7340 2632L7340 2655L7218 2656L7218 2679L7097 2680L7097 2704L7024 2704L7024 2728L6952 2728L6952 2752L6879 2753L6879 2776L6831 2777L6829.97 2798.68L6817 2801L6782 2801L6782 2825L6734 2825L6734 2849L6686 2850L6686 2873L6661 2873L6661 2897L6613 2898L6613 2922L6588 2922L6588 2946L6564 2946L6564 2970C6559 2970 6543.33 2967.43 6540.03 2971.6C6536.64 2975.88 6539 2988.68 6539 2994L6492 2995L6492 3019L6468 3019L6468 3043L6443 3043L6443 3068L6419 3068L6419 3115C6413.49 3115 6400.02 3112.53 6395.6 3116.03C6391.43 3119.33 6394 3135 6394 3140L6370 3140L6370 3164L6346 3164L6346 3212L6322 3212L6321 3260L6298 3260L6297 3309L6274.6 3310.03L6273 3323L6273 3358L6249 3358L6249 3431L6225 3431L6225 3551L6201 3551L6201 3793L6225 3793L6225 3890L6249 3890L6249 3939L6273 3939L6273 3974L6274.6 3986.97L6297 3988L6298 4036L6322 4036L6322 4061L6346 4061L6346 4108L6370 4108L6370 4133L6394 4133L6394 4157L6419 4157L6419 4181L6443 4181L6443 4206L6467 4206L6467 4230L6491 4230L6491 4254L6516 4254L6516 4278L6564 4279L6564 4303L6588 4303C6588 4308.32 6585.64 4321.12 6589.03 4325.4C6592.33 4329.57 6608 4327 6613 4327L6613 4351L6661 4351L6661 4375C6666.48 4375 6680.31 4372.51 6684.4 4376.6C6688.38 4380.58 6686 4393.69 6686 4399L6721 4399L6732.97 4401.32L6734 4423L6782 4424L6782 4448L6830 4448L6830 4472L6879 4472L6879 4496L6927 4496L6927 4520L6976 4521L6976 4544L7024 4545L7024 4569L7073 4569L7073 4593L7121 4593L7121 4617L7169 4618L7169 4641L7218 4642L7218 4666L7242 4666L7242 4690L7267 4690L7267 4714L7315 4715L7315 4739L7339 4739L7339 4763L7363 4763L7364 4811C7369.31 4811 7382.42 4808.62 7386.4 4812.6C7389.91 4816.11 7388 4826.41 7388 4831L7388 4883C7393.31 4883 7406.42 4880.62 7410.4 4884.6C7413.91 4888.11 7412 4898.41 7412 4903L7412 4956L7388 4956L7387 5029L7363 5029L7363 5054L7339 5054L7339 5078L7315 5078L7315 5102L7291 5102L7291 5126L7266 5126L7266 5150L7218 5150L7218 5174L7145 5175L7145 5198L7048 5199L7048 5223L6612 5222L6612 5199L6467 5198L6467 5175L6370 5174L6370 5151L6274 5150L6274 5126L6225 5126L6225 5102L6172 5102C6167.41 5102 6157.11 5103.91 6153.6 5100.4C6149.62 5096.42 6152 5083.31 6152 5078L6080 5077L6078.97 5054.6L6066 5053L6031 5053L6031 5029L5959 5029L5958 5126L5935 5126L5934 5271C5929.14 5271 5914.25 5268.53 5911.03 5272.6C5909.09 5275.05 5910 5280.09 5910 5283L5910 5311L5910 5417L5886 5417L5885 5562L5862 5562L5861 5731L5910 5732L5910 5755L5983 5756L5983 5780L6080 5780L6080 5804L6177 5805L6177 5828L6298 5829L6298 5852L6491 5853L6491 5877L6975 5877L7082 5877L7110 5877C7112.91 5877 7117.95 5877.91 7120.4 5875.97C7124.47 5872.75 7122 5857.86 7122 5853L7290 5852L7290 5829L7388 5828L7388 5805L7484 5804L7484 5780L7557 5780L7557 5756L7592 5756L7604.97 5754.4L7606 5732L7678 5731L7678 5707L7726 5707L7727.03 5685.32L7740 5683L7775 5683L7775 5659L7800 5659L7800 5635L7848 5634L7848 5610L7872 5610L7872 5587L7920 5586L7920 5562L7945 5562L7945 5538L7969 5538L7969 5514L7993 5514L7993 5490C7998.51 5490 8011.97 5492.47 8016.4 5488.97C8020.57 5485.67 8018 5470 8018 5465L8042 5465L8042 5441L8066 5441L8066 5417L8090 5417L8090 5392L8114 5392L8114 5368L8138 5368L8139 5320L8163 5320L8163 5295L8186 5295L8187 5247L8211 5247L8211 5198L8235 5198L8236 5126L8259 5126L8260 5053L8284 5053L8284 4932L8308 4932L8308 4666L8284 4666L8283 4569L8260 4569L8260 4533L8258.4 4521.03L8236 4520L8235 4472L8212 4472L8211 4423L8187 4423L8187 4388L8185.4 4376.03L8163 4375L8163 4351L8139 4351C8139 4346 8141.57 4330.33 8137.4 4327.03C8132.98 4323.53 8119.51 4326 8114 4326L8114 4302L8090 4302L8090 4278L8066 4278L8066 4254L8042 4254L8042 4230L8018 4230C8018 4225 8020.57 4209.33 8016.4 4206.03C8011.98 4202.53 7998.51 4205 7993 4205L7993 4181L7969 4181L7969 4157L7921 4157L7921 4133L7896 4133L7896 4109L7872 4109L7872 4085L7824 4084L7822.97 4061.6L7811 4060L7775 4060L7775 4036L7727 4036L7727 4012L7702 4012L7702 3988L7654 3987L7654 3964L7582 3963L7582 3939L7557 3939L7557 3915L7485 3914L7485 3891L7460 3891L7460 3867L7388 3866L7388 3842L7363 3842L7363 3818L7315 3818L7315 3794L7267 3793L7267 3770C7261.52 3770 7247.69 3772.49 7243.6 3768.4C7239.62 3764.42 7242 3751.31 7242 3746L7194 3745L7194 3721L7170 3721L7170 3697L7146 3697L7145 3649L7121 3649L7121 3624L7097 3624L7097 3503L7121 3503L7121 3455L7145 3455C7145 3449.52 7142.51 3435.69 7146.6 3431.6C7150.58 3427.62 7163.69 3430 7169 3430L7169 3406L7194 3406L7194 3382L7218 3382L7218 3358L7266 3358L7266 3334L7315 3334L7315 3310L7436 3309L7436 3285L7848 3286L7848 3309L7969 3310L7969 3333L8066 3334L8066 3357L8139 3358L8139 3382L8211 3382L8211 3406L8260 3406L8260 3430L8308 3431L8308 3406L8332 3406L8333 3261L8356 3261L8357 3116L8380 3116L8381 2971C8385.86 2971 8400.75 2973.47 8403.97 2969.4C8408.35 2963.87 8405 2944.97 8405 2938L8405 2849L8429 2849L8429 2752L8381 2752L8381 2728L8308 2728L8308 2704L8255 2704C8250.41 2704 8240.11 2705.91 8236.6 2702.4C8232.62 2698.42 8235 2685.31 8235 2680L8114 2679L8114 2656L7969 2655L7969 2632L7340 2632z"/>
<path style="fill:#f69e1b; stroke:none;" d="M751 2655L751 2728L847 2728L847 2752L900 2752C904.762 2752 915.77 2749.98 919.397 2753.6C923.376 2757.58 921 2770.69 921 2776L1017 2777L1017 2801L1090 2801L1090 2825L1139 2825L1139 2849L1211 2849L1211 2873L1283 2874L1284.03 2896.4L1296 2898L1332 2898L1333.03 2920.4L1345 2922L1381 2922L1381 2946L1429 2946L1429 2970L1478 2970L1478 2994L1526 2995L1526 3018L1575 3019L1575 3043L1623 3043L1623 3067L1671 3067L1671 3091L1719 3092C1719 3097.32 1716.64 3110.12 1720.03 3114.4C1723.33 3118.57 1739 3116 1744 3116L1744 3140L1792 3140L1792 3164L1817 3164L1817 3188L1865 3189C1865 3193.86 1862.53 3208.75 1866.6 3211.97C1870.88 3215.36 1883.68 3213 1889 3213L1890.03 3235.4L1902 3237L1937 3237L1937 3261L1962 3261L1962 3285L1986 3285L1986 3309C1991.48 3309 2005.31 3306.51 2009.4 3310.6C2013.38 3314.58 2011 3327.69 2011 3333L2059 3334L2059 3358L2083 3358L2083 3382L2107 3382L2107 3406C2112.48 3406 2126.31 3403.51 2130.4 3407.6C2134.38 3411.58 2132 3424.69 2132 3430C2137.31 3430 2150.42 3427.62 2154.4 3431.6C2158.49 3435.69 2156 3449.52 2156 3455L2180 3455L2180 3479L2204 3479L2204 3503C2209.48 3503 2223.31 3500.51 2227.4 3504.6C2231.38 3508.58 2229 3521.69 2229 3527L2253 3527L2253 3551C2258.31 3551 2271.42 3548.62 2275.4 3552.6C2279.49 3556.69 2277 3570.52 2277 3576L2301 3576L2301 3600L2325 3600L2325 3624L2349 3624C2349 3629.51 2346.53 3642.98 2350.03 3647.4C2353.33 3651.57 2369 3649 2374 3649L2374 3673L2398 3673L2398 3721L2422 3721L2422 3745L2446 3745C2446 3750 2443.43 3765.67 2447.6 3768.97C2451.88 3772.36 2464.68 3770 2470 3770L2471 3818L2495 3818L2495 3842L2519 3842L2519 3890L2543 3890L2543 3915L2567 3915L2568 3963L2592 3963L2592 3988L2616 3988L2616 4036L2640 4036L2640 4071L2641.6 4083.97L2664 4085L2665 4133L2688 4133L2689 4181L2713 4181L2713 4230L2737 4230L2737 4181L2713 4181L2713 4060L2689 4060L2688 3939L2665 3939L2664 3818L2640 3818L2640 3697L2616 3697L2616 3600L2592 3600L2591 3479L2568 3479L2567 3358L2544 3358L2543 3237L2519 3237L2519 3116L2495 3116L2495 3045C2495 3039.15 2497.68 3024.29 2493.97 3019.6C2490.75 3015.53 2475.86 3018 2471 3018L2470 2898L2447 2898L2446 2825L2422 2825L2422 2800L2398 2800L2398 2753C2392.52 2753 2378.69 2755.49 2374.6 2751.4C2370.51 2747.31 2373 2733.48 2373 2728L2325 2728L2325 2704L2277 2703L2277 2680L2228 2679L2228 2656L751 2655z"/>
<path style="fill:#069bbf; stroke:none;" d="M3706 2680L3706 2752L3682 2752L3681 2824L3658 2824L3657 2873L3634 2873L3633 2946L3609 2946L3609 2995L3585 2995L3584 3067L3561 3067L3561 3102C3561 3105.5 3562.13 3111.66 3559.4 3114.4C3555.42 3118.38 3542.31 3116 3537 3116L3536 3188L3512 3188L3512 3237L3488 3237L3488 3309L3464 3309L3463 3382L3440 3382L3439 3431L3416 3431L3415 3503L3391 3503L3391 3552L3367 3552L3367 3624L3343 3624L3343 3659C3343 3662.5 3344.13 3668.66 3341.4 3671.4C3337.42 3675.38 3324.31 3673 3319 3673L3318 3745L3294 3745L3294 3794L3270 3794L3270 3866L3246 3866L3245 3939L3222 3939L3221 3988L3198 3988L3197 4060L3173 4060L3173 4109L3149 4109L3149 4181L3125 4181L3125 4216L3122.68 4228.97L3101 4230L3100 4302L3077.6 4303.03L3076 4316L3076 4351L3052 4351L3052 4423L3028 4423L3027 4496L3004 4496L3003 4545L2979 4545L2979 4617L2955 4617L2955 4666L2931 4666L2931 4738L2907 4738L2907 4773L2904.68 4785.97L2882 4787L2882 4811L2858 4811L2858 4715L2834 4715L2834 4641L2810 4641L2809 4545L2786 4545L2785 4472L2761 4472L2761 4424L2737 4424L2737 4375L2713 4375L2712 4327L2689 4327C2689 4322 2691.57 4306.33 2687.4 4303.03C2683.12 4299.64 2670.32 4302 2665 4302L2664 4254L2640 4254L2640 4229L2616 4229L2616 4181L2592 4181L2592 4157L2568 4157L2567 4109C2561.69 4109 2548.58 4111.38 2544.6 4107.4C2540.51 4103.31 2543 4089.48 2543 4084L2519 4084L2519 4036L2495 4036L2495 4012L2471 4012C2471 4007 2473.57 3991.33 2469.4 3988.03C2464.98 3984.53 2451.51 3987 2446 3987L2446 3963L2422 3963L2422 3915L2398 3915L2398 3891L2374 3891L2374 3867C2368.52 3867 2354.69 3869.49 2350.6 3865.4C2346.51 3861.31 2349 3847.48 2349 3842L2325 3842L2325 3818L2301 3818L2301 3794L2277 3794L2277 3769L2253 3769L2253 3745L2229 3745L2229 3721L2204 3721L2204 3697L2180 3697L2180 3672L2156 3672L2156 3648L2132 3648L2132 3624L2108 3624L2108 3600L2083 3600L2083 3576L2059 3576L2059 3552L2035 3552C2035 3547 2037.57 3531.33 2033.4 3528.03C2028.97 3524.53 2015.51 3527 2010 3527L2010 3503L1986 3503L1986 3479L1962 3479L1962 3455L1914 3454C1914 3448.68 1916.36 3435.88 1912.97 3431.6C1909.67 3427.43 1894 3430 1889 3430L1889 3406L1865 3406L1865 3382L1841 3382L1841 3358L1793 3357C1793 3351.68 1795.36 3338.88 1791.97 3334.6C1788.67 3330.43 1773 3333 1768 3333L1768 3309L1744 3309L1744 3285L1696 3285L1696 3261L1671 3261L1671 3237L1623 3236L1623 3213L1599 3213L1599 3261L1623 3261L1623 3334L1647 3334L1648 3430L1671 3430L1672 3503L1695 3503L1696 3576L1719 3576L1720 3672L1744 3672L1744 3746L1768 3746L1769 3842L1792 3842L1793 3915L1816 3915L1817 3988L1840 3988L1841 4084L1865 4084L1865 4157L1889 4157L1890 4254L1913 4254L1914 4327L1937 4327L1938 4423L1962 4423L1962 4496L1986 4496L1986 4569L2010 4569L2011 4666L2034 4666L2035 4739L2059 4739L2059 4835L2083 4835L2083 4908L2107 4908L2107 4962L2108.6 4979.97L2131 4981L2132 5077C2137.31 5077 2150.42 5074.62 2154.4 5078.6C2158.02 5082.23 2156 5093.24 2156 5098L2156 5151L2180 5151L2180 5247L2204 5247L2204 5320L2228 5320L2229 5416L2252 5416L2253 5489L2277 5489L2277 5562L2301 5562L2301 5659L2325 5659L2325 5713L2326.6 5730.97L2349 5732L2350 5828L3294 5828L3294 5780L3318 5780L3319 5707L3343 5707L3343 5659L3367 5659L3367 5610L3391 5610L3391 5538L3415 5538L3415 5503C3415 5499.5 3413.87 5493.34 3416.6 5490.6C3420.58 5486.62 3433.69 5489 3439 5489L3440 5440L3463 5440L3464 5369L3486.4 5367.97L3488 5355L3488 5320L3512 5320L3512 5271L3536 5271L3537 5199L3559.4 5197.97L3561 5185L3561 5150L3585 5150L3585 5101L3609 5101L3609 5029L3633 5029L3633 4981L3657 4981L3658 4932L3681 4932L3682 4860L3706 4860L3706 4811L3730 4811L3730 4776C3730 4772.5 3728.87 4766.34 3731.6 4763.6C3735.58 4759.62 3748.69 4762 3754 4762L3755 4690L3779 4690L3779 4642L3801.4 4640.97L3803 4629L3803 4593L3827 4593L3827 4521L3851 4521L3851 4472L3875 4472L3876 4423L3899 4423L3900 4351L3924 4351L3924 4303L3948 4303L3948 4254L3972 4254L3973 4182L3995.4 4180.97L3997 4169L3997 4133L4021 4133L4021 4084L4045 4084L4045 4012L4069 4012L4070 3964L4093 3964L4094 3915L4117 3915L4118 3843L4142 3843L4142 3794L4166 3794L4166 3745L4190 3745L4191 3673L4213.4 3671.97L4215 3660L4215 3624L4239 3624L4239 3576L4263 3576L4263 3527L4287 3527L4288 3455L4311 3455L4312 3406L4335 3406L4336 3357L4359 3357L4360 3285L4384 3285L4384 3237L4408 3237L4408 3202C4408 3198.5 4406.87 3192.34 4409.6 3189.6C4413.58 3185.62 4426.69 3188 4432 3188L4433 3116L4457 3116L4457 3067L4481 3067L4481 3018L4505 3018L4506 2946L4529 2946L4530 2898L4553 2898L4554 2849L4577 2849L4578 2777L4602 2777L4602 2728L4626 2728L4626 2680L3706 2680M4989 2680L4989 2704L4966 2704L4965 2849L4942 2849L4941 2995L4917 2995L4917 3140L4893 3140L4892 3285L4869 3285L4868 3430L4845 3430L4844 3575C4839.14 3575 4824.25 3572.53 4821.03 3576.6C4816.65 3582.13 4820 3601.03 4820 3608L4820 3697L4796 3697L4796 3802L4796 3829C4796 3832.39 4796.95 3837.71 4794.97 3840.68C4791.75 3845.52 4777.19 3843 4772 3843L4771 3988L4748 3988L4747 4133L4724 4133L4723 4278L4699 4278L4699 4423L4675 4423L4674 4569L4651 4569L4650 4714L4627 4714L4626 4836L4603 4836L4602 4981L4578 4981L4578 5126L4554 5126L4553 5271L4530 5271L4529 5416L4506 5416L4505 5562L4481 5562L4481 5707L4457 5707C4457 5737.33 4457.36 5767.68 4457 5798C4456.92 5804.13 4452.17 5823.67 4457.6 5827.97C4460.22 5830.05 4465.88 5829 4469 5829L4500 5829L4618 5829L5076 5829L5244 5829L5287 5829C5291.12 5829 5300 5830.66 5303.4 5827.97C5306.35 5825.63 5305 5818.32 5305 5815L5305 5780L5328 5780L5329 5635L5353 5635L5353 5489L5377 5489L5378 5344L5401 5344L5402 5199L5425 5199L5426 5054C5430.86 5054 5445.75 5056.47 5448.97 5052.4C5453.35 5046.87 5450 5027.97 5450 5021L5450 4932L5474 4932L5474 4787L5498 4787L5499 4641L5522 4641L5523 4496L5546 4496L5547 4351L5571 4351L5571 4206L5595 4206L5596 4061L5619 4061L5620 3939L5643 3939L5644 3794L5667 3794L5668 3648L5692 3648L5693 3503L5716 3503L5717 3358L5740 3358L5741 3213L5764 3213L5765 3091L5789 3091L5789 2946L5813 2946L5814 2801L5837 2801L5838 2680L4989 2680M9834 2680L9834 2703L9761 2704L9761 2728L9689 2728L9689 2752C9684 2752 9668.33 2749.43 9665.03 2753.6C9661.64 2757.88 9664 2770.68 9664 2776L9640 2776L9640 2800L9616 2800L9616 2825L9592 2825L9592 2849L9568 2849C9568 2854.48 9570.49 2868.31 9566.4 2872.4C9562.42 2876.38 9549.31 2874 9544 2874L9543 2922L9519 2922L9519 2994L9495 2994L9495 3029C9495 3032.5 9496.13 3038.66 9493.4 3041.4C9489.42 3045.38 9476.31 3043 9471 3043L9470 3091L9447 3091L9446 3140L9423 3140L9422 3212L9398 3212L9398 3261L9374 3261L9374 3309L9350 3309L9350 3344C9350 3347.5 9351.13 3353.66 9348.4 3356.4C9344.42 3360.38 9331.31 3358 9326 3358L9325 3430L9301 3430L9301 3479L9277 3479L9277 3514C9277 3517.5 9278.13 3523.66 9275.4 3526.4C9271.42 3530.38 9258.31 3528 9253 3528L9253 3563L9250.68 3574.97L9229 3576L9228 3648L9205.6 3649.03L9204 3662L9204 3697L9180 3697L9180 3746L9156 3746L9156 3794L9132 3794L9131 3866L9108.6 3867.03L9107 3880L9107 3915L9083 3915L9083 3964L9059 3964L9058 4036L9035 4036L9034 4084L9011 4084L9010 4133L8986 4133L8986 4182L8962 4182L8962 4254L8938 4254L8937 4302L8914 4302L8913 4351L8890 4351L8889 4400L8866 4400L8865 4472L8841 4472L8841 4520L8817 4520L8817 4569L8793 4569L8792 4618L8769 4618L8768 4690L8744 4690L8744 4738L8720 4738L8720 4787L8696 4787L8696 4822C8696 4825.5 8697.13 4831.66 8694.4 4834.4C8690.42 4838.38 8677.31 4836 8672 4836L8671 4908L8647 4908L8647 4956L8623 4956L8623 5005L8599 5005L8598 5077L8575 5077L8574 5126L8550 5126L8550 5174L8526 5174L8526 5223L8502 5223L8501 5295L8478 5295L8477 5344L8454 5344L8453 5392L8430.6 5393.03L8429 5405L8429 5441L8405 5441L8404 5513L8381 5513L8381 5562L8357 5562L8356 5611L8333 5611L8332 5659L8308 5659L8308 5731L8284 5731L8284 5780L8260 5780L8260 5829L8948 5829L9100 5829L9140 5829C9143.73 5829 9151.3 5830.42 9154.4 5827.97C9158.57 5824.67 9156 5809 9156 5804L9180 5804L9180 5731L9204 5731L9205 5659L9228 5659L9229 5610L9252 5610L9253 5538L9277 5538L9277 5466L9301 5466L9301 5431C9301 5427.31 9299.73 5420.48 9302.6 5417.6C9306.58 5413.62 9319.69 5416 9325 5416L9325 5382L9326.6 5369.6L9344 5368L9392 5368L9585 5368L10439 5368L10440 5441L10463 5441L10464 5562L10488 5562L10488 5659L10512 5659L10513 5780L10536 5780L10536 5814L10537 5827.4L10547 5829L10574 5829L10687 5829L11165 5829L11293 5829L11324 5829L11335 5827.4L11336 5814L11336 5780L11312 5780L11311 5659L11288 5659L11287 5562L11264 5562L11263 5441L11239 5441L11238 5320L11215 5320L11214 5223L11191 5223L11190 5102C11184.7 5102 11171.6 5104.38 11167.6 5100.4C11163.4 5096.21 11166 5081.6 11166 5076L11166 5005L11142 5005L11142 4884L11118 4884L11117 4787L11094 4787L11093 4666C11087.7 4666 11074.6 4668.38 11070.6 4664.4C11066.4 4660.21 11069 4645.6 11069 4640L11069 4569L11046 4569L11045 4448L11021 4448L11021 4351L10997 4351L10996 4230L10973 4230L10972 4133L10949 4133L10948 4012L10924 4012L10924 3915L10900 3915L10899 3794L10876 3794L10875 3696L10852 3696L10851 3576L10827 3576L10827 3478L10803 3478L10803 3358L10779 3358L10778 3237L10755 3237L10754 3140L10731 3140L10730 3019L10706 3019L10706 2922L10682 2922L10681 2801L10658 2801L10657 2704L10634 2704L10634 2680L9834 2680z"/>
<path style="fill:#fcfdfd; stroke:none;" d="M10028 3552L10028 3576L10004 3576L10003 3649L9980 3649L9979 3721L9955 3721L9955 3770L9931 3770L9931 3842L9907 3842L9907 3877C9907 3880.5 9908.13 3886.66 9905.4 3889.4C9901.42 3893.38 9888.31 3891 9883 3891L9882 3963L9859 3963L9858 4036L9834 4036L9834 4085L9810 4085L9809 4157L9786 4157L9785 4206L9762 4206L9761 4278L9737 4278L9737 4350L9713 4350L9713 4399L9689 4399L9688 4472L9665 4472L9664 4521L9641 4521L9640 4593L9616 4593L9616 4642L9592 4642L9592 4714L10294 4714L10294 4666L10270 4666L10270 4545L10246 4545L10246 4474C10246 4468.15 10248.7 4453.29 10245 4448.6C10241.7 4444.53 10226.9 4447 10222 4447L10221 4327L10198 4327L10197 4206L10173 4206L10173 4109L10149 4109L10148 3988L10125 3988L10124 3890L10101 3890L10100 3770L10077 3770L10076 3649L10052 3649L10052 3552L10028 3552z"/>
<path style="fill:#f69e1b; stroke:none;" d="M0 7039L0 7040L509 7040L509 7887L532 7887L533 8008L557 8008L557 8081L581 8081L581 8116L582.603 8128.97L605 8130L606 8178L630 8178L630 8202L654 8202L654 8250L678 8250L678 8275L702 8275L702 8299L726 8299L726 8323C731.477 8323 745.306 8320.51 749.397 8324.6C753.487 8328.69 751 8342.52 751 8348L775 8348L775 8372L799 8372L800.028 8394.4L812 8396L847 8396L847 8420L872 8420L872 8444L920 8445L921.028 8467.4L934 8469L969 8469L969 8493L1041 8493L1041 8512L8610 8512L10825 8512L11434 8512C11513.2 8512 11594 8516.32 11673 8510.91C11749.1 8505.7 11824.6 8489.5 11896 8462.58C11965.3 8436.42 12030.8 8400.2 12090 8355.63C12251.1 8234.27 12362.3 8049.81 12391.7 7850C12408.1 7739.13 12400 7623.88 12400 7512L12400 7039L0 7039z"/>
<path style="fill:#cf7f11; stroke:none;" d="M0 7040L0 7566L0 7726C0 7762.84 -1.61123 7802.93 7 7839L24 7838C24 7863.17 22.4485 7888.96 24.8302 7914C25.3714 7919.69 23.6406 7925.42 24.9028 7931C28.5525 7947.14 33.1432 7964.73 39.7106 7979.94C41.7984 7984.78 47.9474 7983.46 48.8519 7989.02C49.7138 7994.32 47.7963 7999.78 48.6181 8005C50.4442 8016.6 57.8251 8029.23 62.4213 8040C64.7776 8045.52 66.8353 8055.01 73 8057C71.7741 8073.45 87.8752 8091.29 94 8106L97 8105C97.4255 8123.1 117.484 8145 126.808 8160C160.524 8214.24 204.721 8264.47 252 8307.17C370.29 8414.01 517.548 8484.88 676 8505.72C730.552 8512.89 785.054 8512 840 8512L1041 8512L1041 8493L969 8493L969 8469L934 8469C930.497 8469 924.337 8470.13 921.603 8467.4C917.624 8463.42 920 8450.31 920 8445L872 8444L872 8420L847 8420L847 8396L812 8396L800.028 8393.68L799 8372L775 8372L775 8348L751 8348C751 8342.49 753.474 8329.03 749.972 8324.6C746.669 8320.43 731.002 8323 726 8323L726 8299L702 8299L702 8275L678 8275L678 8250L654 8250L654 8202L630 8202L630 8178L606 8178L605 8130C599.69 8130 586.583 8132.38 582.603 8128.4C579.869 8125.66 581 8119.5 581 8116L581 8081L557 8081L557 8008L533 8008L532 7887L509 7887L509 7040L0 7040z"/>
<path style="fill:#010101; stroke:none;" d="M0 7771L0 8512L741 8512L741 8511C678.543 8511 613.518 8497.33 554 8479.02C338.192 8412.67 157.282 8253.93 65.8603 8047C41.2659 7991.33 22.2271 7932.09 12.081 7872C8.44832 7850.49 4.68454 7828.77 3.08873 7807C2.32365 7796.56 3.97892 7780.48 0 7771M12399 7771C12399 7840.79 12382.3 7913.08 12360.3 7979C12282.9 8211.16 12095.8 8396.08 11864 8473.33C11799.1 8494.96 11727.7 8511 11659 8511L11659 8512L12400 8512L12400 7986L12400 7835L12400 7791L12399 7771z"/>
<path style="fill:#f69e1b; stroke:none;" d="M23 7925L25 7925L24 7838L8.04244 7839.6L10.2469 7862L23 7925z"/>
<path style="fill:#cf7f11; stroke:none;" d="M8 7850L9 7851L8 7850z"/>
<path style="fill:#f69e1b; stroke:none;" d="M41 7984L49 8002C49 7993.7 51.7038 7984.13 41 7984M70 8057L72 8061L73 8061L73 8057L70 8057M96 8105L96 8109L97 8109L96 8105z"/>
</svg>
