<?xml version="1.0" standalone="yes"?>
<svg xmlns="http://www.w3.org/2000/svg" width="8434" height="8434">
<path style="fill:#012652; stroke:none;" d="M0 0L0 8434L3839 8434L3839 8418L3855 8418L3855 8434L8434 8434L8434 4596L8418 4596L8418 4581L8434 4581L8433 3840L8418 3840L8418 3839L8434 3839L8434 0L0 0z"/>
<path style="fill:#2a659d; stroke:none;" d="M3559 34L3559 50L3575 50L3575 34L3559 34M4958 50L4959 67L4975 67L4975 51L4958 50M3378 67L3378 68L3393 68L3378 67M5041 67L5041 68L5058 68L5041 67M3311 83L3295 84L3295 100L3311 100L3311 83M5205 101L5205 116L5206 116L5205 101M3163 116L3163 117L3179 117L3163 116M5271 116L5272 117L5271 116M3097 133L3098 134L3097 133M5321 133L5321 134L5337 134L5337 149L5338 149L5338 133L5321 133M2982 166L2982 167L2998 167L2982 166M5437 166L5437 167L5452 167L5437 166M2932 182L2933 183L2932 182M5502 183L5502 199L5503 199L5502 183M2833 216L2833 232L2834 232L2833 216M5684 249L5684 265L5699 265L5699 249L5684 249M2652 281L2653 282L2652 281M2570 314L2571 315L2570 314M5848 314L5848 315L5865 315L5848 314z"/>
<path style="fill:#029ddd; stroke:none;" d="M2537 330L2538 331L2537 330z"/>
<path style="fill:#2a659d; stroke:none;" d="M5881 330L5881 331L5897 331L5881 330z"/>
<path style="fill:#029ddd; stroke:none;" d="M5897 330L5898 331L5897 330z"/>
<path style="fill:#2a659d; stroke:none;" d="M5997 380L5997 381L6013 381L5997 380M2389 396L2389 397L2405 397L2389 396M6045 396L6046 397L6045 396M2356 413L2357 414L2356 413M6111 429L6112 430L6111 429M6177 462L6178 463L6177 462M6210 479L6210 495L6211 495L6210 479M6227 496L6227 512L6243 512L6243 496L6227 496M6343 562L6343 578L6358 578L6358 562L6343 562z"/>
<path style="fill:#029ddd; stroke:none;" d="M1945 643L1945 644L1961 644L1945 643M6474 643L6474 644L6490 644L6474 643z"/>
<path style="fill:#2a659d; stroke:none;" d="M1845 709L1846 710L1845 709M6589 710L6589 726L6590 726L6589 710M1796 742L1796 743L1812 743L1796 742M6672 776L6672 792L6688 792L6688 776L6672 776M1615 875L1615 890L1599 890L1599 891L1631 890L1631 875L1615 875z"/>
<path style="fill:#029ddd; stroke:none;" d="M1598 890L1599 891L1598 890z"/>
<path style="fill:#2a659d; stroke:none;" d="M6820 890L6820 891L6836 891L6820 890M6886 940L6886 941L6902 941L6886 940M7017 1039L7017 1055L7018 1055L7017 1039M1400 1056L1400 1072L1401 1072L1400 1056M7462 1500L7463 1501L7462 1500z"/>
<path style="fill:#029ddd; stroke:none;" d="M939 1533L940 1534L939 1533z"/>
<path style="fill:#2a659d; stroke:none;" d="M940 1533L940 1534L956 1534L940 1533M939 1534L939 1549L940 1549L939 1534M874 1616L874 1632L890 1632L890 1616L874 1616M7545 1616L7545 1632L7561 1632L7561 1616L7545 1616M791 1730L792 1731L791 1730M7644 1747L7644 1763L7659 1763L7659 1747L7644 1747M742 1796L742 1797L758 1797L742 1796M7677 1796L7677 1797L7692 1797L7677 1796M610 1995L610 2010L611 2010L610 1995M593 2027L594 2028L593 2027M7890 2109L7891 2110L7890 2109M495 2192L495 2193L511 2193L495 2192M7924 2192L7924 2208L7939 2208L7939 2192L7924 2192z"/>
<path style="fill:#029ddd; stroke:none;" d="M445 2290L446 2291L445 2290z"/>
<path style="fill:#2a659d; stroke:none;" d="M446 2290L446 2291L462 2291L446 2290M7973 2290L7973 2291L7989 2291L7973 2290M429 2323L429 2324L445 2324L429 2323M7990 2323L7990 2324L8005 2324L7990 2323z"/>
<path style="fill:#029ddd; stroke:none;" d="M8005 2323L8006 2324L8005 2323z"/>
<path style="fill:#2a659d; stroke:none;" d="M2669 2324L2669 2340L2735 2340L2735 2324L2669 2324z"/>
<path style="fill:#029ddd; stroke:none;" d="M2735 2324L2735 2340L2603 2341L2603 2356L2505 2357L2505 2373L2439 2374L2437.4 2388.4L2420 2390L2373 2390L2373 2406L2323 2407L2323 2423L2274 2423L2274 2439L2241 2439L2241 2455L2192 2456L2192 2472L2168 2472L2159.03 2473.6L2158 2488L2125 2489L2125 2505L2077 2505C2077 2520.75 2074.45 2522 2059 2522L2059 2538L2026 2538L2026 2554L1994 2555L1994 2571L1961 2571L1961 2587L1928 2588L1928 2604L1912 2604L1912 2620L1879 2621L1879 2637L1862 2637L1862 2653C1847.09 2653 1845 2653.81 1845 2669L1813 2670L1813 2686L1796 2686L1796 2703L1764 2703L1764 2719L1747 2719L1747 2736L1730 2736L1730 2752L1714 2752C1714 2767.1 1712.1 2769 1697 2769L1697 2785L1665 2785C1665 2800.1 1663.1 2802 1648 2802L1648 2818L1632 2818L1632 2835L1615 2835L1615 2851L1599 2851C1599 2866.1 1597.1 2868 1582 2868L1582 2884L1566 2884L1566 2901L1550 2901C1550 2915.73 1547.42 2917 1533 2917L1532 2949C1516.81 2949 1516 2951.09 1516 2966L1500 2966L1500 2983L1483 2983L1483 2999L1467 2999L1467 3016L1451 3016L1450 3048L1434 3048L1434 3065L1418 3065L1417 3098L1401 3098L1401 3114L1385 3114C1385 3129.1 1383.1 3131 1368 3131L1368 3164L1352 3164C1352 3179.1 1350.1 3181 1335 3181L1335 3213L1319 3213L1318 3246L1302 3246L1302 3279L1286 3279L1285 3312L1269 3312L1269 3345L1253 3345L1252 3378L1236 3378L1236 3411L1220 3411L1220 3444L1204 3444L1203 3493L1187 3493C1187 3499.49 1190.46 3522.12 1184.68 3525.97C1181.33 3528.21 1174.87 3527 1171 3527L1170 3576L1154 3576L1153 3641L1138 3641L1137 3691L1121 3691L1121 3757L1105 3757L1104 3856L1088 3856L1088 3988L1072 3988L1072 4284L1088 4284L1088 4432L1104 4432L1105 4515L1121 4515L1121 4596L1137 4596L1138 4646L1154 4646L1154 4696L1170 4696L1170 4745L1186 4745L1187 4794L1203 4794L1204 4843C1207.87 4843 1214.33 4841.79 1217.68 4844.03C1223.46 4847.88 1220 4870.51 1220 4877L1236 4877L1236 4910L1253 4910L1253 4943L1269 4943L1269 4966L1270.6 4974.97L1286 4976L1286 5009L1302 5009L1302 5041C1317.1 5041 1319 5042.9 1319 5058L1335 5058L1335 5091L1351 5091L1352 5124L1368 5124L1368 5141L1384 5141L1385 5173L1401 5173L1401 5190L1417 5190L1418 5222L1434 5222L1434 5239L1450 5239C1450 5254.58 1451.42 5256 1467 5256L1467 5272L1483 5272L1484 5305L1500 5305L1500 5321L1516 5321L1516 5338L1533 5338L1533 5354L1549 5354L1549 5371L1566 5371L1566 5387L1582 5387L1582 5404L1598 5404C1598 5419.58 1599.42 5421 1615 5421L1615 5437L1631 5437L1631 5453L1648 5453L1648 5470L1664 5470L1664 5486L1681 5486L1681 5503L1698 5503L1698 5519L1714 5519L1714 5535C1729.1 5535 1731 5536.9 1731 5552L1763 5552C1763 5567.58 1764.42 5569 1780 5569L1780 5585L1796 5585L1796 5601L1829 5602L1829 5618L1846 5618L1846 5634L1878 5635L1878 5651L1895 5651L1895 5667L1928 5668L1928 5684L1945 5684L1945 5700L1977 5700L1978.03 5715.4L1987 5717L2010 5717L2010 5733L2043 5734L2043 5750L2076 5750L2076 5766L2093 5766L2093 5782L2142 5783L2142 5799L2175 5799L2175 5815L2208 5816L2208 5832L2257 5832L2257 5848L2307 5849L2307 5865L2356 5865L2356 5881L2406 5882L2406 5898L2472 5898L2472 5914L2554 5915L2554 5931L2669 5931L2669 5947L3114 5947L3114 5931L3229 5931L3229 5915L3311 5914L3311 5898L3361 5898L3361 5882L3427 5881L3427 5865L3476 5865L3476 5849L3525 5848C3525 5844.13 3523.79 5837.67 3526.03 5834.32C3529.88 5828.54 3552.51 5832 3559 5832L3559 5816L3608 5815L3608 5799L3641 5799L3641 5783L3664 5783L3672.97 5781.4L3674 5766L3707 5766L3707 5750L3730 5750L3738.97 5748.4L3740 5733L3773 5733L3773 5717L3805 5717C3805 5701.9 3806.9 5700 3822 5700L3822 5684L3855 5684L3855 5667L3888 5667L3888 5651L3904 5651L3904 5635L3937 5634L3937 5618L3954 5618L3954 5601L3971 5601L3971 5585L4003 5585L4003 5568L4020 5568L4020 5552L4036 5552L4036 5536C4051.58 5536 4053 5534.58 4053 5519L4070 5519L4070 5503L4102 5502L4102 5470L4135 5469L4135 5453L4151 5453C4151 5437.9 4152.9 5436 4168 5436L4168 5420L4184 5420C4184 5405.58 4185.27 5403 4200 5403C4200 5388.27 4202.58 5387 4217 5387L4218 5355C4233.19 5355 4234 5352.91 4234 5338L4250 5338C4250 5322.9 4251.9 5321 4267 5321L4265.4 5306.03L4244 5305L4186 5305L3921 5305L3921 5289C3905.9 5289 3904 5287.1 3904 5272L3888 5272L3888 5239L3871 5239L3871 5223L3855 5223L3855 5206L3839 5206L3838 5174C3823.27 5174 3822 5171.42 3822 5157L3806 5157L3805 5124L3789 5124L3789 5091L4431 5091C4431 5075.9 4432.9 5074 4448 5074L4448 5058L4464 5058L4464 5025L4480 5025L4481 4992L4497 4992L4497 4959L4514 4959L4514 4926L4530 4926L4530 4910L3674 4910L3674 4893L3658 4893L3657 4844L3641 4844L3641 4811L3625 4811L3624 4762L3608 4762L3608 4712L4612 4712C4612 4705.64 4608.63 4683.82 4614.32 4680.03C4617.86 4677.66 4624.91 4679 4629 4679L4629 4613L4645 4613L4645 4580L4597 4581C4597 4585.04 4598.58 4593.37 4594.68 4595.97C4589.74 4599.27 4577.79 4597 4572 4597L4512 4597L4234 4597L4234 4581L4201 4580L4201 4564L4217 4564L4218 4465L4234 4465L4234 4415L4300 4416L4300 4432L4546 4432L4546 4416L4563 4416L4564 4383L4579 4383L4579 4350L4563 4350L4563 4333L4547 4333L4547 4317L4514 4317L4514 4301L4481 4300L4481 4284L4432 4283L4430.97 4268.6L4422 4267L4399 4267L4399 4251L4382 4251L4382 4235C4366.9 4235 4365 4233.1 4365 4218L4349 4218L4349 4202C4333.9 4202 4332 4200.1 4332 4185L4316 4185L4316 4153L4300 4153L4300 3987L4316 3987C4316 3980.64 4312.63 3958.82 4318.32 3955.03C4321.67 3952.79 4328.13 3954 4332 3954L4332 3938L4349 3938L4350 3905L4382 3905L4382 3889C4397.58 3889 4399 3887.58 4399 3872L4432 3872L4432 3856L4481 3855L4481 3839L4579 3839L4579 3823L4678 3823L4678 3807L4662 3807L4662 3757L3542 3757L3542 3740L3558 3740L3559 3674L3575 3674L3575 3609L3591 3609L3592 3559L4596 3559L4596 3510L4580 3510L4579 3476L4564 3476L4563 3428L4547 3428L4546 3395C4531.27 3395 4530 3392.42 4530 3378L3674 3378L3674 3361L3690 3361L3690 3328L3706 3328L3707 3295L3723 3295L3723 3263L3739 3263L3740 3230L3756 3230L3756 3213L3772 3213C3772 3206.64 3768.63 3184.82 3774.32 3181.03C3777.86 3178.66 3784.91 3180 3789 3180L3789 3164L4415 3164L4415 3148C4399.9 3148 4398 3146.1 4398 3131L4382 3131L4382 3098L4365 3098L4365 3082L4349 3082L4349 3065L4333 3065L4332 3032L4316 3032L4316 3016L4300 3016L4300 2999L4283 2999L4283 2983L3921 2982L3921 2967L3937 2967L3937 2950L3954 2950L3954 2933L3970 2933L3970 2917C3985.58 2917 3987 2915.58 3987 2900L4003 2900L4003 2884L4019 2884C4019 2868.9 4020.9 2867 4036 2867L4036 2851L4052 2851C4052 2835.9 4053.9 2834 4069 2834L4069 2818L4085 2818C4085 2802.9 4086.9 2801 4102 2801L4102 2785L4086 2785L4086 2769L4069 2769L4069 2752L4052 2752L4052 2736L4020 2735L4020 2719L4003 2719L4003 2703L3987 2703C3987 2687.42 3985.58 2686 3970 2686L3970 2670L3938 2670C3938 2654.42 3936.58 2653 3921 2653L3921 2637L3888 2636L3888 2620L3871 2620L3871 2604L3839 2604L3839 2588C3823.9 2588 3822 2586.1 3822 2571L3789 2571L3789 2555L3756 2554L3756 2538L3723 2538L3723 2522L3691 2521L3691 2505L3657 2505L3657 2489C3650.64 2489 3628.82 2492.37 3625.03 2486.68C3622.66 2483.14 3624 2476.1 3624 2472L3591 2472L3591 2456L3542 2455L3542 2439L3493 2439L3493 2423C3486.51 2423 3463.88 2426.46 3460.03 2420.68C3457.79 2417.32 3459 2410.87 3459 2407L3394 2406L3394 2390L3344 2390L3344 2374L3263 2373L3263 2357L3180 2356L3180 2341L3048 2340L3048 2324L2735 2324z"/>
<path style="fill:#2a659d; stroke:none;" d="M3048 2324L3048 2340L3114 2340L3114 2324L3048 2324z"/>
<path style="fill:#ec1e30; stroke:none;" d="M5140 2324L5140 2340L5024 2341L5024 2356L4942 2357L4942 2373L4876 2373L4876 2389L4810 2390L4810 2406L4761 2406L4761 2422L4711 2423L4711 2439L4662 2439L4662 2455L4629 2456L4629 2472L4580 2473L4580 2489L4547 2489L4547 2505L4514 2505L4514 2521L4481 2522L4481 2538L4448 2538L4448 2554C4433.09 2554 4431 2554.81 4431 2570L4399 2571L4399 2587L4366 2588L4366 2604L4349 2604L4349 2620L4316 2621L4316 2637L4299 2637L4299 2653L4267 2653L4267 2670L4250 2670L4250 2686L4218 2687L4218 2703L4201 2703L4201 2719C4185.42 2719 4184 2720.42 4184 2736L4168 2736L4168 2752L4151 2752L4151 2768L4119 2769L4119 2785L4102 2785L4102 2802L4086 2802L4086 2818L4070 2818C4070 2833.1 4068.1 2835 4053 2835L4053 2851L4037 2851C4037 2866.1 4035.1 2868 4020 2868L4020 2884L4004 2884L4003 2916L3987 2916L3987 2933L3970 2933L3970 2950L3954 2950L3954 2966C3949.82 2966 3943.13 2964.73 3939.32 2966.6C3935.84 2968.32 3935.71 2979.68 3938.6 2981.97C3943.29 2985.68 3958.15 2983 3964 2983L4033 2983L4300 2983L4300 2999L4316 2999L4317 3032L4333 3032L4333 3048L4349 3048L4349 3065L4365 3065L4366 3098L4382 3098L4382 3114C4386.09 3114 4393.14 3112.66 4396.68 3115.03C4402.37 3118.82 4399 3140.64 4399 3147L4415 3147L4415 3164L4431 3164L4431 3180L3789 3180L3789 3197L3773 3197C3773 3211.42 3771.73 3214 3757 3214L3756 3246L3740 3246L3740 3279L3723 3279L3723 3312L3707 3312L3706 3345L3690 3345L3691.03 3360.4L3703 3362L3737 3362L3886 3362L4530 3362L4530 3378L4547 3378L4547 3411L4563 3411L4563 3444L4579 3444L4580 3493L4596 3493L4597 3542C4611.73 3542 4613 3544.58 4613 3559L3608 3559L3608 3592L3592 3592L3591 3641L3575 3641L3575 3707L3559 3707L3558.17 3743L3559.6 3755.97L3578 3757L3627 3757L3817 3757L4662 3757L4662 3773L4678 3773L4679 3823L4712 3823L4712 3839L4827 3839L4826 3938L4811 3938L4810 4004L4695 4004L4695 4037L4711 4037L4711 4185L4728 4185L4728 4202L4744 4202L4744 4218L4761 4218L4761 4251L4777 4251L4778 4284L4794 4284L4794 4396L4794 4421L4792.4 4431.4L4778 4433L4777 4481L4761 4481L4761 4498L4745 4498C4745 4513.1 4743.1 4515 4728 4515L4728 4531L4712 4531L4712 4547L4695 4547L4695 4564L4662 4564L4662 4580L4646 4580L4645 4646L4629 4646L4629 4696L4613 4696L4612 4728L3608 4728L3608 4745L3624 4745L3625 4794L3641 4794L3641 4828L3657 4828L3658 4877L3674 4877L3674 4910L4530 4910L4530 4942L4514 4942L4514 4975L4498 4975L4497 5008L4481 5008L4481 5026L4465 5026L4465 5058L4448 5058L4448 5091L4432 5091L4432 5107L3953 5107L3845 5107L3817 5107C3814.09 5107 3809.05 5106.09 3806.6 5108.03C3801.46 5112.1 3806 5133.75 3806 5140L3822 5140L3822 5157L3838 5157L3839 5190L3855 5190L3855 5206L3871 5206L3872 5239L3888 5239L3888 5255C3903.1 5255 3905 5256.9 3905 5272L3921 5272L3921 5289L4283 5289L4283 5321L4267 5321L4267 5338L4250 5338L4250 5355L4234 5355L4234 5371L4217 5371L4217 5388L4201 5388L4201 5404L4185 5404C4185 5419.1 4183.1 5421 4168 5421L4168 5437L4152 5437L4152 5453L4135 5453L4135 5470L4119 5470C4119 5476.25 4114.46 5497.9 4119.6 5501.97C4122.86 5504.55 4131.03 5503 4135 5503L4135 5519C4149.42 5519 4152 5520.27 4152 5535L4168 5535L4168 5552C4174.36 5552 4196.18 5548.63 4199.97 5554.32C4202.34 5557.86 4201 5564.91 4201 5569L4217 5569L4217 5585L4234 5585L4234 5601L4266 5602L4266 5618L4283 5618L4283 5634C4298.1 5634 4300 5635.9 4300 5651L4333 5651L4333 5667C4347.42 5667 4350 5668.27 4350 5683L4382 5684L4382 5700L4415 5701L4415 5717L4432 5717L4432 5733C4438.36 5733 4460.18 5729.63 4463.97 5735.32C4466.21 5738.67 4465 5745.13 4465 5749L4498 5750L4498 5766C4504.36 5766 4526.18 5762.63 4529.97 5768.32C4532.21 5771.67 4531 5778.13 4531 5782L4564 5783L4564 5799L4612 5800L4613.03 5814.4L4622 5816L4646 5816L4646 5832L4695 5833L4695 5849L4728 5849L4728 5865L4778 5865L4778 5881L4843 5882L4843 5898L4909 5898L4909 5914L4975 5915L4975 5931L5074 5931L5074 5947L5272 5948L5272 5963L5370 5963L5370 5948L5584 5947L5584 5931L5683 5931L5683 5915L5749 5914L5749 5898L5815 5898L5815 5882L5880 5881L5881.6 5866.6L5895 5865L5930 5865L5930 5849L5954 5849L5962.97 5847.4L5964 5832L6013 5832L6013 5816L6036 5816L6044.97 5814.4L6046 5800L6095 5799L6095 5783L6128 5782L6128 5766L6160 5766L6160 5750L6193 5749C6193 5733.66 6196.26 5733 6211 5733L6211 5717L6243 5717L6243 5701L6276 5700L6276 5684L6293 5684L6293 5668L6326 5667L6326 5651L6343 5651L6343 5635L6375 5634L6375 5618L6392 5618L6392 5602L6424 5601L6424 5585L6441 5585L6441 5569C6456.58 5569 6458 5567.58 6458 5552L6474 5552L6474 5536L6507 5535L6507 5519L6523 5519L6523 5503C6538.58 5503 6540 5501.58 6540 5486L6556 5486L6556 5470L6573 5470L6573 5453L6589 5453L6589 5437L6606 5437L6606 5421L6622 5421L6622 5404L6639 5404L6639 5387L6655 5387L6655 5371L6672 5371L6672 5354L6688 5354L6688 5338L6704 5338C6704 5322.9 6705.9 5321 6721 5321L6721 5289C6736.58 5289 6738 5287.58 6738 5272L6754 5272L6754 5256L6770 5256L6770 5239L6787 5239L6787 5207L6803 5207L6803 5190L6818.4 5188.97L6820 5180L6820 5157L6836 5157C6836 5141.9 6837.9 5140 6853 5140L6853 5108L6869 5108L6869 5091L6885 5091L6886 5058L6902 5058L6903 5025L6919 5025L6919 5008L6935 5008L6935 4975L6951 4975L6952 4942L6968 4942L6968 4909L6984 4909L6985 4861L7001 4861L7001 4827L7017 4827L7018 4778L7034 4778L7034 4745L7050 4745L7051 4695L7067 4695L7067 4630L7083 4630L7083 4595L7084.6 4581.6L7099 4580L7100 4498L7116 4498L7117 4399L7132 4399L7133 4234L7149 4234L7149 4053L7133 4053L7132 3888L7117 3888L7116 3789L7100 3789L7099 3708L7084 3708L7083 3642L7067 3642L7067 3592L7051 3592L7050 3543L7034 3543L7034 3507L7032.4 3494.03L7018 3493L7017 3460L7001 3460L7001 3411L6985 3411L6984 3378L6968 3378L6968 3345L6952 3345L6951 3312L6935 3312L6935 3279L6919 3279L6918 3246L6902 3246L6902 3229L6886 3229L6886 3197L6869 3197L6869 3164L6853 3164L6853 3147L6837 3147L6836 3115L6820 3115L6820 3098L6804 3098L6803 3065L6787 3065L6787 3049C6771.9 3049 6770 3047.1 6770 3032L6754 3032L6753 2999L6737 2999L6737 2983L6721 2983L6721 2966L6705 2966L6705 2950L6688 2950L6688 2933L6672 2933C6672 2917.42 6670.58 2916 6655 2916L6655 2900L6639 2900L6638 2868L6622 2868L6622 2851L6605 2851L6605 2835L6589 2835L6589 2818L6572 2818L6572 2802L6540 2801L6540 2785L6523 2785L6523 2768L6507 2768L6507 2752L6490 2752L6490 2736L6474 2736L6474 2719L6457 2719L6457 2703L6425 2703C6425 2687.42 6423.58 2686 6408 2686L6408 2670L6375 2669L6375 2653L6359 2653L6359 2637L6342 2637L6342 2621L6309 2620L6309 2604L6292 2604L6292 2588L6260 2587L6260 2571L6227 2571L6227 2555L6194 2554L6194 2538L6177 2538L6177 2522L6144 2521L6144 2505L6111 2505L6111 2489L6062 2488L6062 2472L6029 2472L6029 2456C6022.64 2456 6000.82 2459.37 5997.03 2453.68C5994.79 2450.33 5996 2443.87 5996 2440L5947 2439L5947 2423L5897 2422L5897 2406L5848 2406L5848 2390L5782 2389L5782 2373L5716 2373L5716 2357L5634 2356L5634 2341L5518 2340L5518 2324L5140 2324z"/>
<path style="fill:#2a659d; stroke:none;" d="M2554 2341L2554 2356L2521 2356L2521 2357L2603 2356L2603 2341L2653 2341L2623 2340L2554 2341M3130 2340L3130 2341L3180 2341L3180 2356L3262 2357L3262 2356L3229 2356L3229 2341L3130 2340z"/>
<path style="fill:#029ddd; stroke:none;" d="M412 2356L413 2357L412 2356z"/>
<path style="fill:#2a659d; stroke:none;" d="M2472 2357L2472 2373L2505 2373L2505 2357L2472 2357M3263 2357L3263 2373L3295 2373L3295 2357L3263 2357M2406 2374L2406 2389L2389 2389L2389 2390L2425 2390L2437.97 2388.4L2439 2374L2455 2374C2441.78 2368.45 2420.18 2374 2406 2374M3328 2373L3328 2374L3344 2374L3344 2390L3394 2390L3394 2389L3361 2389L3361 2373L3328 2373M396 2389L397 2390L396 2389M8023 2389L8023 2390L8038 2390L8023 2389M2356 2390L2356 2406L2373 2406L2373 2390L2356 2390M3394 2390L3394 2406L3427 2406L3427 2390L3394 2390M2307 2406L2307 2422L2290 2422L2290 2423L2323 2423L2323 2407L2340 2407L2307 2406M3443 2406L3443 2407L3459 2407L3460.03 2421.4L3469 2423L3493 2423L3493 2422L3476 2422L3476 2406L3443 2406M2257 2423L2257 2439L2274 2439L2274 2423L2257 2423M3493 2423L3493 2439L3525 2439L3525 2423L3493 2423M2208 2440L2208 2455L2175 2456L2175 2472L2192 2472L2192 2456L2241 2455L2241 2439L2208 2440M3542 2439L3542 2455L3591 2456L3591 2455L3559 2455L3559 2439L3542 2439M363 2456L363 2472L379 2472L379 2456L363 2456M3591 2456L3591 2472L3608 2472L3608 2456L3591 2456M2142 2472L2142 2488L2158 2488L2159 2472L2142 2472M3624 2472L3625.03 2487.4L3634 2489L3657 2489L3657 2505L3674 2505L3674 2489L3641 2488L3641 2472L3624 2472M2109 2488L2109 2505L2125 2505L2125 2489L2142 2489L2109 2488M2076 2505L2076 2521L2077 2521L2076 2505M3691 2505L3691 2521L3707 2521L3707 2505L3691 2505M2043 2521L2043 2538L2059 2538L2059 2522L2076 2522L2043 2521M3707 2521L3707 2522L3723 2522L3723 2538L3740 2538L3740 2521L3707 2521M2010 2538L2010 2554L2026 2554L2026 2538L2010 2538M3756 2538L3756 2554L3789 2555L3789 2554L3773 2554L3773 2538L3756 2538M1977 2571L1994 2571L1994 2555L2010 2555L1986 2554L1978.03 2555.6L1977 2571M3789 2555L3789 2571L3806 2571L3805 2555L3789 2555M1945 2571L1945 2587L1961 2587L1961 2571L1945 2571M3822 2571L3822 2587L3823 2587L3822 2571M1928 2587L1928 2588L1945 2588L1928 2587M3823 2587L3823 2588L3839 2588L3839 2604L3855 2604L3855 2587L3823 2587M1895 2604L1895 2620L1912 2620L1912 2604L1895 2604M3871 2604L3871 2620L3888 2620L3888 2604L3871 2604M1878 2620L1878 2636L1862 2636L1862 2637L1879 2637L1879 2621L1895 2621L1878 2620M3888 2620L3888 2636L3921 2637L3921 2636L3905 2636C3905 2620.81 3902.91 2620 3888 2620M1846 2637L1846 2653L1862 2653L1862 2637L1846 2637M3921 2637L3921 2653L3937 2653L3937 2637L3921 2637M1829 2653L1829 2669L1845 2669L1846 2653L1829 2653M3937 2653L3938 2670L3954 2670L3954 2653L3937 2653M1813 2669L1813 2670L1829 2670L1813 2669M1796 2670L1796 2686L1813 2686L1813 2670L1796 2670M3970 2670L3970 2686L3971 2686L3970 2670M1780 2686L1779 2703L1796 2703L1796 2686L1780 2686M3986 2686L3987 2687L3986 2686M3987 2687L3987 2703L4003 2703L4003 2687L3987 2687M1763 2703L1763 2719L1764 2719L1763 2703M4003 2703L4003 2719L4020 2719L4020 2703L4003 2703M1746 2719L1746 2735L1730 2735L1730 2736L1747 2736L1746 2719M4020 2719L4020 2735L4036 2735L4036 2719L4020 2719M4036 2735L4036 2736L4052 2736L4052 2752L4053 2752L4053 2735L4036 2735M1714 2736L1714 2752L1730 2752L1730 2736L1714 2736M8171 2736L8171 2752L8187 2752L8187 2736L8171 2736M1697 2752L1697 2769C1712.58 2769 1714 2767.58 1714 2752L1697 2752M4069 2752L4069 2769L4086 2769L4086 2768L4070 2768L4069 2752M1681 2769L1681 2785L1697 2785L1697 2769L1681 2769M4086 2769L4086 2785L4102 2785L4102 2769L4086 2769M1664 2785L1664 2801L1665 2801L1664 2785M1648 2801L1648 2802L1664 2802L1648 2801M4086 2801L4086 2802L4102 2802L4086 2801M4085 2802L4085 2818L4086 2818L4085 2802M1631 2818L1631 2834L1615 2834L1615 2835L1632 2835L1631 2818M4069 2818L4069 2834L4070 2834L4069 2818M4053 2834L4053 2835L4069 2835L4053 2834M4052 2835L4052 2851L4053 2851L4052 2835M1598 2851L1598 2867L1599 2867L1598 2851M4036 2851L4036 2867L4037 2867L4036 2851M1582 2867L1582 2868L1598 2868L1582 2867M4020 2867L4020 2868L4036 2868L4020 2867M4019 2868L4019 2884L4020 2884L4019 2868z"/>
<path style="fill:#029ddd; stroke:none;" d="M198 2883L199 2884L198 2883z"/>
<path style="fill:#2a659d; stroke:none;" d="M199 2883L199 2884L215 2884L199 2883M8220 2883L8220 2884L8236 2884L8220 2883M1565 2884L1565 2900L1549 2900L1549 2916L1550 2916L1550 2901L1566 2901L1565 2884M4003 2884L4003 2900L4004 2900L4003 2884M3987 2900L3987 2916L4003 2916L4003 2900L3987 2900M3986 2916L3970 2917L3970 2933L3987 2933L3986 2916M1532 2917L1532 2933L1516 2933L1516 2950L1532 2949L1532 2917M3954 2933L3954 2950L3970 2950L3970 2933L3954 2933M1500 2950L1500 2966L1516 2966L1516 2950L1500 2950M3937 2950L3937 2967L3954 2966L3954 2950L3937 2950M1483 2983L1500 2983L1500 2966C1484.42 2966 1483 2967.42 1483 2983M3921 2967L3921 2982L3937 2982L3937 2967L3921 2967M3937 2982L3938 2983L3937 2982M4283 2983L4283 2999L4300 2999L4300 2983L4283 2983M1466 2999L1466 3015L1450 3015L1450 3032L1451 3032L1451 3016L1467 3016L1466 2999M4300 2999L4300 3016L4316 3016L4316 2999L4300 2999M4316 3016L4316 3032L4317 3032L4316 3016M1434 3032L1434 3048L1450 3048L1450 3032L1434 3032M4332 3032L4333 3065L4349 3065L4349 3048L4333 3048L4332 3032M1418 3049L1418 3065L1434 3065L1434 3049L1418 3049M1417 3065L1417 3081L1418 3081L1417 3065M4349 3065L4349 3082L4365 3082L4365 3098L4366 3098L4365 3065L4349 3065M1401 3081L1401 3098L1417 3098L1417 3081L1401 3081M132 3098L132 3114L133 3114L132 3098M1384 3098L1384 3130L1385 3130L1385 3114L1401 3114L1401 3098L1384 3098M4382 3114L4382 3131L4398 3131L4398 3147L4399 3123L4397.4 3115.03L4382 3114M1368 3130L1368 3131L1384 3131L1368 3130M1352 3147L1351 3180L1352 3180L1352 3164L1368 3164L1368 3147L1352 3147M4399 3147L4399 3148L4415 3148L4399 3147M116 3163L116 3164L132 3164L116 3163M8303 3163L8303 3164L8318 3164L8303 3163z"/>
<path style="fill:#029ddd; stroke:none;" d="M8318 3163L8319 3164L8318 3163z"/>
<path style="fill:#2a659d; stroke:none;" d="M3789 3164L3789 3180L4431 3180L4431 3164L3789 3164M1335 3180L1335 3181L1351 3181L1335 3180M3772 3213L3773 3213L3773 3197L3789 3197L3789 3180L3773.6 3181.03L3772 3190L3772 3213M1319 3197L1319 3213L1335 3213L1335 3197L1319 3197M1318 3213L1318 3230L1319 3230L1318 3213M3756 3213L3756 3230L3757 3230L3757 3214L3772 3214L3756 3213z"/>
<path style="fill:#029ddd; stroke:none;" d="M99 3229L100 3230L99 3229z"/>
<path style="fill:#2a659d; stroke:none;" d="M8319 3229L8319 3230L8335 3230L8319 3229M1302 3230L1302 3246L1318 3246L1318 3230L1302 3230M3740 3230L3740 3246L3756 3246L3756 3230L3740 3230M3739 3246L3739 3263L3723 3263L3723 3279L3740 3279L3739 3246M1285 3263L1285 3295L1269 3295L1269 3312L1285 3312L1286 3279L1302 3279L1302 3263L1285 3263M3707 3295L3707 3312L3723 3312L3723 3295L3707 3295M3706 3312L3706 3328L3690 3328L3690 3345L3706 3345L3706 3312M1252 3361L1236 3361L1236 3378L1252 3378L1253 3345L1269 3345L1269 3328L1253.6 3329.03L1252 3338L1252 3361M3674 3361L3674 3378L4530 3378L4530 3362L3674 3361M66 3378L66 3394L67 3394L66 3378M4530 3378C4530 3392.91 4530.81 3395 4546 3395L4546 3411L4547 3411L4547 3378L4530 3378M1220 3394L1220 3411L1236 3411L1236 3394L1220 3394M1219 3411L1219 3427L1203 3427L1203 3460L1204 3460L1204 3444L1220 3444L1219 3411M4547 3411L4547 3428L4563 3428L4563 3411L4547 3411M4563 3444L4564 3476L4579 3476L4579 3493L4580 3493L4579 3444L4563 3444M50 3460L50 3476L66 3476L66 3460L50 3460M1187 3476L1187 3493L1203 3493L1203 3476L1187 3476M8384 3476L8385 3477L8384 3476M1186 3493L1186 3510L1170 3510L1170 3543L1171 3543L1171 3527L1185.4 3525.97L1187 3518L1186 3493M4580 3493L4580 3510L4596 3510L4596 3493L4580 3493M4596 3526L4596 3559L4613 3559C4613 3544.09 4612.19 3542 4597 3542L4596 3526M1154 3559L1154 3576L1170 3576L1170 3559L1154 3559M3592 3559L3591 3609L3575 3609L3575 3641L3591 3641L3592 3592L3608 3592L3608 3559L3592 3559M33 3575L34 3576L33 3575M1153 3608L1137 3609L1137 3658L1138 3658L1138 3641L1153 3641L1153 3608M1121 3658L1121 3691L1137 3691L1137 3658L1121 3658z"/>
<path style="fill:#fbfbfc; stroke:none;" d="M1846 3675L1845 3740L1830.03 3741.6L1829 3763L1829 3823L1813 3823L1812 3921L1796 3921L1796 4004L1780 4004L1779 4086L1764 4086L1763 4169L1747 4169L1746 4267L1731 4267L1730 4350L1714 4350L1714 4432L1698 4432L1697 4531L1681 4531L1681 4597L1826 4597L1863 4597L1877.4 4595.97L1879 4587L1879 4564L1895 4564L1895 4482L1911 4482L1912 4399L1928 4399L1928 4317L1944 4317L1945 4234L1960 4234L1961 4136L1977 4136L1978 4053L1994 4053L1994 3971L2010 3971L2011 3922L2026 3922L2027 4235L2043 4235L2044 4564L2059 4564L2060 4597L2257 4597C2257 4581.9 2258.9 4580 2274 4580L2274 4547L2290 4547L2291 4498L2307 4498L2307 4465L2323 4465L2323 4432L2339 4432L2340 4399L2356 4399L2357 4350L2371.4 4348.97L2373 4340L2373 4317L2389 4317L2389 4284L2405 4284L2406 4235L2422 4235L2422 4202L2438 4202L2439 4168L2455 4168L2455 4135L2471 4135L2472 4087L2488 4087L2488 4053L2504 4053C2504 4046.64 2500.63 4024.82 2506.32 4021.03C2509.86 4018.66 2516.91 4020 2521 4020L2521 3971L2537 3971L2538 3938L2554 3938L2554 4004L2538 4004L2537 4102L2521 4102L2520 4185L2505 4185L2504 4267L2488 4267L2488 4350L2472 4350L2471 4448L2455 4448L2455 4531L2439 4531L2439 4597L2669 4596L2669 4537L2670.6 4515.6L2685 4514L2686 4432L2702 4432L2702 4372L2703.6 4350.6L2718 4349L2719 4251L2735 4251L2735 4169L2751 4169L2752 4086L2768 4086L2768 4004L2784 4004L2785 3921L2800 3921L2801 3823L2817 3823L2818 3741L2832.97 3739.4L2834 3722L2834 3674L2556 3674L2495 3674L2472.6 3675.03L2471 3691L2455 3691L2455 3740L2439 3740L2438 3773L2422 3773L2422 3806L2406 3806L2406 3839L2390 3839L2389 3888L2373 3888L2372 3921L2357.6 3922.03L2356 3931L2356 3955L2340 3955C2340 3961.36 2343.37 3983.18 2337.68 3986.97C2334.32 3989.21 2327.87 3988 2324 3988L2323 4037L2307 4037C2307 4043.36 2310.37 4065.18 2304.68 4068.97C2301.14 4071.34 2294.1 4070 2290 4070L2290 4103L2274 4103L2273 4152L2257 4152L2257 4185L2241 4185L2241 4218L2224 4218L2224 3987L2208 3987L2208 3674L1846 3675z"/>
<path style="fill:#2a659d; stroke:none;" d="M3559 3674L3558 3740L3542 3740L3542 3757L3559 3757L3559 3707L3575 3707L3575 3674L3559 3674z"/>
<path style="fill:#fbfbfc; stroke:none;" d="M4975 3675L4975 3757L4959 3757L4958 3855L4943.03 3856.6L4942 3878L4942 3938L4926 3938L4925 4037L4909 4037L4909 4119L4893 4119L4892 4218L4877 4218L4876 4301L4860 4301L4859 4399L4844 4399L4844 4482L4859 4482L4860 4531L4876 4531L4876 4548L4892 4548L4892 4564L4909 4564L4909 4580C4924.1 4580 4926 4581.9 4926 4597L4991 4597L4991 4613L5074 4613L5074 4597L5172 4596L5172 4581L5189 4581L5190 4531L5205 4531L5206 4448L5222 4448L5222 4432L5206 4432L5206 4416L5189 4416L5189 4432L5139 4432L5139 4416L5091 4415L5090 4383L5074 4383L5074 4350L5090 4350L5091 4267L5106 4267L5107 4185L5123 4185L5124 4086L5139 4086L5140 4021L5255 4021L5255 4004L5271 4004L5272 3921L5288 3921L5288 3839L5173 3839L5173 3807L5189 3807L5189 3724L5205 3724L5205.91 3688L5204.4 3675.03L5188 3674L5145 3674L4975 3675z"/>
<path style="fill:#2a659d; stroke:none;" d="M17 3690L17 3691L33 3691L17 3690M8401 3690L8401 3691L8417 3691L8401 3690z"/>
<path style="fill:#029ddd; stroke:none;" d="M8417 3690L8418 3691L8417 3690z"/>
<path style="fill:#2a659d; stroke:none;" d="M1120 3724L1120 3740L1104 3740L1104 3806L1105 3806L1105 3757L1121 3757L1120 3724M4662 3773L4662 3807L4678 3807L4678 3823L4679 3823L4678 3773L4662 3773M1088 3807L1088 3856L1104 3856L1104 3807L1088 3807z"/>
<path style="fill:#fbfbfc; stroke:none;" d="M3114 3823L3114 3839L2999 3840L2999 3855L2932 3856L2932 3872L2916 3872L2916 3905L2900 3905L2899 3987L2884 3987C2884 3999.05 2883 4010.94 2883 4023C2883 4026.32 2881.65 4033.63 2884.6 4035.97C2890.14 4040.36 2908.99 4037 2916 4037L2916 4021L2982 4020L2982 4004L3213 4004L3213 4020C3219.36 4020 3241.18 4016.63 3244.97 4022.32C3247.34 4025.86 3246 4032.9 3246 4037L3262 4037L3262 4119L3015 4120L3015 4135L2965 4136L2965 4152L2917 4152C2917 4156.09 2918.34 4163.14 2915.97 4166.68C2912.18 4172.37 2890.36 4169 2884 4169L2884 4185L2867 4185L2867 4201C2851.42 4201 2850 4202.42 2850 4218L2834 4218L2834 4234C2818.42 4234 2817 4235.42 2817 4251L2801 4251L2801 4284L2785 4284L2784 4333L2768 4333L2768 4465L2784 4465L2784 4498L2801 4498L2801 4531L2817 4531L2817 4547L2834 4547L2834 4564L2851 4564L2851 4580C2857.36 4580 2879.18 4576.63 2882.97 4582.32C2885.21 4585.67 2884 4592.13 2884 4596L3097 4596L3097 4581L3131 4580L3131 4564L3163 4564L3163 4548C3178.58 4548 3180 4546.58 3180 4531L3213 4531L3213 4597L3394 4597L3394 4548L3410 4548L3411 4449L3426 4449L3427 4350L3443 4350L3444 4267L3459 4267L3460 4168L3476 4168L3476 3971L3460 3971L3460 3938L3444 3938L3443 3905L3427 3905L3427 3889L3394 3888L3394 3872L3377 3872L3377 3856L3328 3855L3328 3839L3245 3839L3245 3823L3114 3823M3855 3823L3855 3839L3789 3839L3789 3855L3756 3856L3756 3872L3723 3872L3723 3888L3691 3889L3691 3905L3674 3905L3674 3921C3658.42 3921 3657 3922.42 3657 3938L3641 3938L3641 3954L3625 3954L3625 3971L3608 3971L3608 4004L3591 4004L3591 4021L3575 4021L3575 4054L3559 4054L3558 4103L3542 4103L3542 4168L3526 4168L3526 4366L3542 4366L3542 4416L3558 4416L3559 4449L3575 4449L3575 4481L3591 4481L3591 4498L3608 4498L3608 4515L3624 4515L3624 4531L3641 4531L3641 4547L3674 4548L3674 4564L3707 4564L3707 4580L3756 4581L3756 4597L3855 4597L3855 4613L3970 4613L3970 4597L4054 4597C4060.79 4597 4079.01 4600.24 4084.4 4595.97C4087.61 4593.43 4086 4584.67 4086 4581L4135 4580L4135 4548L4151 4548L4152 4465L4168 4465L4168 4399L4135 4399L4135 4415L4069 4416L4069 4432L3839 4432L3839 4416C3832.51 4416 3809.88 4419.46 3806.03 4413.68C3803.66 4410.14 3805 4403.09 3805 4399L3773 4399L3772 4367C3768.13 4367 3761.67 4368.21 3758.32 4365.97C3752.54 4362.12 3756 4339.49 3756 4333L3740 4333L3740 4284L4080 4284L4168 4284C4174.97 4284 4193.87 4287.35 4199.4 4282.97C4202.83 4280.25 4201 4269.94 4201 4266L4201 4218L4217 4218L4217 4004L4201 4004L4201 3971L4185 3971L4184 3938L4168 3938L4168 3921L4152 3921L4152 3905L4135 3905L4135 3889C4119.9 3889 4118 3887.1 4118 3872L4086 3872L4086 3856L4053 3855L4051.4 3840.03L4034 3839L3987 3839L3987 3823L3855 3823M4579 3823L4579 3839L4481 3839L4481 3855L4432 3856L4432 3872L4399 3872C4399 3887.1 4397.1 3889 4382 3889L4382 3905L4350 3905L4349 3938L4332 3938L4332 3954L4317.6 3955.03L4316 3964L4316 3987L4300 3987L4300 4153L4316 4153L4316 4185L4332 4185C4332 4200.58 4333.42 4202 4349 4202L4349 4218L4365 4218C4365 4233.58 4366.42 4235 4382 4235L4382 4251L4399 4251L4399 4267C4405.36 4267 4427.18 4263.63 4430.97 4269.32C4433.21 4272.67 4432 4279.13 4432 4283L4481 4284L4481 4300L4514 4301L4514 4317L4547 4317L4547 4333L4563 4333L4563 4350L4579 4350L4579 4383L4564 4383L4563 4416L4546 4416L4546 4432L4300 4432L4300 4416L4234 4415L4234 4465L4218 4465L4217 4564L4201 4564L4201 4580L4234 4581L4234 4597L4512 4597L4573 4597L4595.4 4595.97L4597 4581L4662 4580L4662 4564L4695 4564L4695 4547L4712 4547L4712 4531L4728 4531L4728 4515C4743.58 4515 4745 4513.58 4745 4498L4761 4498L4761 4481L4777 4481L4778 4433L4792.4 4431.97L4794 4422L4794 4396L4794 4284L4778 4284L4777 4251L4761 4251L4761 4218L4744 4218L4744 4202L4728 4202L4728 4185L4695 4185L4695 4169L4662 4168L4662 4152L4629 4152L4629 4136C4622.64 4136 4600.82 4139.37 4597.03 4133.68C4594.79 4130.33 4596 4123.87 4596 4120L4563 4119L4563 4103L4531 4103L4530 4037L4547 4037L4547 4020L4579 4020L4579 4004L4810 4004L4811 3938L4826 3938L4827 3839L4712 3839L4712 3823L4579 3823M6095 3823L6095 3839L6048 3839L6030.6 3840.03L6029 3855L5996 3856L5996 3872L5963 3872L5963 3888L5931 3889L5931 3905L5914 3905L5914 3921C5898.42 3921 5897 3922.42 5897 3938L5881 3938L5881 3954C5865.42 3954 5864 3955.42 5864 3971L5848 3971L5848 3987L5832 3987L5832 4004L5815 4004L5815 4037L5799 4037C5799 4043.36 5802.37 4065.18 5796.68 4068.97C5793.33 4071.21 5786.87 4070 5783 4070L5782 4119L5766 4119L5765 4218L5750 4218L5750 4317L5765 4317L5766 4399L5782 4399L5782 4423L5783.6 4431.97L5798 4433L5799 4465L5815 4465L5815 4498L5832 4498L5832 4514L5848 4514L5848 4531L5865 4531L5865 4547L5897 4548L5897 4564L5914 4564L5914 4580L5963 4581L5963 4597L6029 4597L6029 4613L6194 4613L6194 4597L6276 4597L6276 4581L6325 4580L6325 4564L6349 4564L6357.97 4562.4L6359 4547L6391 4547L6391 4531L6408 4531L6408 4515C6423.58 4515 6425 4513.58 6425 4498L6441 4498L6441 4482L6457 4482L6457 4465L6474 4465L6474 4448L6490 4448L6491 4416L6507 4416L6507 4383L6523 4383L6524 4334L6538.97 4332.4L6540 4315L6540 4268L6556 4268L6556 4069L6540 4069L6540 4033L6538.4 4021.03L6524 4020L6523 3987L6507 3987L6507 3955C6491.9 3955 6490 3953.1 6490 3938L6474 3938L6474 3921L6458 3921L6458 3905L6441 3905L6441 3889C6425.9 3889 6424 3887.1 6424 3872L6392 3872L6392 3856L6358 3855L6358 3839L6293 3839L6293 3823L6095 3823M5403 3839L5403 3856L5387 3856L5386 3954L5371 3954L5370 4037L5354 4037L5353 4135L5338 4135L5337 4218L5321 4218L5320 4316L5305 4316L5304 4399L5288 4399L5288 4482L5272 4482L5271 4597L5486 4597L5486 4564L5502 4564L5503 4465L5518 4465L5519 4383L5535 4383L5535 4316L5551 4316L5552 4251L5568 4251L5568 4185L5584 4185L5585 4136L5601 4136L5601 4119L5617 4119L5618 4086L5634 4086L5634 4070L5667 4069L5667 4053L5739 4053C5745.17 4053 5759.25 4057.05 5764.4 4052.97C5767.72 4050.34 5766 4040.83 5766 4037L5782 4037L5782 4004L5798 4004L5799 3955L5815 3955L5815 3921L5831 3921L5832 3872L5848 3872L5848 3840L5716 3839L5716 3855L5683 3856L5683 3872L5651 3872C5651 3887.1 5649.1 3889 5634 3889L5634 3905L5617 3905L5617 3922L5601 3922L5601 3938L5585 3938L5585 3905L5601 3905L5601 3839L5403 3839z"/>
<path style="fill:#2a659d; stroke:none;" d="M8418 3839L8418 3840L8433 3840L8433 3855L8434 3855L8434 3839L8418 3839M0 3855L0 3872L1 3872L0 3855M1072 3921L1072 4366L1088 4366L1088 4284L1072 4284L1072 3988L1088 3988L1088 3921L1072 3921z"/>
<path style="fill:#029ddd; stroke:none;" d="M3855 4004L3855 4020L3822 4021L3822 4037L3806 4037L3805 4069L3789 4069L3789 4087L3773 4087L3773 4135L4019 4135L4019 4053L4003 4053L4003 4021L3971 4020L3971 4004L3855 4004M4579 4004L4579 4020L4547 4020L4547 4037L4530 4037L4531 4103L4563 4103L4563 4119L4596 4120L4597.03 4134.4L4606 4136L4629 4136L4629 4152L4662 4152L4662 4168L4695 4169L4695 4004L4579 4004z"/>
<path style="fill:#ec1e30; stroke:none;" d="M6160 4004L6160 4020L6112 4021L6112 4037L6095 4037L6095 4053L6079 4053C6079 4068.1 6077.1 4070 6062 4070L6062 4102L6046 4102C6046 4116.74 6045.34 4120 6030 4120L6029 4169L6013 4169L6013 4334L6029 4334L6030 4382C6044.73 4382 6046 4384.58 6046 4399L6062 4399L6062 4415L6095 4416L6095 4432L6161 4432L6161 4416L6194 4416L6194 4399L6227 4399L6227 4383L6243 4383L6243 4366L6260 4366L6260 4349L6276 4349L6276 4317L6293 4317L6293 4284L6309 4284L6309 4070L6293 4070L6293 4053L6277 4053L6277 4037L6260 4037L6260 4020L6227 4020L6227 4004L6160 4004z"/>
<path style="fill:#2a659d; stroke:none;" d="M4695 4037L4695 4185L4711 4185L4711 4037L4695 4037z"/>
<path style="fill:#029ddd; stroke:none;" d="M3130 4251L3130 4267L3048 4268L3048 4284L3031 4284L3031 4300L3015 4300L3015 4317L2999 4317L2998 4366L2983 4366L2983 4382L2998 4382L2998 4406L2999.6 4414.97L3015 4416L3015 4432C3029.42 4432 3032 4433.27 3032 4448L3114 4448L3114 4432L3147 4432L3147 4416C3162.58 4416 3164 4414.58 3164 4399L3180 4399L3180 4383L3196 4383L3196 4366L3212 4366L3213 4317L3229 4317L3229 4251L3130 4251z"/>
<path style="fill:#2a659d; stroke:none;" d="M1088 4432L1088 4465L1104 4465L1104 4432L1088 4432M1104 4481L1104 4529L1105.03 4546.4L1120 4548L1120 4564L1121 4564L1121 4515L1105 4515L1104 4481z"/>
<path style="fill:#fbfbfc; stroke:none;" d="M6540 4482L6540 4498L6523 4498L6523 4564L6540 4564L6540 4580L6556 4580L6557.03 4595.4L6569 4597L6605 4596L6605 4580L6622 4580L6622 4548L6606 4548L6605 4580L6556 4580L6556 4564L6540 4564L6540 4498L6606 4498L6606 4514L6622 4514L6622 4498L6606 4498L6606 4482L6540 4482M6556 4514L6557 4564L6572 4564C6572 4548.9 6573.9 4547 6589 4547L6589 4515L6556 4514M6622 4515L6622 4538L6623.6 4546.97L6638 4548L6638 4515L6622 4515z"/>
<path style="fill:#2a659d; stroke:none;" d="M0 4564L0 4580L1 4580L0 4564M4645 4580L4645 4613L4629 4613L4629 4646L4645 4646L4646 4600L4645 4580M8418 4581L8418 4596L8434 4596L8434 4581L8418 4581M1121 4596L1121 4613L1137 4613L1137 4596L1121 4596M1137 4629L1138 4679L1154 4679L1154 4646L1138 4646L1137 4629M4612 4712L4613 4712L4613 4696L4629 4696L4629 4679L4613.6 4680.03L4612 4689L4612 4712M1154 4696L1154 4728L1170 4728L1170 4696L1154 4696M3608 4712L3608 4728L4612 4728L4612 4712L3608 4712M18 4745L18 4746L33 4746L18 4745M1170 4745L1171 4778L1186 4778L1186 4794L1187 4794L1186 4745L1170 4745M3608 4745L3608 4762L3624 4762L3625 4811L3641 4811L3641 4794L3625 4794L3624 4745L3608 4745M1187 4794L1187 4811L1203 4811L1203 4794L1187 4794M1203 4827L1204 4860L1220 4861C1220 4845.76 1219.79 4843 1204 4843L1203 4827M3641 4828L3641 4844L3657 4844L3657 4828L3641 4828M33 4860L34 4861L33 4860M3657 4860L3657 4877L3658 4877L3657 4860M1220 4877L1220 4893L1236 4893L1236 4877L1220 4877M3658 4877L3658 4893L3674 4893L3674 4877L3658 4877M1236 4910L1236 4926L1252 4926L1252 4943L1253 4943L1253 4910L1236 4910M4514 4926L4514 4942L4530 4942L4530 4926L4514 4926M1253 4943L1253 4959L1269 4959L1269 4943L1253 4943M4497 4959L4497 4992L4498 4992L4498 4975L4514 4975L4514 4959L4497 4959M8384 4959L8385 4960L8384 4959M50 4960L50 4975L66 4975L66 4960L50 4960M1269 4975L1269 4992L1285 4992L1285 5009L1286 5009L1286 4976L1269 4975M4481 4992L4481 5008L4497 5008L4497 4992L4481 4992M1286 5009L1286 5025L1302 5025L1302 5009L1286 5009M4480 5009L4480 5025L4464 5025L4464 5058L4465 5058L4465 5026L4481 5026L4480 5009M1302 5041L1303 5058L1318 5058C1318 5073.58 1319.42 5075 1335 5075L1335 5058L1319 5058C1319 5042.42 1317.58 5041 1302 5041M4431 5091L3789 5091L3789 5124L3805 5124C3805 5119.8 3803.28 5110.72 3807.32 5108.03C3810.29 5106.05 3815.61 5107 3819 5107L3846 5107L3951 5107L4432 5107L4432 5091L4448 5091L4448 5074C4432.42 5074 4431 5075.42 4431 5091M1335 5091L1335 5107L1351 5107L1351 5091L1335 5091M1351 5107L1351 5124L1352 5124L1351 5107M3805 5124L3806 5157L3822 5157L3822 5140L3806 5140L3805 5124M1368 5141L1368 5157L1384 5157L1384 5141L1368 5141M1384 5157L1384 5173L1385 5173L1384 5157M3822 5157C3822 5171.91 3822.81 5174 3838 5174L3838 5190L3839 5190L3838 5157L3822 5157M1385 5173L1385 5174L1400 5174L1400 5190L1401 5190L1401 5173L1385 5173M99 5190L99 5206L100 5206L99 5190M1401 5190L1401 5206L1417 5206L1417 5190L1401 5190M3839 5190L3839 5206L3855 5206L3855 5190L3839 5190M1417 5206L1417 5223L1434 5223L1434 5222L1418 5222L1417 5206M3855 5206L3855 5223L3871 5223L3871 5206L3855 5206M3871 5223L3871 5239L3872 5239L3871 5223M1434 5239L1434 5240L1450 5240L1434 5239M1450 5255L1450 5272L1467 5272L1467 5256L1450 5255M3888 5255L3888 5272L3904 5272C3904 5287.58 3905.42 5289 3921 5289L3921 5272L3905 5272C3905 5256.42 3903.58 5255 3888 5255M116 5272L116 5273L132 5273L116 5272M1467 5272L1467 5289L1483 5289L1483 5272L1467 5272M1483 5289L1483 5305L1484 5305L1483 5289M3921 5289L3921 5305L4186 5305L4245 5305L4265.4 5306.6L4267 5321L4283 5321L4283 5289L3921 5289M1499 5305L1499 5321L1500 5321L1499 5305M1500 5321L1500 5322L1516 5322L1500 5321M4250 5338L4267 5338L4267 5321C4251.42 5321 4250 5322.42 4250 5338M132 5322L132 5338L133 5338L132 5322M1517 5338L1517 5354C1531.73 5354 1533 5356.58 1533 5371L1549 5371L1549 5354L1533 5354L1533 5338L1517 5338M4234 5338C4234 5352.42 4232.73 5355 4218 5355L4218 5371L4234 5371L4234 5355L4250 5355L4250 5338L4234 5338M1549 5371L1549 5387C1564.1 5387 1566 5388.9 1566 5404L1582 5404L1582 5387L1566 5387L1566 5371L1549 5371M4201 5387L4201 5388L4217 5388L4201 5387M4200 5388L4200 5403L4185 5403L4185 5404L4201 5404L4200 5388M1582 5404L1582 5420L1598 5420L1598 5404L1582 5404M4184 5404L4184 5420L4185 5420L4184 5404M1598 5420C1598 5435.58 1599.42 5437 1615 5437L1615 5421L1598 5420M4168 5420L4168 5421L4184 5421L4168 5420M4152 5436L4152 5437L4168 5437L4152 5436M1615 5437L1615 5453L1631 5453L1631 5437L1615 5437M4151 5437L4151 5453L4152 5453L4151 5437M1631 5453L1632 5470L1648 5470L1648 5453L1631 5453M4102 5470L4102 5487C4117.58 5487 4119 5485.58 4119 5470L4135 5470L4102 5470M1648 5470L1648 5486L1664 5486L1664 5470L1648 5470M1664 5486L1665 5502L1681 5503L1681 5486L1664 5486M4086 5502L4086 5503L4102 5503L4086 5502M1697 5503L1697 5520L1714 5520L1714 5519L1698 5519L1697 5503M4070 5503L4070 5519L4086 5519L4086 5503L4070 5503M4053 5519L4052 5536L4069 5536L4070 5519L4053 5519M1714 5535L1714 5536L1730 5536L1714 5535M1730 5536L1730 5552L1731 5552L1730 5536M4036 5536L4036 5552L4052 5552L4052 5536L4036 5536M199 5552L199 5553L215 5553L199 5552M1747 5552L1747 5569L1764 5569L1763 5552L1747 5552M4020 5552L4020 5553L4036 5553L4020 5552M8220 5552L8220 5553L8236 5553L8220 5552M4003 5568L4003 5585L4004 5585L4004 5569L4020 5569L4003 5568M1764 5569L1764 5585L1780 5585L1780 5569L1764 5569M3971 5585L3971 5601L3954 5601L3954 5618L3970 5618L3970 5602C3985.58 5602 3987 5600.58 3987 5585L3971 5585M1796 5601L1796 5602L1813 5602L1796 5601M1813 5602L1813 5618L1829 5618L1829 5602L1813 5602M1830 5618L1830 5634L1862 5635L1862 5634L1846 5634L1846 5618L1830 5618M3937 5618L3937 5634L3938 5634L3937 5618M3904 5635L3904 5651L3921 5651L3921 5635L3937 5635L3904 5635M1862 5635L1862 5651L1878 5651L1878 5635L1862 5635M1879 5651L1879 5667L1895 5667L1895 5651L1879 5651M1895 5667L1895 5668L1911 5668L1911 5684L1928 5684L1928 5668L1895 5667M3855 5667L3855 5684L3871 5684L3871 5668L3888 5668L3855 5667M248 5684L248 5700L264 5700L264 5684L248 5684M1928 5684L1928 5700L1961 5701L1961 5717L1978 5717L1977 5700L1945 5700L1945 5684L1928 5684M3822 5684L3822 5700C3806.42 5700 3805 5701.42 3805 5717L3822 5716L3822 5701C3837.58 5701 3839 5699.58 3839 5684L3822 5684M8171 5684L8171 5700L8187 5700L8187 5684L8171 5684M1994 5717L1994 5733L2010 5733L2010 5717L1994 5717M3773 5717L3773 5733L3789 5733L3789 5717L3773 5717M2010 5733L2010 5734L2026 5734C2026 5749.19 2028.09 5750 2043 5750L2043 5734L2010 5733M3740 5733L3739 5750L3756 5750L3756 5734L3772 5734L3740 5733M8170 5733L8171 5734L8170 5733M2059 5750L2059 5766L2076 5766L2076 5750L2059 5750M3707 5750L3707 5766L3723 5766L3723 5750L3707 5750M2076 5766L2076 5767L2092 5767L2092 5783L2109 5783L2109 5782L2093 5782L2093 5766L2076 5766M3674 5766L3673 5783C3688.24 5783 3691 5782.79 3691 5767L3707 5767L3674 5766M2125 5783L2125 5799L2142 5799L2142 5783L2125 5783M3641 5783L3641 5799L3658 5799L3658 5783L3641 5783M2142 5799L2142 5800L2158 5800L2159.03 5814.4L2168 5816L2192 5816L2192 5815L2175 5815L2175 5799L2142 5799M3608 5799L3608 5815L3591 5815L3591 5816L3624 5816L3624 5800L3641 5800L3608 5799M2192 5816L2192 5832L2208 5832L2208 5816L2192 5816M3559 5816L3559 5832L3575 5832L3575 5816L3559 5816M2225 5832L2225 5833L2241 5833L2241 5849L2274 5849L2274 5848L2257 5848L2257 5832L2225 5832M3525 5848L3509 5848L3509 5849L3542 5849L3543 5832C3527.76 5832 3525 5832.21 3525 5848M2274 5849L2274 5865L2307 5865L2307 5849L2274 5849M3476 5849L3476 5865L3493 5865L3493 5849L3476 5849M2323 5865L2324 5881L2389 5882L2389 5881L2356 5881L2356 5865L2323 5865M3427 5865L3427 5881L3394 5881L3394 5882L3430 5882L3442.97 5880.4L3444 5866L3460 5866L3427 5865M2389 5882L2389 5898L2406 5898L2406 5882L2389 5882M3361 5882L3361 5898L3394 5898L3394 5882L3361 5882M2439 5898L2439 5914L2521 5915L2521 5914L2472 5914L2472 5898L2439 5898M3311 5898L3311 5914L3229 5915L3229 5931L3262 5931L3262 5915L3328 5915L3328 5898L3311 5898M2521 5915L2521 5931L2554 5931L2554 5915L2521 5915M2603 5931L2603 5947L2752 5948L2752 5963L3031 5963L3031 5948L3179 5947L3179 5931L3114 5931L3114 5947L2669 5947L2669 5931L2603 5931M446 6145L446 6146L462 6146L446 6145M495 6228L495 6243L511 6243L511 6228L495 6228M7924 6228L7924 6243L7939 6243L7939 6228L7924 6228M610 6426L610 6441L611 6441L610 6426M7808 6426L7808 6441L7824 6441L7824 6426L7808 6426M792 6705L792 6706L808 6706L792 6705M7545 6804L7545 6820L7561 6820L7561 6804L7545 6804M906 6853L907 6854L906 6853M7462 6935L7463 6936L7462 6935M1599 7545L1599 7546L1615 7546L1599 7545M6820 7545L6820 7546L6836 7546L6820 7545M6589 7710L6589 7726L6590 7726L6589 7710M6539 7759L6540 7760L6539 7759M6490 7776L6490 7792L6491 7792L6490 7776M6425 7809L6425 7825L6441 7825L6441 7809L6425 7809M2076 7858L2076 7874L2077 7874L2076 7858M2192 7924L2192 7940L2208 7940L2208 7924L2192 7924M6210 7941L6210 7956L6211 7956L6210 7941M2538 8105L2538 8106L2554 8106L2538 8105M5881 8105L5881 8106L5897 8106L5881 8105M2833 8204L2833 8220L2834 8220L2833 8204M2982 8254L2982 8269L2998 8269L2998 8254L2982 8254M3311 8352L3312 8353L3311 8352M5123 8352L5124 8353L5123 8352M5057 8353L5057 8368L5058 8368L5057 8353M3477 8385L3477 8386L3492 8386L3477 8385M4958 8385L4959 8386L4958 8385M3839 8418L3839 8434L3855 8434L3855 8418L3839 8418z"/>
</svg>
