<?xml version="1.0" standalone="yes"?>
<svg xmlns="http://www.w3.org/2000/svg" width="12400" height="8436">
<path style="fill:#010101; stroke:none;" d="M0 0L0 624L1 624C1 562.299 16.7238 497.836 37.3079 440C106.749 244.887 267.185 90.4541 465 28.9746C515.582 13.2539 570.825 1 624 1L606 0L570 0L442 0L0 0z"/>
<path style="fill:#316ec4; stroke:none;" d="M624 0.423828C596.024 4.09863 567.96 5.3916 540 10.25C488.879 19.1318 438.281 34.9932 391 56.3057C335.613 81.2725 283.694 113.331 237 152.247C114.767 254.118 31.8252 399.669 7.42438 557C-1.58634 615.099 0 673.361 0 732L0 958L0 1666L0 6502L0 7570C0 7661.68 -5.95583 7755.8 3.16898 7847C17.9689 7994.92 87.6241 8146.02 197 8247.91C281.53 8326.65 379.761 8385.61 492 8415.12C582.627 8438.94 674.154 8436 767 8436L1111 8436L3112 8436L9061 8436L10942 8436L11528 8436L11692 8436C11755.9 8436 11818.3 8435.35 11881 8421.58C12114.8 8370.22 12309.8 8190.19 12375 7959C12398.9 7873.93 12400 7789.72 12400 7702L12400 7486L12400 6677L12400 1857L12400 909L12400 720C12400 665.57 12400.7 611.959 12392.7 558C12368.8 395.293 12279.1 243.221 12150 141.661C12052.9 65.2969 11934.2 15.4795 11811 3.16895C11737.7 -4.15234 11662.6 0 11589 0L11228 0L9159 0L3416 0L1538 0L925 0L725 0C692.129 0 656.573 -3.85449 624 0.423828z"/>
<path style="fill:#010101; stroke:none;" d="M11776 0L11776 1C11830.3 1 11886.4 13.9248 11938 29.9746C12152 96.4922 12315.8 271.751 12376.5 485.714C12389.1 530.107 12399 577.607 12399 624L12400 624L12400 0L11776 0z"/>
<path style="fill:#01ffff; stroke:none;" d="M12304 317L12305 318L12304 317z"/>
<path style="fill:#f6f9fd; stroke:none;" d="M12377 487L12378 488L12377 487z"/>
<path style="fill:#01ffff; stroke:none;" d="M12378 490L12379 491L12378 490M12379 494L12380 495L12379 494M12380 498L12381 499L12380 498M12381 502L12382 503L12381 502M12382 506L12383 507L12382 506M12383 510L12384 511L12383 510z"/>
<path style="fill:#6494d4; stroke:none;" d="M1597 2450L1597 2498L1598 2498L1598 2474L1622 2474L1622 2450L1597 2450z"/>
<path style="fill:#f6f9fd; stroke:none;" d="M1622 2450L1622 2474L1598 2474L1597 2547L1573 2547L1573 2595L1549 2595L1548 2667L1525 2667L1524 2716L1501.6 2717.03L1500 2730L1500 2765L1476 2765L1476 2837L1452 2837L1452 2872C1452 2875.5 1453.13 2881.66 1450.4 2884.4C1446.42 2888.38 1433.31 2886 1428 2886L1428 2921C1428 2924.5 1429.13 2930.66 1426.4 2933.4C1422.42 2937.38 1409.31 2935 1404 2935L1403 3006L1380.6 3007.03L1379 3019L1379 3055L1355 3055L1355 3104L1331 3104L1330 3176L1307 3176L1306 3225L1282 3225L1282 3274L1258 3274L1258 3346L1234 3346L1233 3394L1210 3394L1209 3443L1186 3443L1185 3492L1161 3492L1161 3540L1137 3540L1136 3612L1113 3612L1113 3647C1113 3650.5 1114.13 3656.66 1111.4 3659.4C1107.42 3663.38 1094.31 3661 1089 3661L1088 3709L1065.6 3710.03L1064 3723L1064 3758L1040 3758L1040 3807L1016 3807L1015 3879L992 3879L991 3927L968 3927L967 3976L943 3976L943 4025L919 4025L918 4096L895 4096L895 4121L1767 4121L1767 4073L1791 4073L1791 4024L1815 4024L1815 3952L1839 3952L1839 3917C1839 3913.5 1837.87 3907.34 1840.6 3904.6C1844.58 3900.62 1857.69 3903 1863 3903L1864 3855L2106 3855L2106 3927L2130 3927L2130 3976L2154 3976L2155 4048L2178 4048L2179 4121L3171 4121L3172 3951C3177.31 3951 3190.42 3948.62 3194.4 3952.6C3197.13 3955.34 3196 3961.5 3196 3965L3196 4000L3220 4000L3220 4072L3244 4072L3244 4121L3753 4121L3753 4072L3777 4072L3777 4000L3801 4000L3801 3965C3801 3961.5 3799.87 3955.34 3802.6 3952.6C3806.58 3948.62 3819.69 3951 3825 3951L3826 4121L6175 4121L6175 3685L6224 3685L6224 3709L6247 3709L6247 3995L6247 4069L6248.03 4095.4L6266 4097L6320 4097L6539 4097L7435 4097L7435 4024L7459 4024L7459 4000L7483 4000L7483 4024L7531 4024L7531 4048L7604 4049L7604 4072L7701 4073L7701 4096L8404 4097L8404 4073L8427 4073L8428 4024L8451 4024L8452 3951L8476 3951L8476 3879L8500 3879L8500 3831C8560.59 3831 8621.33 3830 8682 3830L8726 3830C8730.06 3830 8738.26 3828.46 8741.4 3831.6C8745.49 3835.69 8743 3849.52 8743 3855L8767 3855L8767 3927L8791 3927L8791 3976L8815 3976L8815 4030L8816.6 4047.97L8839 4049L8839 4097L9809 4097L9809 3879L9856 3879L9857 3927L9881 3927L9881 3975L9905 3975L9905 4000L9929 4000L9930 4048C9935.31 4048 9948.42 4045.62 9952.4 4049.6C9955.27 4052.48 9954 4059.31 9954 4063L9954 4097L10753 4097L10753 2450L10002 2450L10002 2620L9978 2620L9978 2571L9954 2571L9953 2523L9931.32 2521.97L9929 2509L9929 2474L9905 2474L9905 2450L9130 2450L9130 2474L9106 2474L9106 2619L9082 2619L9081 2571L9059.32 2569.97L9057 2558L9057 2523L9035.32 2521.97L9033 2509L9033 2474L9009 2474L9009 2450L7846 2450L7846 2474L7676 2474L7676 2498L7580 2499L7580 2522L7531 2523L7531 2546L7459 2547L7459 2450L6708 2450L6708 2547L6660 2546C6660 2540.68 6662.36 2527.88 6658.97 2523.6C6655.67 2519.43 6640 2522 6635 2522L6635 2499L6586 2498L6586 2474L6465 2474L6465 2450L3680 2450L3680 2474L3656 2474L3656 2523L3632 2523L3631 2595L3608 2595L3607 2643L3584.6 2644.03L3583 2656L3583 2692L3559 2692L3559 2741L3535 2741L3535 2813L3511 2813L3510 2862C3504.69 2862 3491.58 2864.38 3487.6 2860.4C3483.62 2856.42 3486 2843.31 3486 2838L3464.32 2836.97L3462 2824L3462 2789L3438 2789L3438 2740L3414 2740L3414 2692L3390 2692L3389 2620L3367.32 2618.97L3365 2606L3365 2571L3341 2571L3341 2522L3317 2522L3317 2474L3293 2474L3293 2450L2445 2450L2444 2643L2421 2643L2420 2571L2397 2571L2396 2522L2373 2522L2372 2474L2348 2474L2348 2450L1622 2450z"/>
<path style="fill:#6494d4; stroke:none;" d="M2348 2450L2348 2474L2372 2474L2373 2522L2396 2522L2396 2547L2397 2547L2397 2498L2373 2498L2373 2450L2348 2450M3293 2450L3293 2474L3317 2474L3317 2450L3293 2450M3656 2450L3656 2474L3680 2474L3680 2450L3656 2450M6465 2450L6465 2474L6538 2474L6538 2450L6465 2450M6707 2450L6707 2546L6684 2546L6684 2522L6660 2522L6658.97 2499.6L6647 2498L6611 2498L6611 2499L6635 2499L6635 2522C6640.48 2522 6654.31 2519.51 6658.4 2523.6C6662.38 2527.58 6660 2540.69 6660 2546L6708 2547L6708 2480L6707 2450M7459 2450L7459 2547L7531 2546L7531 2523L7580 2522L7580 2499L7604 2499L7604 2498L7555 2498L7555 2522L7483 2523L7483 2450L7459 2450M7749 2450L7749 2474L7846 2474L7846 2450L7749 2450M9009 2450L9009 2474L9033 2474L9033 2450L9009 2450M9106 2450L9106 2474L9130 2474L9130 2450L9106 2450M9905 2450L9905 2474L9929 2474L9929 2450L9905 2450M10753 2450L10753 4097L9978 4097L9978 4121L10777 4121L10777 2450L10753 2450M2444 2474L2444 2595L2421 2595L2421 2643L2444 2643C2444 2603.39 2445 2563.68 2445 2524C2445 2509.96 2449.41 2486.88 2444 2474M6586 2474L6586 2498L6611 2498L6611 2474L6586 2474M7628 2474L7628 2498L7676 2498L7676 2474L7628 2474M9929 2474L9929 2509L9930.6 2521.97L9953 2523L9953 2547L9954 2547L9953 2498L9930 2498L9929 2474M3317 2498L3317 2522L3341 2522L3341 2498L3317 2498M3632 2498L3632 2523L3656 2523L3656 2498L3632 2498M9033 2498C9033 2503 9030.43 2518.67 9034.6 2521.97C9038.88 2525.36 9051.68 2523 9057 2523L9057 2558L9058.6 2569.97L9081 2571L9081 2595L9082 2595L9082 2547L9058 2547L9058 2512L9056.4 2499.03L9033 2498M1573 2522L1573 2547L1597 2547L1597 2522L1573 2522M3341 2523L3341 2571L3365 2571L3365 2547L3342 2547L3341 2523M3631 2523L3631 2547L3608 2547L3607 2619L3608 2619L3608 2595L3631 2595L3632 2545L3631 2523M2397 2547L2397 2571L2420 2571L2420 2595L2421 2595L2421 2547L2397 2547M9954 2547L9954 2571L9978 2571L9978 2547L9954 2547M1572 2570L1549 2571L1549 2595L1573 2595L1572 2570M3365 2571L3365 2607L3366.6 2618.97L3389 2620L3390 2692L3414 2692L3413 2644L3390 2644L3389 2595L3366 2595L3365 2571M1548 2595L1548 2620L1525 2620L1524 2692L1525 2692L1525 2667L1548 2667L1549 2617L1548 2595M9082 2595L9082 2619L9106 2619L9106 2595L9082 2595M9978 2595L9978 2620L10002 2620L10002 2595L9978 2595M3583 2619L3583 2644L3607 2643L3607 2619L3583 2619M3559 2668L3559 2692L3583 2692L3583 2668L3559 2668M1500 2692L1500 2717L1524 2716L1524 2692L1500 2692M1790 2692L1790 2716L1767 2716L1767 2740L1791 2740C1791 2726.47 1795.21 2704.41 1790 2692z"/>
<path style="fill:#316ec4; stroke:none;" d="M1791 2692L1791 2740L1767 2740L1767 2789L1743 2789L1742 2861L1719 2861L1718 2910L1694 2910L1694 2959L1670 2959L1669 3031L1646 3031L1646 3066C1646 3069.5 1647.13 3075.66 1644.4 3078.4C1640.42 3082.38 1627.31 3080 1622 3080L1622 3128L1598 3128L1597 3201L1573 3201L1573 3249L1549 3249L1549 3298L1525 3298L1524 3370L1501 3370L1500 3419L1476 3419L1476 3491L1452 3491L1452 3540L1428 3540L1428 3575C1428 3578.5 1429.13 3584.66 1426.4 3587.4C1422.42 3591.38 1409.31 3589 1404 3589L1403 3661L1379 3661L1379 3710L1355 3710L1355 3758L1331 3758L1331 3830L1307 3830L1307 3854L1597 3854L1597 3806L1621 3806L1621 3771C1621 3767.5 1619.87 3761.34 1622.6 3758.6C1626.58 3754.62 1639.69 3757 1645 3757L1646 3686L1669 3686L1670 3637L1694 3637L1694 3612L2299 3613L2300 3661L2323 3661L2324 3733L2348 3733L2348 3782L2372 3782L2373 3830C2378.31 3830 2391.42 3827.62 2395.4 3831.6C2399.38 3835.58 2397 3848.69 2397 3854L2953 3854L2953 2958L2978 2958L2978 2982L3002 2982L3002 3031L3026 3031L3027 3080L3050 3080L3051 3128L3074 3128L3075 3200L3099 3200L3099 3249L3123 3249L3123 3285L3124.6 3296.97L3147 3298L3148 3370L3172 3370L3172 3418C3177.31 3418 3190.42 3415.62 3194.4 3419.6C3197.13 3422.34 3196 3428.5 3196 3432L3196 3467L3220 3467L3220 3539L3242.68 3540.03L3245 3553L3245 3588L3269 3588L3269 3637L3293 3637L3293 3685C3298.31 3685 3311.42 3682.62 3315.4 3686.6C3318.91 3690.11 3317 3700.41 3317 3705L3317 3757L3341 3757L3341 3806L3365 3806L3366 3854L3631 3854L3632 3782L3656 3782L3656 3734L3680 3734L3680 3685L3704 3685L3704 3636L3728 3636L3729 3564L3753 3564L3753 3516L3777 3516L3777 3467L3801 3467L3801 3418L3825 3418L3826 3346L3849 3346L3850 3298L3874 3298L3874 3249L3898 3249L3898 3200L3922 3200L3922 3128L3946 3128L3946 3093L3948.32 3080.03L3971 3079L3971 3031L3995 3031L3996 2959L4030 2958L4042.4 2959.6L4044 2974L4044 3013L4044 3169L4044 3854L4285 3854L4285 2692L3850 2692L3850 2717L3826 2717L3825 2789L3802 2789L3801 2838L3778 2838L3777 2910L3753 2910L3753 2959L3729 2959L3729 3007L3705 3007L3704 3080L3681 3080L3680 3128L3656 3128L3656 3200L3632 3200L3632 3249L3608 3249L3608 3298L3584 3298L3583 3370L3560.6 3371.03L3559 3384L3559 3419L3535 3419L3535 3491L3511 3491L3511 3516L3486 3516L3486 3468L3464.32 3466.97L3462 3454L3462 3419L3438 3419L3438 3370L3414 3370L3413 3322L3390 3322L3389 3249L3365 3249L3365 3201L3341 3201L3341 3152L3317 3152L3317 3104L3293 3104L3292 3055L3269 3055L3268 2983L3244 2983L3244 2935L3220 2935L3220 2886L3196 2886L3195 2837L3172 2837L3171 2789L3148 2789L3147 2717L3123 2717L3123 2692L2687 2692L2687 3807L2663 3807L2662 3758L2638 3758L2638 3710L2616.32 3708.97L2614 3696L2614 3661C2608.69 3661 2595.58 3663.38 2591.6 3659.4C2588.09 3655.89 2590 3645.59 2590 3641L2590 3589L2566 3589L2566 3540L2542 3540L2541 3491L2518 3491L2517 3419L2493 3419L2493 3370L2469 3370L2469 3298L2445 3298L2445 3263L2443.4 3250.03L2421 3249L2420 3200L2397 3200L2396 3128L2372 3128L2372 3080L2348 3080L2348 3007L2324 3007L2323 2959L2301.32 2957.97L2299 2945L2299 2910L2276 2910L2275 2838L2251 2838L2251 2789L2227 2789L2226 2717C2220.69 2717 2207.58 2719.38 2203.6 2715.4C2199.51 2711.31 2202 2697.48 2202 2692L1791 2692z"/>
<path style="fill:#6494d4; stroke:none;" d="M2202 2692C2202 2697 2199.43 2712.67 2203.6 2715.97C2207.88 2719.36 2220.68 2717 2226 2717L2226 2741L2227 2741L2227 2692L2202 2692M3123 2692L3123 2717L3147 2717L3147 2692L3123 2692M3826 2692L3825 2764L3802.6 2765.03L3801 2777L3801 2813L3777 2813L3777 2861L3778 2861L3778 2838L3801 2838L3802 2789L3825 2789L3826 2717L3850 2717L3850 2692L3826 2692M4285 2692L4285 3854L4044 3854L4044 3169L4044 3014L4044 2974L4042.97 2959.6L4031 2958L3996 2959L3995 3007L4019 3006L4019 3657L4019 3802L4019 3839C4019 3842.73 4017.58 3850.3 4020.03 3853.4C4023.25 3857.47 4038.14 3855 4043 3855L4043 3879L4286 3879L4286 3855L4310 3855L4310 2692L4285 2692M4504 2692L4504 3879L4528 3879L4528 2692L4504 2692z"/>
<path style="fill:#316ec4; stroke:none;" d="M4528 2692L4528 3879L5448 3879L5448 3637L4794 3637L4794 3394L5424 3394L5424 3177L4954 3177L4836 3177L4807 3177L4795.6 3175.4L4794 3159L4794 3114L4794 2934L5448 2934L5448 2692L4528 2692z"/>
<path style="fill:#6494d4; stroke:none;" d="M5448 2692L5448 2934L5472 2934L5472 2692L5448 2692M5642 2692L5642 3544L5642 3783L5642 3850C5642 3857.12 5639.44 3870.26 5642.6 3876.68C5644.61 3880.76 5654.27 3879 5658 3879L5704 3879L5877 3879L5919 3879C5922.47 3879 5930.52 3880.51 5932.4 3876.68C5936.4 3868.54 5933 3851.08 5933 3842L5933 3755L5933 3443L5932 3443L5932 3854L5666 3854L5666 2692L5642 2692z"/>
<path style="fill:#316ec4; stroke:none;" d="M5666 2692L5666 3854L5932 3854L5932 3443L6393 3443L6393 3467L6418 3467L6418 3491L6442 3491L6442 3515L6466 3515L6466 3564L6490 3564L6490 3854L6732 3854L6732 3516L6708 3516L6708 3443L6685.32 3441.97L6683 3430L6683 3395L6659 3395L6659 3371L6635 3371L6635 3346L6587 3346L6587 3322L6562 3322C6562 3316.52 6559.51 3302.69 6563.6 3298.6C6567.69 3294.51 6581.52 3297 6587 3297L6587 3273L6635 3273L6635 3249L6659 3249C6659 3243.52 6656.51 3229.69 6660.6 3225.6C6664.58 3221.62 6677.69 3224 6683 3224L6684 3176L6708 3176L6708 3128L6732 3128L6732 3031L6756 3031L6756 2959C6750.69 2959 6737.58 2961.38 6733.6 2957.4C6729.42 2953.21 6732 2938.6 6732 2933L6732 2862L6708 2862L6707 2814C6701.69 2814 6688.58 2816.38 6684.6 2812.4C6680.51 2808.31 6683 2794.48 6683 2789L6659 2789L6659 2765L6635 2765L6635 2741L6601 2741C6597.3 2741 6590.48 2742.27 6587.6 2739.4C6583.62 2735.42 6586 2722.31 6586 2717L6442 2716L6442 2692L5666 2692z"/>
<path style="fill:#6494d4; stroke:none;" d="M6442 2692L6442 2716L6586 2717L6587.03 2739.4L6600 2741L6635 2741L6635 2740L6611 2740L6611 2717L6538 2716L6538 2692L6442 2692z"/>
<path style="fill:#316ec4; stroke:none;" d="M6950 2692L6950 3854L7216 3854L7216 2692L6950 2692z"/>
<path style="fill:#6494d4; stroke:none;" d="M7216 2692L7216 3854L6950 3854L6950 3879L7152 3879L7200 3879L7215.97 3877.4L7217 3855L7240 3855L7240 2692L7216 2692M7749 2692L7749 2716L7653 2717L7653 2740L7604 2741L7604 2765L7628 2765L7628 2741L7701 2740L7701 2717L7822 2716L7822 2692L7749 2692z"/>
<path style="fill:#316ec4; stroke:none;" d="M7822 2692L7822 2716L7701 2717L7701 2740L7628 2741L7628 2765L7580 2765L7580 2789L7556 2789L7556 2813L7532 2813C7532 2818.48 7534.49 2832.31 7530.4 2836.4C7526.42 2840.38 7513.31 2838 7508 2838C7508 2843.31 7510.38 2856.42 7506.4 2860.4C7502.31 2864.49 7488.48 2862 7483 2862L7483 2910L7459 2910L7459 2935L7435 2935L7435 2983L7411 2983L7410 3079C7405.14 3079 7390.25 3076.53 7387.03 3080.6C7385.09 3083.05 7386 3088.09 7386 3091L7386 3119L7386 3225L7362 3225L7362 3346L7386 3346L7386 3470L7386 3502C7386 3505.33 7384.83 3511.62 7387.03 3514.4C7390.25 3518.47 7405.14 3516 7410 3516L7411 3589L7434 3589L7435 3637L7458 3637L7459 3685L7483 3685L7483 3709L7507 3709C7507 3714 7504.43 3729.67 7508.6 3732.97C7512.88 3736.36 7525.68 3734 7531 3734C7531 3739.32 7528.64 3752.12 7532.03 3756.4C7535.33 3760.57 7551 3758 7556 3758L7556 3782L7580 3782L7580 3806L7615 3806L7627.97 3808.32L7629 3830L7701 3831L7701 3854L7798 3855L7798 3878C7909.24 3878 8020.68 3879 8132 3879L8206 3879C8212.03 3879 8227.57 3881.8 8232.4 3877.97C8236.57 3874.67 8234 3859 8234 3854L8258 3854L8258 3782L8282 3782L8282 3729C8282 3724.41 8280.09 3714.11 8283.6 3710.6C8287.58 3706.62 8300.69 3709 8306 3709L8306 3674C8306 3670.5 8304.87 3664.34 8307.6 3661.6C8311.58 3657.62 8324.69 3660 8330 3660L8330 3625C8330 3621.48 8328.88 3615.32 8332.32 3613.03C8339.11 3608.5 8357.91 3612 8366 3612L8456 3612L8796 3612L8900 3612L8925 3612C8928.1 3612 8932.97 3611.18 8935.4 3613.6C8939.49 3617.69 8937 3631.52 8937 3637L8960 3637L8961 3709L8985 3709L8985 3758L9009 3758L9009 3830L9033 3830L9033 3854L9590 3854L9590 2983L9615 2983L9615 3006C9620.31 3006 9633.42 3003.62 9637.4 3007.6C9641.49 3011.69 9639 3025.52 9639 3031L9663 3031L9663 3079L9687 3079L9688 3128L9712 3128L9712 3152C9717.31 3152 9730.42 3149.62 9734.4 3153.6C9737.13 3156.34 9736 3162.5 9736 3166L9736 3201L9760 3201L9760 3249L9784 3249L9784 3273L9808 3273L9809 3322L9833 3322L9833 3370L9857 3370L9857 3395L9881 3395L9881 3443L9905 3443L9906 3491L9930 3491L9930 3516L9954 3516L9954 3564L9978 3564L9978 3612L10002 3612L10002 3637L10026 3637L10027 3685L10051 3685L10051 3710L10074 3710L10075 3758L10099 3758L10099 3806L10123 3806C10123 3811 10120.4 3826.67 10124.6 3829.97C10128.9 3833.36 10141.7 3831 10147 3831L10147 3854L10510 3854L10510 2717L10244 2717L10244 3539L10220 3539L10220 3516L10196 3516L10195 3468C10189.7 3468 10176.6 3470.38 10172.6 3466.4C10168.5 3462.31 10171 3448.48 10171 3443L10147 3443L10147 3395L10123 3395L10123 3346L10099 3346L10099 3322L10075 3322L10074 3274L10052.3 3272.97L10050 3260L10050 3225L10026 3225L10026 3201L10002 3201L10002 3152L9978 3152L9977 3104L9953 3104L9953 3079L9930 3079L9929 3031L9905 3031L9905 2983L9881 2983L9881 2935C9875.52 2935 9861.69 2937.49 9857.6 2933.4C9853.51 2929.31 9856 2915.48 9856 2910L9833 2910L9832 2862L9808 2862L9808 2814L9784 2814L9784 2789L9760 2789L9760 2741C9754.52 2741 9740.69 2743.49 9736.6 2739.4C9732.62 2735.42 9735 2722.31 9735 2717L9324 2717L9324 3831L9300 3831L9299 3782L9275 3782L9275 3734L9251 3734L9251 3661L9227 3661L9227 3613L9203 3613L9202 3564L9179 3564L9178 3492L9154 3492L9154 3443L9130 3443L9130 3394L9106 3394L9105 3322L9083.32 3320.97L9081 3308L9081 3273L9058 3273L9057 3201L9033 3201L9033 3152L9009 3152L9009 3103L8985 3103L8984 3031L8960 3031L8960 2983C8954.69 2983 8941.58 2985.38 8937.6 2981.4C8934.09 2977.89 8936 2967.59 8936 2963L8936 2910L8912 2910L8912 2862L8888 2862L8888 2813L8864 2813L8863 2741L8839 2741L8839 2717L8428 2717L8428 2741L8404 2741L8403 2813L8380 2813L8379 2862L8355 2862L8355 2934L8331 2934L8331 2983L8307 2983L8307 3018C8307 3021.5 8308.13 3027.66 8305.4 3030.4C8301.42 3034.38 8288.31 3032 8283 3032L8282 3104L8258 3104L8258 3152L8234 3152L8233 3224L8210 3224L8210 3273L8186 3273L8186 3307C8186 3310.69 8187.27 3317.52 8184.4 3320.4C8180.42 3324.38 8167.31 3322 8162 3322L8161 3394L8137 3394L8137 3443L8113 3443L8113 3492L8089 3492L8089 3564L8065 3564L8065 3599C8065 3602.5 8066.13 3608.66 8063.4 3611.4C8059.42 3615.38 8046.31 3613 8041 3613C8041 3618.31 8043.38 3631.42 8039.4 3635.4C8036.26 3638.54 8028.06 3637 8024 3637L7981 3637L7798 3637L7798 3613L7749 3613L7749 3589L7725 3589L7725 3564L7701 3564L7701 3540L7676 3540L7676 3516L7653 3516L7652 3443L7628 3443L7628 3152L7652 3152L7652 3099C7652 3094.41 7650.09 3084.11 7653.6 3080.6C7657.58 3076.62 7670.69 3079 7676 3079L7677 3031L7701 3031L7701 3007L7725 3007L7725 2983L7773 2982L7773 2958L7822 2958L7822 2934L8186 2934L8186 2692L7822 2692z"/>
<path style="fill:#6494d4; stroke:none;" d="M8186 2692L8186 2934L7822 2934L7822 2958L7773 2958L7773 2982L7749 2982L7749 2983L7798 2982L7798 2959L7919 2958L7919 2935L8137 2935L8191 2935L8208.97 2933.4L8210 2916L8210 2870L8210 2692L8186 2692M8428 2692L8428 2716L8404 2716L8403 2789L8404 2789L8404 2741L8428 2741L8428 2717L8839 2717L8839 2741L8863 2741L8864 2813L8888 2813L8887 2765L8864 2765L8863 2716L8839 2716L8839 2692L8428 2692M9324 2692L9324 2717L9735 2717C9735 2722.32 9732.64 2735.12 9736.03 2739.4C9739.33 2743.57 9755 2741 9760 2741L9760 2716L9735 2716L9735 2692L9324 2692M10245 2692L10245 2716L10220 2716L10220 3492L10196 3492L10196 3516L10220 3516L10220 3539L10244 3539L10244 2717L10510 2717L10510 3854L10147 3854L10147 3831L10123 3830L10123 3855L10147 3855L10147 3879L10511 3879L10510 2692L10245 2692M3414 2716L3414 2740L3438 2740L3438 2716L3414 2716M3535 2716L3535 2741L3559 2741L3559 2716L3535 2716M1476 2740L1476 2765L1500 2765L1500 2740L1476 2740M3147 2740L3148 2789L3171 2789L3172 2837L3195 2837L3195 2862L3196 2862L3196 2813L3172 2813L3172 2777L3170.4 2765.03L3148 2764L3147 2740M1766 2741L1766 2765L1743 2765L1743 2789L1767 2789C1767 2775.47 1771.21 2753.41 1766 2741M6635 2741L6635 2765L6659 2765L6659 2764L6636 2764L6635 2741M2227 2764L2227 2789L2251 2789L2251 2764L2227 2764M3438 2765L3438 2789L3462 2789L3462 2765L3438 2765M3534 2765L3534 2788L3511.6 2789.03L3510 2802L3510 2837L3486 2837L3486 2813L3463 2813L3463 2789L3462 2789L3462 2825L3463.6 2836.97L3486 2838C3486 2842.86 3483.53 2857.75 3487.6 2860.97C3491.88 2864.36 3504.68 2862 3510 2862L3511 2813L3535 2813C3535 2799.47 3539.21 2777.42 3534 2765M6659 2765L6659 2789L6683 2789L6683 2765L6659 2765M7556 2765L7556 2789L7580 2789L7580 2765L7556 2765M9760 2765L9760 2789L9784 2789L9784 2765L9760 2765M1452 2789L1451 2861L1428.6 2862.03L1427 2875L1427 2910L1403 2910L1403 2959L1404 2959L1404 2935L1426.4 2933.97L1428 2922L1428 2886L1450.4 2884.97L1452 2873L1452 2837L1476 2837L1476 2789L1452 2789M1742 2789L1742 2813L1719 2813L1718 2885L1694 2885L1694 2910L1718 2910L1719 2861L1742 2861L1743 2811L1742 2789M6683 2789L6683 2813L6684 2813L6683 2789M7532 2789L7532 2813L7556 2813L7556 2789L7532 2789M8379 2789L8379 2837L8355 2837L8355 2862L8379 2862L8380 2813L8403 2813L8403 2789L8379 2789M2251 2813L2251 2838L2275 2838L2275 2813L2251 2813M6684 2813L6684 2814L6707 2814L6707 2837L6708 2837L6708 2813L6684 2813M7507 2813L7507 2838L7483 2838L7483 2862C7488 2862 7503.67 2864.57 7506.97 2860.4C7510.36 2856.12 7508 2843.32 7508 2838C7513.32 2838 7526.12 2840.36 7530.4 2836.97C7534.57 2833.67 7532 2818 7532 2813L7507 2813M9784 2813L9784 2814L9808 2814L9784 2813M6708 2837L6708 2862L6732 2862L6732 2837L6708 2837M8888 2837L8888 2862L8912 2862L8912 2837L8888 2837M9808 2837L9808 2862L9832 2862L9832 2838L9808 2837M2275 2838L2276 2910L2299 2910L2299 2946L2300.6 2957.97L2323 2959L2323 2983L2324 2983L2324 2934L2300 2934L2299 2862L2276 2862L2275 2838M3196 2862L3196 2886L3220 2886L3220 2862L3196 2862M3753 2862L3753 2910L3777 2910L3777 2862L3753 2862M9832 2862L9832 2886L9833 2886L9832 2862M7459 2885L7459 2910L7483 2910L7483 2885L7459 2885M1985 2886L1985 2910L1961 2910L1960 2982C1954.68 2982 1941.88 2979.64 1937.6 2983.03C1933.43 2986.33 1936 3002 1936 3007L1960 3007L1961 2935C1966.32 2935 1979.12 2937.36 1983.4 2933.97C1987.57 2930.67 1985 2915 1985 2910L2009 2910L2009 2886L1985 2886M6732 2886L6732 2940L6733.6 2957.97L6756 2959L6756 2910L6733 2910L6732 2886M8331 2886L8331 2934L8355 2934L8355 2886L8331 2886M8622 2886L8621 2935L8622 2935L8622 2910L8645 2910L8645 2934L8670 2934L8670 2910L8646 2910L8646 2886L8622 2886M8912 2886L8912 2910L8936 2910L8936 2886L8912 2886M9833 2886L9833 2910L9856 2910L9856 2934L9857 2934L9857 2886L9833 2886z"/>
<path style="fill:#f6f9fd; stroke:none;" d="M1985 2910C1985 2915.48 1987.49 2929.31 1983.4 2933.4C1979.42 2937.38 1966.31 2935 1961 2935L1960 3007L1936 3007L1936 3079L1912 3079L1912 3128L1888 3128L1887 3200L1864 3200L1864 3249L1840 3249L1839 3321L1816.6 3322.03L1815 3335L1815 3370L2154 3370L2154 3274L2130 3274L2130 3225L2106 3225L2105 3153L2082 3153L2081 3104L2058 3104L2057 3031L2033 3031L2033 2983L2009 2983L2009 2910L1985 2910z"/>
<path style="fill:#6494d4; stroke:none;" d="M3220 2910L3220 2935L3244 2935L3244 2910L3220 2910M7435 2910L7434 2959L7411 2959L7411 2983L7435 2983L7435 2935L7459 2935L7459 2910L7435 2910z"/>
<path style="fill:#f6f9fd; stroke:none;" d="M8622 2910L8621 2983L8597 2983L8597 3031L8573 3031L8573 3080L8549 3080L8548 3152L8525 3152L8524 3201L8501 3201L8500 3250L8477 3250L8476 3322L8452 3322L8452 3370L8815 3370L8815 3298L8791 3298L8791 3249L8767 3249L8766 3177L8743 3177L8742 3128L8719 3128L8718 3056C8712.69 3056 8699.58 3058.38 8695.6 3054.4C8692.73 3051.52 8694 3044.69 8694 3041L8694 3006L8670 3006L8670 2934L8645 2934L8645 2910L8622 2910z"/>
<path style="fill:#6494d4; stroke:none;" d="M1670 2934L1670 2959L1694 2959L1694 2934L1670 2934M3729 2934L3729 2959L3753 2959L3753 2934L3729 2934M4794 2934L4794 3112L4794 3158L4795.03 3175.4L4805 3177L4834 3177L4950 3177L5424 3177L5424 3394L4794 3394L4794 3637L5448 3637L5448 3636L4818 3636L4818 3612L4795 3612L4795 3419L4818 3419L4818 3395L5448 3395L5448 3153L4795 3152L4795 2959C4800.32 2959 4813.12 2961.36 4817.4 2957.97C4821.47 2954.75 4819 2939.86 4819 2935L5448 2935L5430 2934L5391 2934L5257 2934L4794 2934M5932 2934L5932 3148L5932 3203C5932 3207.9 5929.88 3219.42 5933.03 3223.4C5936.55 3227.85 5954.62 3225 5960 3225L6040 3225L6369 3225L6369 3201L5933 3201L5933 2935L6272 2935L6272 2958L6417 2959L6417 2983L6441 2983L6442 3031L6465 3031L6465 3104L6442 3104L6441 3176L6417 3176L6417 3200L6393 3200L6393 3201L6418 3201L6418 3177L6442 3177L6442 3152L6465 3152C6465 3116.71 6466 3081.36 6466 3046L6466 3018C6466 3015.09 6466.91 3010.05 6464.97 3007.6C6461.75 3003.53 6446.86 3006 6442 3006L6441 2959L6393 2958L6393 2934L5932 2934M8936 2934L8936 2969L8937.6 2981.97L8960 2983L8960 3031L8984 3031L8985 3103L9009 3103L9009 3056L8985 3056L8985 3007L8961 3007L8960 2958L8937 2958L8936 2934M9857 2934L9857 2935L9881 2935L9857 2934z"/>
<path style="fill:#f6f9fd; stroke:none;" d="M5933 2935L5933 3201L6417 3200L6417 3176L6441 3176L6442 3104L6465 3104L6465 3031L6442 3031L6441 2983L6417 2983L6417 2959L6272 2958L6272 2935L5933 2935z"/>
<path style="fill:#6494d4; stroke:none;" d="M8330 2935L8330 2958L8307 2958L8307 2983L8331 2983C8331 2969.47 8335.21 2947.41 8330 2935M2009 2958L2009 2983L2033 2983L2033 2958L2009 2958M2953 2958L2953 3854L2397 3854C2397 3848.68 2399.36 3835.88 2395.97 3831.6C2392.75 3827.53 2377.86 3830 2373 3830L2373 3806L2372 3806L2372 3842L2373.6 3853.97L2397 3855L2397 3879L2954 3879L2954 3855C2958.86 3855 2973.75 3857.47 2976.97 3853.4C2979.42 3850.3 2978 3842.73 2978 3839L2978 3802L2978 3658L2978 3007L3002 3007L3002 2982L2978 2982L2978 2958L2953 2958M3244 2958L3244 2983L3268 2983L3268 2959L3244 2958M8597 2958L8597 2983L8621 2983L8621 2958L8597 2958M1380 2959L1379 3007L1403 3006L1403 2959L1380 2959M3728 2959L3728 2983L3705 2983L3705 3007L3729 3007C3729 2993.47 3733.21 2971.42 3728 2959M8670 2959L8670 3006L8694 3006L8694 2959L8670 2959M9881 2959L9881 2983L9905 2983L9905 2959L9881 2959M1646 2983L1646 3031L1669 3031L1670 2983L1646 2983M2324 2983L2324 3007L2348 3007L2348 2983L2324 2983M7410 2983L7410 3031L7386 3031L7386 3080L7410 3079L7411 3012L7410 2983M7725 2983L7725 3007L7749 3007L7749 2983L7725 2983M8306 2983L8306 3007L8283 3007L8282 3079L8258 3079L8258 3104L8282 3104L8283 3032L8305.4 3030.97L8307 3019L8306 2983M9590 2983L9590 3854L9033 3854L9033 3879L9590 3879L9590 3855L9614 3855L9614 3031L9639 3031C9639 3026 9641.57 3010.33 9637.4 3007.03C9633.12 3003.64 9620.32 3006 9615 3006L9615 2983L9590 2983M2033 3006L2033 3031L2057 3031L2057 3007L2033 3006M3268 3006L3269 3055L3292 3055L3293 3104L3317 3104L3317 3079L3293 3079L3292 3007L3268 3006M3704 3007L3704 3055L3680 3055L3680 3104L3681 3104L3681 3080L3704 3080L3705 3029L3704 3007M8573 3007L8573 3031L8597 3031L8597 3007L8573 3007M8694 3007L8694 3042L8695.6 3054.97L8718 3056L8719 3128L8742 3128L8742 3152L8743 3152L8742 3080L8719 3080L8718 3031L8695 3031L8694 3007M9905 3007L9905 3031L9929 3031L9929 3007L9905 3007M1355 3031L1355 3055L1379 3055L1379 3031L1355 3031M1645 3031L1645 3055L1622.6 3056.03L1621 3069L1621 3104L1597 3104L1597 3152L1598 3152L1598 3128L1622 3128L1622 3080L1644.4 3078.97L1646 3067L1645 3031M1912 3031L1912 3079L1936 3079L1936 3031L1912 3031M2057 3031L2058 3104L2081 3104L2081 3128L2082 3128L2082 3093L2080.4 3080.03L2058 3079C2058 3065.47 2062.21 3043.42 2057 3031M3002 3031L3002 3055L3026 3055L3026 3031L3002 3031M3971 3031L3971 3055L3995 3055L3995 3031L3971 3031M6732 3031L6732 3104L6756 3103L6756 3031L6732 3031M7677 3031L7677 3055L7701 3055L7701 3031L7677 3031M9639 3031L9639 3056L9663 3056L9663 3031L9639 3031M9929 3031L9930 3079L9953 3079L9953 3104L9977 3104L9977 3128L9978 3128L9978 3080L9954 3080L9954 3055L9930 3055L9929 3031M2348 3055L2348 3080L2372 3080L2372 3055L2348 3055M3026 3055L3026 3104L3050 3104L3051 3176L3075 3177L3074 3128L3051 3128L3050 3080L3027 3080L3026 3055M7676 3055L7676 3079L7653.6 3080.03L7652 3098L7652 3152L7653 3152L7653 3104L7675.4 3102.97L7677 3091L7676 3055M8549 3056L8549 3080L8573 3080L8573 3056L8549 3056M1354 3079L1331 3080L1331 3104L1355 3104L1354 3079M3946 3128L3922 3128L3922 3177L3923 3177L3923 3153L3945.4 3151.97L3947 3139L3947 3104L3971 3104L3971 3079L3947.6 3080.03L3946 3093L3946 3128M9663 3079L9663 3104L9687 3104L9687 3079L9663 3079M2372 3080L2372 3128L2396 3128L2396 3104L2373 3104L2372 3080M8548 3080L8548 3128L8549 3128C8549 3114.47 8553.21 3092.41 8548 3080M1888 3103L1888 3128L1912 3128L1912 3103L1888 3103M1330 3104L1330 3152L1306 3152L1306 3201L1307 3201L1307 3176L1330 3176L1331 3126L1330 3104M3656 3104L3656 3128L3680 3128L3680 3104L3656 3104M9687 3104L9687 3128L9688 3128L9687 3104M1887 3128L1887 3153L1864 3153L1863 3225L1839 3225L1839 3274L1840 3274L1840 3249L1864 3249L1864 3200L1887 3200L1888 3150L1887 3128M2082 3128L2082 3153L2105 3153L2105 3176L2106 3176L2106 3128L2082 3128M2396 3128L2397 3200L2420 3200L2420 3225L2421 3225L2420 3153L2397 3153L2396 3128M3317 3128L3317 3152L3341 3152L3341 3128L3317 3128M6708 3128L6708 3153L6732 3153L6732 3128L6708 3128M7362 3128L7362 3225L7386 3225L7386 3128L7362 3128M8234 3128L8234 3152L8258 3152L8258 3128L8234 3128M8524 3128L8524 3176L8500 3176L8500 3224L8501 3224L8501 3201L8524 3201L8525 3152L8548 3152L8548 3128L8524 3128M9009 3128L9009 3152L9033 3152L9033 3128L9009 3128M9688 3128L9688 3152L9711 3152C9711 3157 9708.43 3172.67 9712.6 3175.97C9716.88 3179.36 9729.68 3177 9735 3177L9735 3201L9736 3201L9736 3165L9734.4 3153.03L9712 3152L9712 3128L9688 3128M9978 3128L9978 3152L10002 3152L10002 3128L9978 3128M7628 3152L7628 3443L7652 3443L7652 3371L7629 3371L7629 3201L7652 3201L7652 3152L7628 3152M8743 3152L8743 3177L8766 3177L8766 3201L8767 3201L8767 3152L8743 3152M3632 3153L3632 3200L3656 3200L3656 3153L3632 3153M1573 3176L1573 3201L1597 3201L1597 3176L1573 3176M3341 3176L3341 3201L3365 3201L3365 3176L3341 3176M6684 3176L6683 3224L6660 3224L6660 3225L6684 3225L6684 3201L6708 3201L6708 3176L6684 3176M9033 3176L9033 3201L9057 3201L9057 3177L9033 3176M10002 3176L10002 3201L10026 3201L10026 3176L10002 3176M8210 3177L8210 3224L8233 3224L8234 3177L8210 3177M2106 3200L2106 3225L2130 3225L2130 3200L2106 3200M3075 3200L3075 3225L3099 3225L3099 3200L3075 3200M3898 3200L3898 3225L3922 3225L3922 3200L3898 3200M1282 3201L1282 3225L1306 3225L1306 3201L1282 3201M3631 3201L3631 3225L3608 3225L3608 3249L3632 3249C3632 3235.47 3636.21 3213.42 3631 3201M9736 3201L9736 3225L9760 3225L9760 3201L9736 3201M10026 3201L10026 3225L10050 3225L10050 3201L10026 3201M8767 3224L8767 3249L8791 3249L8791 3224L8767 3224M1549 3225L1549 3249L1573 3249L1573 3225L1549 3225M2421 3225L2421 3249L2445 3250L2445 3225L2421 3225M3365 3225L3365 3249L3389 3249L3389 3225L3365 3225M6659 3225L6659 3249L6660 3249L6659 3225M8209 3225L8209 3249L8185 3249L8185 3298L8161 3298L8161 3370L8162 3370L8162 3322L8184.4 3320.97L8186 3308L8186 3273L8210 3273C8210 3259.47 8214.21 3237.42 8209 3225M8476 3225L8476 3273L8477 3273L8477 3250L8500 3250L8500 3225L8476 3225M9057 3225L9058 3273L9081 3273L9081 3308L9082.6 3320.97L9105 3322L9105 3346L9106 3346L9106 3298L9082 3298L9082 3249L9058 3249L9057 3225M10050 3225L10050 3260L10051.6 3272.97L10074 3274L10075 3322L10099 3322L10099 3297L10075 3297L10075 3249L10051 3249L10050 3225M1258 3249L1258 3274L1282 3274L1282 3249L1258 3249M2130 3249L2130 3274L2154 3274L2154 3249L2130 3249M3099 3249L3099 3274L3123 3274L3123 3249L3099 3249M3389 3249L3390 3322L3413 3322L3413 3346L3414 3346L3414 3297L3390 3297C3390 3283.47 3394.21 3261.42 3389 3249M3607 3249L3607 3274L3584 3274L3583 3346L3584 3346L3584 3298L3608 3298C3608 3284.21 3612.31 3261.65 3607 3249M3874 3249L3874 3273L3898 3273L3898 3249L3874 3249M6635 3249L6636 3250L6635 3249M9760 3249L9760 3250L9784 3250L9760 3249M1548 3250L1548 3274L1525 3274L1525 3298L1549 3298C1549 3284.47 1553.21 3262.41 1548 3250M6587 3273L6587 3297L6563 3297L6563 3298L6611 3298L6611 3274L6635 3274C6622.58 3268.79 6600.53 3273 6587 3273M8791 3273L8791 3298L8815 3298L8815 3273L8791 3273M9784 3273L9784 3298L9808 3298L9808 3273L9784 3273M1816 3274L1815 3322L1839 3321L1839 3274L1816 3274M2154 3274L2154 3370L1815 3370L1815 3371L2075 3371L2147 3371C2154.85 3371 2169.61 3373.87 2176.68 3370.4C2180.04 3368.75 2179 3363.04 2179 3360L2179 3333C2179 3330.09 2179.91 3325.05 2177.97 3322.6C2174.75 3318.53 2159.86 3321 2155 3321C2155 3307.73 2159.11 3286.18 2154 3274M2445 3274L2445 3298L2469 3298L2469 3274L2445 3274M3123 3297L3123 3322L3147 3322L3147 3298L3123 3297M8452 3297L8452 3322L8476 3322L8476 3297L8452 3297M1234 3298L1233 3370L1209 3370L1209 3418L1186.6 3419.03L1185 3431L1185 3467L1186 3467L1186 3443L1209 3443L1210 3394L1233 3394L1234 3346L1258 3346L1258 3298L1234 3298M1524 3298L1524 3346L1525 3346C1525 3332.47 1529.21 3310.41 1524 3298M3850 3298L3850 3322L3874 3322L3874 3298L3850 3298M6562 3298L6562 3322L6587 3322L6587 3321L6563 3321L6562 3298M8815 3298L8815 3370L8839 3370L8839 3346L8816 3346C8816 3332.47 8820.21 3310.41 8815 3298M9808 3298L9808 3346L9832 3346L9832 3370L9833 3370L9833 3322L9809 3322L9808 3298M2469 3322L2469 3370L2493 3370L2493 3346L2470 3346L2469 3322M3147 3322L3148 3394L3171 3394L3172 3443L3195 3443L3195 3467L3196 3467L3196 3431L3194.4 3419.03L3172 3418L3172 3370L3148 3370C3148 3356.47 3152.21 3334.42 3147 3322M3849 3322L3849 3346L3826 3346L3825 3418L3826 3418L3826 3371L3848.4 3369.97L3850 3358L3849 3322M6587 3322L6587 3346L6611 3346L6611 3322L6587 3322M8451 3322L8451 3346L8428 3346L8428 3370L8452 3370C8452 3356.47 8456.21 3334.41 8451 3322M10099 3322L10099 3346L10123 3346L10123 3322L10099 3322M1500 3346L1500 3395L1501 3395L1501 3370L1524 3370L1524 3346L1500 3346M1791 3346L1791 3370L1815 3370L1815 3346L1791 3346M3414 3346L3414 3370L3438 3370L3438 3346L3414 3346M3559 3346L3559 3371L3583 3370L3583 3346L3559 3346M6635 3346L6635 3371L6659 3371L6659 3395L6683 3395L6683 3430L6684.6 3441.97L6708 3443L6708 3419L6684 3419L6684 3394L6660 3394L6660 3370L6636 3370L6635 3346M7362 3346L7362 3467L7386 3467L7386 3346L7362 3346M9106 3346L9106 3394L9130 3394L9130 3346L9106 3346M2493 3370L2493 3419L2517 3419L2517 3394L2494 3394L2493 3370M8137 3370L8137 3394L8161 3394L8161 3370L8137 3370M8452 3370L8452 3371L8815 3371L8782 3370L8708 3370L8452 3370M9833 3370L9833 3371L9856 3371L9856 3394L9857 3394L9857 3370L9833 3370M10123 3370L10123 3395L10147 3395L10147 3370L10123 3370M1476 3395L1476 3419L1500 3419L1500 3395L1476 3395M3438 3395L3438 3419L3462 3419L3462 3395L3438 3395M3535 3395L3535 3419L3559 3419L3559 3395L3535 3395M9857 3395L9857 3419L9881 3419L9881 3395L9857 3395M10147 3395L10147 3443L10171 3443L10171 3467L10172 3467L10172 3432L10170.4 3419.03L10148 3418L10147 3395M3801 3418L3801 3443L3825 3443L3825 3418L3801 3418M9130 3418L9130 3443L9154 3443L9154 3418L9130 3418M2517 3419L2518 3491L2541 3491L2541 3515L2542 3515L2541 3443L2518 3443L2517 3419M8113 3419L8113 3443L8137 3443L8137 3419L8113 3419M1452 3443L1452 3491L1476 3491L1476 3443L1452 3443M3462 3443C3462 3448 3459.43 3463.67 3463.6 3466.97C3467.88 3470.36 3480.68 3468 3486 3468L3486 3443L3462 3443M3511 3443L3511 3491L3535 3491L3535 3443L3511 3443M6345 3443L6345 3467L6393 3467L6393 3443L6345 3443M7652 3443L7653 3516L7676 3516L7676 3540L7701 3540L7701 3539L7677 3539L7677 3491L7653 3491C7653 3477.47 7657.21 3455.42 7652 3443M9881 3443L9881 3467L9905 3467L9905 3443L9881 3443M1161 3467L1161 3492L1185 3492L1185 3467L1161 3467M3196 3467L3196 3492L3220 3492L3220 3467L3196 3467M3777 3467L3777 3492L3801 3491L3801 3467L3777 3467M6393 3467L6393 3468L6417 3468L6417 3491L6418 3491L6418 3467L6393 3467M6708 3467L6708 3516L6732 3516L6732 3467L6708 3467M8089 3467L8089 3492L8113 3492L8113 3467L8089 3467M9154 3467L9154 3492L9178 3492L9179 3564L9202 3564L9202 3588L9203 3588L9203 3553L9201.4 3540.03L9179 3539L9178 3467L9154 3467M9905 3467L9905 3492L9929 3492L9929 3527L9930.6 3538.97L9953 3540L9953 3564L9954 3564L9954 3516L9930 3516L9930 3491L9906 3491L9905 3467M10172 3467L10172 3468L10195 3468L10195 3491L10196 3491L10196 3467L10172 3467M3486 3491L3486 3516L3511 3516L3511 3491L3486 3491M6418 3491L6418 3492L6441 3492L6442 3539L6465 3539L6465 3564L6466 3564L6466 3515L6442 3515L6442 3491L6418 3491M1451 3492L1451 3515L1428 3515L1428 3540L1452 3540C1452 3526.47 1456.21 3504.41 1451 3492M8088 3492L8088 3539L8065.6 3540.03L8064 3553L8064 3588L8041.6 3589.03L8040 3601L8040 3636L8041 3636L8041 3613L8063.4 3611.97L8065 3600L8065 3564L8089 3564L8089 3515L8088 3492M2542 3515L2542 3540L2566 3540L2566 3515L2542 3515M7386 3515L7386 3564L7410 3564L7411 3636L7434 3636L7434 3661L7458 3661L7458 3685L7459 3685L7458 3637L7435 3637L7434 3589L7411 3589L7410 3516L7386 3515M1137 3516L1137 3540L1161 3540L1161 3516L1137 3516M3753 3516L3753 3540L3777 3540L3777 3516L3753 3516M3220 3539L3220 3564L3244 3564L3244 3612L3268 3612L3268 3661L3292 3661L3292 3685L3293 3685L3293 3637L3269 3637L3269 3588L3245 3588L3245 3553L3243.4 3540.03L3220 3539M1427 3540L1427 3564L1404 3564L1403 3613L1380 3613L1379 3661L1403 3661L1404 3589L1426.4 3587.97L1428 3576L1427 3540M1113 3564L1112 3636L1089.6 3637.03L1088 3650L1088 3685L1089 3685L1089 3661L1111.4 3659.97L1113 3648L1113 3612L1136 3612L1137 3564L1113 3564M2566 3564L2566 3589L2590 3589L2590 3564L2566 3564M3729 3564L3728 3636L3704 3636L3704 3685L3705 3685L3705 3661L3728 3661L3729 3612L3752 3612L3753 3564L3729 3564M6466 3564L6466 3613L6489 3613L6489 3636L6490 3636L6490 3564L6466 3564M7725 3564L7725 3589L7749 3589L7749 3613L7798 3613L7798 3612L7773 3612L7773 3588L7726 3588L7725 3564M9954 3564L9954 3588L9978 3588L9978 3564L9954 3564M9203 3588L9203 3613L9227 3613L9227 3588L9203 3588M1694 3612L1694 3613L2275 3613L2275 3637L2299 3637L2299 3673L2300.6 3684.97L2323 3686L2323 3709L2324 3709L2323 3661L2300 3661L2299 3613L1694 3612M2590 3612L2590 3648L2591.6 3659.97L2614 3661L2614 3696L2615.6 3708.97L2638 3710L2638 3758L2662 3758L2662 3782L2663 3782L2663 3734L2639 3734L2639 3699L2637.4 3686.03L2615 3685L2615 3649L2613.4 3637.03L2591 3636L2590 3612M8331 3612L8331 3613L8936 3613L8919 3612L8884 3612L8760 3612L8331 3612M9978 3612L9978 3613L10002 3613L9978 3612M6732 3613L6732 3854L6733 3854L6733 3684L6733 3635L6732 3613M7798 3613L7798 3637L8040 3637L8040 3636L7846 3636L7846 3613L7798 3613M8330 3613L8330 3660L8307.6 3661.03L8306 3673L8306 3709L8283.6 3710.03L8282 3723L8282 3758L8283 3758L8283 3734L8306 3734L8307 3685L8330 3685L8331 3635L8330 3613M8936 3613L8936 3661L8960 3661L8960 3709L8961 3709L8960 3637L8937 3637L8936 3613M1670 3637L1670 3661L1694 3661L1694 3637L1670 3637M5448 3637L5448 3879L5472 3879L5472 3637L5448 3637M9227 3637L9227 3661L9251 3661L9251 3637L9227 3637M10002 3637L10002 3661L10026 3661L10026 3637L10002 3637M1669 3661L1669 3686L1646 3686L1645 3757C1639.68 3757 1626.88 3754.64 1622.6 3758.03C1618.43 3761.33 1621 3777 1621 3782L1645 3782L1646 3733L1669 3733L1670 3683L1669 3661M10026 3661L10027 3709L10050 3709C10050 3714 10047.4 3729.67 10051.6 3732.97C10055.9 3736.36 10068.7 3734 10074 3734L10074 3758L10075 3758L10074 3710L10051 3710L10051 3685L10027 3685L10026 3661M1064 3685L1064 3710L1088 3709L1088 3685L1064 3685M1355 3685L1355 3710L1379 3710L1379 3685L1355 3685M3293 3685L3293 3733L3317 3733L3317 3698L3315.4 3686.03L3293 3685M3680 3685L3680 3733L3681 3733L3681 3709L3704 3709L3704 3685L3680 3685M6200 3685L6200 3686L6223 3686L6224 4121L7459 4121L7459 4025L7507 4025L7507 4049L7556 4049L7556 4072L7629 4073L7629 4072L7604 4072L7604 4049L7531 4048L7531 4024L7483 4024L7483 4000L7459 4000L7459 4024L7435 4024L7435 4097L6546 4097L6324 4097L6268 4097C6263.24 4097 6252.23 4099.02 6248.6 4095.4C6244.31 4091.1 6247 4075.77 6247 4070L6247 3998L6247 3709L6224 3709L6224 3685L6200 3685M7459 3685L7459 3709L7483 3709L7483 3685L7459 3685M9251 3686L9251 3734L9275 3734L9275 3709L9252 3709L9251 3686M7483 3709L7483 3734L7507 3734L7507 3758L7532 3758L7531 3734C7525.69 3734 7512.58 3736.38 7508.6 3732.4C7504.51 3728.31 7507 3714.48 7507 3709L7483 3709M8961 3709L8961 3734L8985 3734L8985 3709L8961 3709M2324 3733L2324 3757L2348 3757L2348 3733L2324 3733M1040 3734L1040 3758L1064 3758L1064 3734L1040 3734M1331 3734L1331 3758L1355 3758L1355 3734L1331 3734M3656 3734L3656 3758L3680 3758L3680 3734L3656 3734M9275 3734L9275 3782L9299 3782L9300 3831L9324 3831L9324 3782L9323 3782L9323 3806L9300 3806L9300 3758L9276 3758L9275 3734M3317 3757L3317 3782L3341 3782L3341 3757L3317 3757M7532 3758L7532 3782L7556 3782L7556 3758L7532 3758M8985 3758L8985 3782L9009 3782L9009 3758L8985 3758M10075 3758L10075 3782L10099 3782L10099 3758L10075 3758M1016 3782L1015 3854L992.603 3855.03L991 3867L991 3903L992 3903L992 3879L1015 3879L1016 3807L1040 3807L1040 3782L1016 3782M1330 3782L1330 3806L1307 3806L1307 3830L1331 3830C1331 3816.47 1335.21 3794.41 1330 3782M2348 3782L2348 3806L2372 3806L2372 3782L2348 3782M2663 3782L2663 3807L2687 3807L2687 3782L2663 3782M3632 3782L3631 3854L3366 3854L3365 3806L3341 3806C3341 3811 3338.43 3826.67 3342.6 3829.97C3346.88 3833.36 3359.68 3831 3365 3831L3366 3879L3608 3879L3608 3855L3632 3855L3632 3830L3656 3830L3656 3782L3632 3782M7556 3782L7556 3806L7580 3806L7580 3782L7556 3782M8258 3782L8258 3807L8282 3806L8282 3782L8258 3782M1597 3806L1597 3831L1621 3830L1621 3806L1597 3806M7604 3806L7604 3830L7653 3831L7653 3854L7726 3855L7726 3878L7822 3879L7822 3878L7798 3878L7798 3855L7701 3854L7701 3831L7629 3830C7629 3824.68 7631.36 3811.88 7627.97 3807.6C7624.67 3803.43 7609 3806 7604 3806M10099 3806L10099 3830L10123 3830L10123 3806L10099 3806M1306 3830L1306 3879L1597 3878L1597 3854L1307 3854L1306 3830M8500 3831L8500 3879L8501 3879L8501 3855L8742 3854L8742 3879L8766 3879L8766 3927L8767 3927L8767 3855L8743 3855C8743 3850.15 8745.61 3833.03 8740.68 3830.6C8735.78 3828.19 8726.4 3830 8721 3830L8673 3830C8615.33 3830 8557.59 3831 8500 3831M9009 3830L9009 3854L9033 3854L9033 3830L9009 3830M1888 3854L1888 3855L2081 3855L2062 3854L2023 3854L1888 3854M6490 3854L6490 3879L6732 3879L6732 3854L6490 3854M8234 3854L8233 3879L8258 3879L8258 3854L8234 3854M1864 3855L1864 3879L1887 3879L1887 3855L1864 3855M2081 3855L2081 3879L2105 3879L2105 3927L2106 3927L2106 3855L2081 3855M1863 3879L1863 3903L1840.6 3904.03L1839 3916L1839 3952L1815 3952L1815 4000L1839 4000L1840 3928L1862.4 3926.97L1864 3915L1863 3879M8476 3879L8476 3928L8477 3928L8477 3904L8500 3904L8500 3879L8476 3879M9809 3879L9809 4097L8839 4097L8839 4121L9832 4121L9833 3903L9856 3903L9856 3879L9809 3879M967 3903L967 3951L968 3951L968 3927L991 3927L991 3903L967 3903M9856 3903L9856 3927L9857 3927L9856 3903M2106 3927L2106 3951L2130 3951L2130 3927L2106 3927M8767 3927L8767 3952L8791 3952L8791 3927L8767 3927M9857 3927L9857 3952L9881 3952L9881 3927L9857 3927M943 3951L943 3976L967 3976L967 3951L943 3951M3172 3951L3171 4121L3172 4121L3172 3976L3195 3976L3195 4012L3196.6 4023.97L3220 4025L3220 4000L3196 4000L3196 3964L3194.4 3952.03L3172 3951M3801 4000L3802 4000L3802 3976L3825 3976L3825 4121L3826 4121L3825 3951L3802.6 3952.03L3801 3965L3801 4000M8452 3951L8452 3976L8476 3976L8476 3951L8452 3951M9881 3975L9881 3976L9905 3976L9881 3975M2130 3976L2130 4000L2154 4000L2154 3976L2130 3976M8791 3976L8791 4024L8815 4024L8815 3976L8791 3976M919 4000L919 4025L943 4025L943 4000L919 4000M3777 4000L3777 4049L3778 4049L3778 4025L3801 4025L3801 4000L3777 4000M8451 4000L8451 4024L8428 4024L8428 4048L8452 4048C8452 4034.47 8456.21 4012.41 8451 4000M9905 4000L9905 4025L9929 4025L9929 4060L9930.6 4071.97L9953 4073L9953 4097L9954 4097L9954 4062L9952.4 4049.03L9930 4048L9929 4000L9905 4000M1791 4024L1791 4049L1815 4049L1815 4024L1791 4024M2154 4025L2154 4073L2178 4073L2178 4048L2155 4048L2154 4025M918 4048L895 4049L894 4121L895 4121L895 4096L918 4096C918 4082.28 923.312 4060.66 918 4048M8815 4048L8815 4073L8839 4073L8839 4049L8815 4048M8427 4049L8427 4073L8404 4073L8404 4097L8428 4097C8428 4083.47 8432.21 4061.41 8427 4049M3220 4072L3220 4097L3244 4097L3244 4072L3220 4072M3753 4072L3753 4097L3777 4097L3777 4072L3753 4072M1767 4073L1767 4121L1791 4121L1791 4073L1767 4073M2178 4073L2178 4121L2179 4121C2179 4107.47 2183.21 4085.42 2178 4073M7652 4073L7652 4097L7725 4097L7725 4096L7701 4096L7701 4073L7652 4073M7798 4097L7798 4121L8404 4121L8404 4097L7798 4097M895 4121L895 4122L1766 4122L1743 4121L1691 4121L1513 4121L895 4121M2202 4121L2202 4122L3171 4122L3145 4121L3088 4121L2890 4121L2202 4121M3245 4121L3245 4122L3752 4122C3740.54 4117.19 3720.47 4121 3708 4121L3604 4121L3245 4121M3826 4121L3826 4122L6175 4122L6156 4121L6116 4121L5978 4121L5497 4121L3826 4121M3220 4412L3220 6131L4746 6131L4746 6107L4770 6107L4770 6083L4794 6083L4794 6059L4819 6059L4819 6035C4824.32 6035 4837.12 6037.36 4841.4 6033.97C4845.57 6030.67 4843 6015 4843 6010L4867 6010L4867 5986L4891 5986L4891 5962L4915 5962L4915 5938C4920.51 5938 4933.97 5940.47 4938.4 5936.97C4942.57 5933.67 4940 5918 4940 5913L4988 5914L4988 5938L5012 5938L5012 5962L5013 5962L5012 5914L4988 5914L4988 5889L4940 5889L4940 5913C4934.49 5913 4921.03 5910.53 4916.6 5914.03C4912.43 5917.33 4915 5933 4915 5938L4891 5938L4891 5962L4867 5962L4867 5986L4843 5986L4843 6010L4819 6010C4819 6015.48 4821.49 6029.31 4817.4 6033.4C4813.31 6037.49 4799.48 6035 4794 6035L4794 6059L4770 6059L4770 6083L4746 6083L4746 6107L4722 6107L4722 6131L3244 6131L3244 4436L4770 4436L4770 4460L4794 4460C4794 4465 4791.43 4480.67 4795.6 4483.97C4799.88 4487.36 4812.68 4485 4818 4485C4818 4490.32 4815.64 4503.12 4819.03 4507.4C4822.33 4511.57 4838 4509 4843 4509L4843 4508L4819 4508L4819 4484L4795 4484L4794 4436L4770 4436L4770 4412L3220 4412M5206 4412L5206 4436L6344 4436L6344 4412L5206 4412M6611 4412L6611 4436L6587 4436L6587 4484L6539 4484L6537.97 4461.6L6526 4460L6490 4460L6490 4461L6514 4461L6514 4484L6563 4485L6563 4509L6611 4509L6611 4436L7628 4436L7628 4412L6611 4412M7871 4412L7870 4508L7847 4508L7847 4484L7822 4484L7822 4461L7773 4460L7774 4484L7846 4485L7846 4509L7880 4509L7893.4 4507.97L7895 4490L7895 4436L9275 4436L9275 4509L9300 4509L9300 4485L9336 4485L9347.97 4483.4L9349 4461L9372 4461L9372 4460L9324 4460L9324 4484L9299 4484L9299 4508L9276 4508L9275 4412L7871 4412M9494 4412L9494 4436L10366 4436L10366 4509L10414 4509L10414 4485L10462 4484L10462 4461L10511 4460L10511 4436L10486 4436L10486 4460L10438 4460L10438 4484C10433 4484 10417.3 4481.43 10414 4485.6C10410.6 4489.88 10413 4502.68 10413 4508L10390 4508L10390 4412L9494 4412M10559 4412L10559 4436L11407 4436L11407 4460L11431 4460L11431 4412L10559 4412z"/>
<path style="fill:#f6f9fd; stroke:none;" d="M3244 4436L3244 6131L4722 6131L4722 6107L4746 6107L4746 6083L4770 6083L4770 6059L4794 6059L4794 6035C4799 6035 4814.67 6037.57 4817.97 6033.4C4821.47 6028.98 4819 6015.51 4819 6010L4843 6010L4843 5986L4867 5986L4867 5962L4891 5962L4891 5938L4915 5938C4915 5932.52 4912.51 5918.69 4916.6 5914.6C4920.69 5910.51 4934.52 5913 4940 5913L4940 5889L4988 5889L4988 5914L5012 5914L5013 5962L5037 5962L5037 5986L5061 5986L5061 6010L5085 6010L5085 6035L5109 6035L5109 6059L5133 6059L5133 6083C5138.48 6083 5152.31 6080.51 5156.4 6084.6C5160.49 6088.69 5158 6102.52 5158 6108L5182 6108L5182 6131L6102 6131L6103 5744L6369 5744L6369 5720L6514 5720L6514 5696L6587 5695L6587 6132L7153 6132L7291 6132L7325 6132C7328.15 6132 7334.74 6133.22 7336.97 6130.4C7341.02 6125.29 7338 6108.41 7338 6102L7338 6023L7338 5719L7361 5719L7361 5696L7410 5696L7410 5719L7434 5719L7435 6132L9906 6131L9906 6108L10002 6107L10002 6083L10051 6083L10051 6059L10099 6059L10099 6131L11068 6131L11068 6108L11164 6107C11164 6101.69 11161.6 6088.58 11165.6 6084.6C11168.3 6081.87 11174.5 6083 11178 6083L11213 6083L11213 6059L11261 6058C11261 6052.69 11258.6 6039.58 11262.6 6035.6C11266.7 6031.51 11280.5 6034 11286 6034L11286 6010L11310 6010L11310 5986L11334 5986L11334 5962L11359 5962L11359 5938L11383 5938L11383 5913L11407 5913L11407 5865L11431 5865L11432 5817L11455 5817L11456 5768L11479 5768L11480 5671L11503 5671L11503 5429L11480 5429L11479 5333C11473.7 5333 11460.6 5335.38 11456.6 5331.4C11453.7 5328.52 11455 5321.69 11455 5318L11455 5284L11431 5284L11431 4460L11407 4460L11407 4436L10511 4436L10511 4460L10462 4461L10462 4484L10414 4485L10414 4509L10366 4509L10366 4436L9445 4436L9445 4460L9349 4461C9349 4466.31 9351.38 4479.42 9347.4 4483.4C9344.52 4486.27 9337.69 4485 9334 4485L9300 4485L9300 4509L9275 4509L9275 4436L7895 4436L7895 4490C7895 4494.46 7896.96 4505.12 7892.68 4507.97C7889.33 4510.21 7882.84 4509 7879 4509L7846 4509L7846 4485L7774 4484L7772.97 4461.6L7755 4460L7701 4460L7701 4436L6611 4436L6611 4509L6563 4509L6563 4485L6514 4484L6514 4461L6417 4460L6417 4436L5182 4436C5182 4441.48 5184.49 4455.31 5180.4 4459.4C5176.42 4463.38 5163.31 4461 5158 4461L5158 4485L5134 4485L5134 4509L5110 4509L5109 4557L5085 4557L5085 4581L5061 4581L5061 4605C5055.49 4605 5042.02 4602.53 5037.6 4606.03C5033.43 4609.33 5036 4625 5036 4630L5012 4630L5012 4654L4988 4654L4988 4678L4964 4678L4964 4654L4940 4654L4940 4630C4934.52 4630 4920.69 4632.49 4916.6 4628.4C4912.51 4624.31 4915 4610.48 4915 4605L4891 4605L4891 4581L4867 4581L4867 4557L4843 4557L4843 4509C4837.52 4509 4823.69 4511.49 4819.6 4507.4C4815.62 4503.42 4818 4490.31 4818 4485C4812.69 4485 4799.58 4487.38 4795.6 4483.4C4791.51 4479.31 4794 4465.48 4794 4460L4770 4460L4770 4436L3244 4436z"/>
<path style="fill:#6494d4; stroke:none;" d="M5181 4436L5181 4460L5182 4460L5181 4436M6417 4436L6417 4460L6466 4460L6466 4436L6417 4436M7701 4436L7701 4460L7749 4460L7749 4436L7701 4436M9396 4436L9396 4460L9445 4460L9445 4436L9396 4436M5157 4460L5157 4484L5133 4484L5133 4508L5109 4508L5109 4533L5110 4533L5110 4509L5134 4509L5134 4485L5158 4485L5158 4461L5181 4461L5157 4460M4843 4533L4843 4557L4867 4557L4867 4533L4843 4533M5085 4533L5085 4557L5109 4557L5109 4533L5085 4533M4867 4557L4867 4581L4891 4581L4891 4557L4867 4557M5061 4557L5061 4581L5085 4581L5085 4557L5061 4557M4891 4581L4891 4605L4915 4605C4915 4610 4912.43 4625.67 4916.6 4628.97C4921.02 4632.47 4934.49 4630 4940 4630L4940 4606L4916 4606C4916 4600.49 4918.47 4587.02 4914.97 4582.6C4911.67 4578.43 4896 4581 4891 4581M5036 4605C5030.68 4605 5017.88 4602.64 5013.6 4606.03C5009.43 4609.33 5012 4625 5012 4630L5036 4630C5036 4624.52 5033.51 4610.69 5037.6 4606.6C5041.69 4602.51 5055.52 4605 5061 4605L5061 4581C5056 4581 5040.33 4578.43 5037.03 4582.6C5033.64 4586.88 5036 4599.68 5036 4605M4988 4630L4988 4654L5012 4654L5012 4630L4988 4630M4964 4654L4964 4678L4988 4678L4988 4654L4964 4654M9445 4679L9445 4702L9372 4703L9372 4726L9349 4726L9349 4727L9397 4727L9397 4703L9518 4702L9518 4679L10123 4679L10123 4945L9566 4945L9566 4968L9542 4968L9542 4969L10147 4969L10147 4678L9445 4679M10559 4679L10559 4702L10487 4703L10487 4726L10438 4727L10438 4751L10462 4751L10462 4727L10511 4727L10511 4703L10632 4702L10632 4679L11237 4679L11218 4678L11179 4678L11041 4678L10559 4679z"/>
<path style="fill:#316ec4; stroke:none;" d="M9518 4679L9518 4702L9397 4703L9397 4727L9348 4727L9348 4751L9324 4751L9324 4775L9276 4776L9275 4823C9269.68 4823 9256.88 4820.64 9252.6 4824.03C9248.43 4827.33 9251 4843 9251 4848L9227 4848L9227 4896L9203 4896L9203 5187L9227 5187L9227 5235L9251 5235L9251 5259C9256.48 5259 9270.31 5256.51 9274.4 5260.6C9278.49 5264.69 9276 5278.52 9276 5284L9300 5284L9300 5308L9324 5308L9324 5332L9396 5332L9396 5356L9493 5357L9493 5380L9760 5381L9760 5404L9857 5405L9857 5429L9881 5429L9881 5453L9905 5453L9905 5599L9881 5599L9881 5623L9833 5623L9833 5647L9227 5647L9227 5889L9832 5889C9832 5883.69 9829.62 5870.58 9833.6 5866.6C9838.54 5861.66 9858.25 5865 9865 5865L9954 5865L9954 5841L10026 5840L10026 5816L10051 5816L10051 5793L10099 5792L10099 5768L10123 5768L10123 5720L10147 5720L10147 5671L10171 5671L10171 5357L10147 5357L10147 5308L10123 5308L10123 5284L10099 5284L10099 5260C10093.5 5260 10079.7 5262.49 10075.6 5258.4C10071.6 5254.42 10074 5241.31 10074 5236L10026 5235L10026 5211L9978 5211L9978 5187L9615 5186L9615 5163L9518 5163L9518 5139L9493 5139L9493 5115L9469 5115L9469 4993L9493 4993L9493 4969L9566 4968L9566 4945L10123 4945L10123 4679L9518 4679M10632 4679L10632 4702L10511 4703L10511 4727L10462 4727L10462 4751L10414 4751L10414 4775L10390 4775L10390 4800L10366 4800C10366 4805.31 10368.4 4818.42 10364.4 4822.4C10360.3 4826.49 10346.5 4824 10341 4824L10341 4872L10317 4872L10317 4920L10293 4920L10293 5163L10317 5163L10317 5211L10341 5211L10341 5259C10346.5 5259 10360.3 5256.51 10364.4 5260.6C10368.4 5264.58 10366 5277.69 10366 5283C10371.3 5283 10384.4 5280.62 10388.4 5284.6C10392.5 5288.69 10390 5302.52 10390 5308L10438 5308L10438 5332L10473 5332L10486 5334.32L10487 5356L10583 5357L10583 5380L10850 5381L10850 5404L10947 5405L10947 5429L10971 5429L10971 5453L10995 5453L10996 5502L11019 5502L11019 5550L10996.6 5551.03L10995 5563L10995 5599L10971 5599L10971 5623L10946 5623L10946 5647L10317 5647L10317 5889L10923 5889L10923 5865L11044 5865L11044 5841L11116 5840L11116 5816L11141 5816L11141 5793L11188 5792C11188 5786.69 11185.6 5773.58 11189.6 5769.6C11193.7 5765.51 11207.5 5768 11213 5768L11213 5744L11237 5744L11237 5709C11237 5705.5 11235.9 5699.34 11238.6 5696.6C11242.6 5692.62 11255.7 5695 11261 5695L11262 5647L11285 5647L11285 5405L11262 5405L11261 5357C11255.7 5357 11242.6 5359.38 11238.6 5355.4C11235.7 5352.52 11237 5345.69 11237 5342L11237 5308L11213 5308L11213 5284L11188 5284L11188 5260L11141 5259L11141 5236C11135.5 5236 11121.7 5238.49 11117.6 5234.4C11113.6 5230.42 11116 5217.31 11116 5212L11044 5211L11044 5187L10705 5186L10705 5163L10608 5163L10608 5139L10583 5139L10583 5115L10559 5115L10559 5026C10559 5019.25 10555.7 4999.54 10560.6 4994.6C10564.6 4990.62 10577.7 4993 10583 4993L10583 4969L10656 4968L10656 4945L11237 4945L11237 4679L10632 4679z"/>
<path style="fill:#6494d4; stroke:none;" d="M6805 4702L6805 4703L7653 4703L7653 4726L7749 4727L7749 4751L7774 4751L7774 4727L7725 4726L7725 4703L6805 4702M8112 4702L8112 5889L8113 5889L8113 4703L9033 4703L9033 4944L8379 4944L8379 5163L8404 5163L8404 5186L9033 5187L9033 5163L8562 5163L8445 5163L8416 5163L8404.6 5161.4L8403 5147L8403 5106L8403 4945L9057 4944L9057 4702L8112 4702M3535 4703C3535 4708.31 3537.38 4721.42 3533.4 4725.4C3529.42 4729.38 3516.31 4727 3511 4727L3511 5889L3535 5889L3535 4727L4625 4727L4625 4751L4649 4751L4649 4775L4673 4775C4673 4780 4670.43 4795.67 4674.6 4798.97C4678.88 4802.36 4691.68 4800 4697 4800L4697 4824L4721 4824C4721 4829.32 4718.64 4842.12 4722.03 4846.4C4725.33 4850.57 4741 4848 4746 4848L4746 4847L4722 4847L4721 4800C4715.69 4800 4702.58 4802.38 4698.6 4798.4C4694.51 4794.31 4697 4780.48 4697 4775L4673 4775L4673 4751L4649 4751L4649 4727L4625 4727L4625 4703L3535 4703M5328 4703C5328 4708.31 5330.38 4721.42 5326.4 4725.4C5322.31 4729.49 5308.48 4727 5303 4727L5303 4751L5328 4751L5328 4727L6393 4727L6393 4726L6321 4726L6321 4703L5328 4703z"/>
<path style="fill:#316ec4; stroke:none;" d="M6805 4703L6805 5889L7095 5889L7095 5453L7579 5454L7579 5477L7604 5477L7604 5502L7628 5502L7629 5574L7653 5574L7653 5889L7919 5889L7919 5502L7895 5502L7894 5453L7870 5453L7870 5405L7822 5405L7822 5381C7816.52 5381 7802.69 5383.49 7798.6 5379.4C7794.62 5375.42 7797 5362.31 7797 5357L7726 5356L7726 5332L7749 5332L7749 5308L7797 5308C7797 5302.52 7794.51 5288.69 7798.6 5284.6C7802.69 5280.51 7816.52 5283 7822 5283L7822 5259L7846 5259L7846 5235L7870 5235L7870 5187L7894 5187L7895 5138L7919 5138L7919 4897L7895 4897L7894 4848L7870 4848L7870 4824C7864.69 4824 7851.58 4826.38 7847.6 4822.4C7843.51 4818.31 7846 4804.48 7846 4799L7822 4799L7822 4775L7798 4775L7798 4751L7749 4751L7749 4727L7653 4726L7653 4703L6805 4703M8113 4703L8113 5889L9033 5889L9033 5647L8379 5647L8379 5465L8379 5421C8379 5416.94 8377.46 5408.74 8380.6 5405.6C8384.69 5401.51 8398.52 5404 8404 5404L8404 5381L9033 5380L9033 5187L8404 5186L8404 5163L8379 5163L8379 4944L9033 4944L9033 4703L8113 4703M3535 4727L3535 5889L4600 5889L4600 5865L4625 5865L4625 5841L4649 5841L4649 5816L4673 5816L4673 5792L4697 5792L4697 5768L4721 5768L4721 5744L4746 5744L4746 5719L4770 5719L4770 5695L4794 5695L4794 5671L4818 5671L4818 5647L4842 5647C4842 5641.52 4839.51 5627.69 4843.6 5623.6C4847.69 5619.51 4861.52 5622 4867 5622L4867 5598L4891 5598L4892 5551C4897.32 5551 4910.12 5553.36 4914.4 5549.97C4918.57 5546.67 4916 5531 4916 5526L4940 5526L4940 5502L4988 5501L4988 5526L5013 5526L5013 5550L5037 5550L5037 5574L5061 5574L5061 5599L5085 5599L5085 5623L5109 5623L5110 5671L5134 5671L5134 5695L5158 5695L5158 5719L5182 5719L5182 5744L5206 5744L5206 5768C5211.48 5768 5225.31 5765.51 5229.4 5769.6C5233.38 5773.58 5231 5786.69 5231 5792C5236.31 5792 5249.42 5789.62 5253.4 5793.6C5257.49 5797.69 5255 5811.52 5255 5817L5279 5817L5279 5865L5303 5865L5303 5889L5860 5889L5860 5453L6248 5453L6248 5430L6417 5429L6417 5405L6471 5405L6488.97 5403.4L6490 5381L6538 5380L6538 5356L6563 5356L6563 5332L6587 5332L6587 5308L6611 5308L6611 5283L6635 5283L6635 5235L6659 5235L6660 5139L6683 5139L6683 4968L6660 4968L6659 4896L6635 4896L6635 4872L6611 4872L6611 4824L6563 4823L6563 4800C6557.52 4800 6543.69 4802.49 6539.6 4798.4C6535.51 4794.31 6538 4780.48 6538 4775L6490 4775L6490 4751L6417 4751L6417 4727L5328 4727L5328 4751L5303 4751L5303 4775L5279 4775L5279 4800L5255 4800L5255 4824L5231 4824L5230 4872L5206 4872L5206 4896L5182 4896L5182 4920L5158 4920L5158 4945L5134 4945L5134 4969L5109 4969L5109 4993L5085 4993L5085 5018L5061 5018L5061 5042L5037 5042L5037 5066L5013 5066L5013 5090L4988 5090L4988 5114L4964 5114L4964 5090L4940 5090L4940 5066L4915 5066L4915 5042C4909.69 5042 4896.58 5044.38 4892.6 5040.4C4888.51 5036.31 4891 5022.48 4891 5017L4867 5017L4867 4993L4843 4993C4843 4988 4845.57 4972.33 4841.4 4969.03C4837.12 4965.64 4824.32 4968 4819 4968L4818 4921L4794 4921L4794 4897L4770 4897L4770 4872L4746 4872L4746 4848C4740.52 4848 4726.69 4850.49 4722.6 4846.4C4718.62 4842.42 4721 4829.31 4721 4824L4697 4824L4697 4800C4691.69 4800 4678.58 4802.38 4674.6 4798.4C4670.51 4794.31 4673 4780.48 4673 4775L4649 4775L4649 4751L4625 4751L4625 4727L3535 4727z"/>
<path style="fill:#6494d4; stroke:none;" d="M6417 4727L6417 4751L6465 4751L6465 4750L6442 4750L6442 4727L6417 4727M9324 4727L9324 4751L9348 4751L9348 4727L9324 4727M6490 4751L6490 4775L6514 4775L6514 4751L6490 4751M7798 4751L7798 4775L7822 4775L7822 4751L7798 4751M9300 4751L9300 4775L9324 4775L9324 4751L9300 4751M10413 4751L10413 4775L10414 4775L10413 4751M6538 4775C6538 4780 6535.43 4795.67 6539.6 4798.97C6544.02 4802.47 6557.49 4800 6563 4800L6563 4823L6611 4824L6611 4823L6587 4823C6587 4817.68 6589.36 4804.88 6585.97 4800.6C6582.67 4796.43 6567 4799 6562 4799L6562 4775L6538 4775M7822 4775L7822 4799L7846 4799L7846 4775L7822 4775M9275 4775L9275 4799L9251 4799L9251 4824L9275 4823L9276 4776L9300 4776L9275 4775M10366 4775C10366 4780.48 10368.5 4794.31 10364.4 4798.4C10360.3 4802.49 10346.5 4800 10341 4800L10341 4824C10346 4824 10361.7 4826.57 10365 4822.4C10368.4 4818.12 10366 4805.32 10366 4800L10390 4800L10390 4775L10366 4775M5255 4799L5255 4800L5279 4800L5255 4799M7846 4799C7846 4804 7843.43 4819.67 7847.6 4822.97C7851.88 4826.36 7864.68 4824 7870 4824L7870 4848L7894 4848L7894 4872L7895 4872L7894 4824C7888.69 4824 7875.58 4826.38 7871.6 4822.4C7867.51 4818.31 7870 4804.48 7870 4799L7846 4799M5254 4800L5254 4823L5231 4823L5231 4824L5255 4824L5254 4800M5230 4824L5230 4848L5231 4848L5230 4824M5569 4824L5569 4847L5545 4847L5545 4872L5546 4872L5546 4848L5569 4848L5569 5768L5545 5768L5545 5769L5569 5769L5569 5792L5594 5792L5594 4824L5569 4824M9227 4824L9227 4848L9251 4848L9251 4824L9227 4824M5206 4848L5206 4872L5230 4872L5230 4848L5206 4848z"/>
<path style="fill:#f6f9fd; stroke:none;" d="M5546 4848L5546 4872L5521 4872L5521 4897L5497 4897L5496 4944C5490.68 4944 5477.88 4941.64 5473.6 4945.03C5469.43 4948.33 5472 4964 5472 4969L5448 4969L5448 4993L5424 4993L5424 5017L5400 5017L5400 5041L5376 5041L5376 5066L5352 5066L5352 5090L5327 5090L5327 5114L5303 5114L5303 5139L5279 5139L5279 5163L5255 5163L5255 5187L5231 5187L5231 5211C5225.49 5211 5212.02 5208.53 5207.6 5212.03C5203.43 5215.33 5206 5231 5206 5236L5182 5236L5181 5283L5158 5283L5158 5332L5182 5332L5182 5356L5206 5356L5206 5381L5230 5381L5230 5405L5254 5405L5254 5429L5276.68 5430.03L5279 5442L5279 5477L5303 5477L5303 5501C5308.48 5501 5322.31 5498.51 5326.4 5502.6C5330.49 5506.69 5328 5520.52 5328 5526L5352 5526L5352 5550L5376 5550L5376 5574L5400 5574L5400 5599L5424 5599L5424 5623L5448 5623L5448 5647L5472 5647C5472 5652 5469.43 5667.67 5473.6 5670.97C5477.88 5674.36 5490.68 5672 5496 5672L5497 5719L5521 5719L5521 5744L5545 5744L5545 5768L5569 5768L5569 4848L5546 4848z"/>
<path style="fill:#6494d4; stroke:none;" d="M6611 4848L6611 4872L6635 4872L6635 4848L6611 4848M10317 4848L10317 4872L10341 4872L10341 4848L10317 4848M5182 4872L5182 4896L5206 4896L5206 4872L5182 4872M6635 4872L6635 4896L6659 4896L6659 4872L6635 4872M7895 4872L7895 4897L7919 4897L7919 4872L7895 4872M9203 4872L9203 4896L9227 4896L9227 4872L9203 4872M10316 4872L10316 4896L10293 4896L10293 4920L10317 4920C10317 4906.47 10321.2 4884.41 10316 4872M4770 4896L4770 4897L4794 4897L4770 4896M5158 4896L5158 4920L5182 4920L5182 4896L5158 4896M5497 4896L5497 4897L5521 4897L5497 4896M6659 4896L6660 4968L6683 4968L6683 5139L6660 5139L6659 5235L6660 5235L6660 5187C6664.74 5187 6681.01 5189.53 6683.4 5184.68C6685.7 5180 6684 5171.15 6684 5166L6684 5122L6684 4979L6684 4939C6684 4934.35 6685.49 4926.56 6683.4 4922.32C6681.01 4917.47 6664.74 4920 6660 4920L6659 4896M4794 4897L4794 4921L4818 4921L4819 4968L4843 4969C4843 4964 4845.57 4948.33 4841.4 4945.03C4837.12 4941.64 4824.32 4944 4819 4944L4819 4920L4795 4920L4794 4897M5134 4920C5134 4925.48 5136.49 4939.31 5132.4 4943.4C5128.31 4947.49 5114.48 4945 5109 4945L5109 4969L5134 4969L5134 4945L5158 4945L5158 4920L5134 4920M5472 4920L5472 4944L5448 4944L5448 4969L5472 4969C5472 4963.52 5469.51 4949.69 5473.6 4945.6C5477.58 4941.62 5490.69 4944 5496 4944L5497 4920L5472 4920M9202 4921L9202 4945L9179 4945L9179 5138L9202 5138L9202 5162L9203 5162L9203 4992L9203 4943L9202 4921M3777 4944L3777 4945L4480 4945L4480 4969L4504 4969L4504 4993L4528 4993L4528 5017L4552 5017L4552 5042L4576 5042L4576 5066L4600 5066L4600 5090L4601 5090L4601 5065L4577 5065L4576 5018C4570.69 5018 4557.58 5020.38 4553.6 5016.4C4549.51 5012.31 4552 4998.48 4552 4993L4528 4993L4528 4969L4504 4969C4504 4964 4506.57 4948.33 4502.4 4945.03C4499.62 4942.83 4493.33 4944 4490 4944L4458 4944L4335 4944L3777 4944M5860 4944L5860 4945L6272 4945L6272 4969L6321 4969L6321 4993L6345 4993L6345 4969C6339.52 4969 6325.69 4971.49 6321.6 4967.4C6317.62 4963.42 6320 4950.31 6320 4945L5860 4944z"/>
<path style="fill:#f6f9fd; stroke:none;" d="M3777 4945L3777 5163L4407 5163L4407 5405L3777 5405L3777 5647L4479 5647L4479 5623L4504 5623L4504 5599L4528 5599L4528 5574L4552 5574L4552 5550L4576 5550L4576 5526L4600 5526C4600 5520.52 4597.51 5506.69 4601.6 5502.6C4605.58 5498.62 4618.69 5501 4624 5501L4625 5454L4649 5454L4649 5429L4673 5429L4673 5405C4678 5405 4693.67 5407.57 4696.97 5403.4C4700.36 5399.12 4698 5386.32 4698 5381C4703.32 5381 4716.12 5383.36 4720.4 5379.97C4724.57 5376.67 4722 5361 4722 5356L4746 5356L4746 5332L4770 5332L4770 5260L4746 5260L4746 5236L4722 5236C4722 5230.49 4724.47 5217.02 4720.97 5212.6C4717.67 5208.43 4702 5211 4697 5211L4697 5187L4673 5187L4673 5163L4649 5163L4649 5138L4625 5138L4624 5090L4600 5090L4600 5066L4576 5066L4576 5042L4552 5042L4552 5017L4528 5017L4528 4993L4504 4993L4504 4969L4480 4969L4480 4945L3777 4945M5860 4945L5860 5235L6344 5235L6344 5211L6369 5211L6369 5187L6393 5187L6393 5041L6369 5041L6368 4993L6321 4993L6321 4969L6272 4969L6272 4945L5860 4945z"/>
<path style="fill:#6494d4; stroke:none;" d="M7120 4945C7120 4950.31 7122.38 4963.42 7118.4 4967.4C7114.31 4971.49 7100.48 4969 7095 4969L7095 5235L7580 5235L7580 5212C7585 5212 7600.67 5214.57 7603.97 5210.4C7607.47 5205.98 7605 5192.51 7605 5187L7629 5187L7629 5114L7652 5114L7653 5060L7651.4 5042.03L7629 5041L7629 5006L7627.4 4994.03L7604 4993L7604 4969L7580 4969L7580 4993L7604 4993L7604 5017L7628 5017L7628 5163L7604 5163L7604 5211L7569 5211L7556.03 5212.6L7555 5235L7120 5235L7119 4969L7555 4969L7555 4968L7507 4968L7507 4945L7120 4945M7919 4945L7919 5090L7943 5090L7943 4945L7919 4945M10292 4945L10292 4969L10269 4969L10269 5114L10292 5114L10292 5138L10293 5138L10293 5002L10293 4963L10292 4945M10656 4945L10656 4968L10632 4968L10632 4969L11237 4969L11237 4945L10656 4945M4843 4969L4843 4993L4867 4993L4867 4969L4843 4969M5085 4969L5085 4993L5109 4993L5109 4969L5085 4969M5424 4969L5424 4993L5448 4993L5448 4969L5424 4969z"/>
<path style="fill:#f6f9fd; stroke:none;" d="M7119 4969L7120 5235L7555 5235L7556.03 5213.32L7569 5211L7604 5211L7604 5163L7628 5163L7628 5017L7604 5017L7604 4993L7580 4993L7580 4969L7119 4969z"/>
<path style="fill:#6494d4; stroke:none;" d="M9493 4969L9493 4993L9517 4993L9517 4969L9493 4969M10583 4969L10583 4993L10608 4993L10608 4969L10583 4969M4867 4993L4867 5017L4891 5017L4891 4993L4867 4993M5061 4993L5061 5018L5085 5018L5085 4993L5061 4993M5400 4993L5400 5017L5424 5017L5424 4993L5400 4993M6368 4993L6368 5017L6369 5017L6368 4993M9469 4993L9469 5017L9470 5017L9470 4994L9493 4994L9469 4993M10559 5042L10583 5041L10583 4993L10560.6 4994.03L10559 5006L10559 5042M4891 5017C4891 5022 4888.43 5037.67 4892.6 5040.97C4896.88 5044.36 4909.68 5042 4915 5042L4915 5066L4940 5066L4940 5042C4934.52 5042 4920.69 5044.49 4916.6 5040.4C4912.51 5036.31 4915 5022.48 4915 5017L4891 5017M5376 5017L5376 5041L5400 5041L5400 5017L5376 5017M6369 5017L6369 5041L6393 5041L6393 5017L6369 5017M5060 5018L5060 5041L5037 5041L5037 5042L5061 5042L5060 5018M5351 5066L5327 5066L5327 5090L5352 5090L5352 5066L5376 5066L5376 5041C5370.49 5041 5357.02 5038.53 5352.6 5042.03C5348.43 5045.33 5351 5061 5351 5066M5036 5042L5036 5065L5013 5065L5013 5066L5037 5066L5036 5042M4940 5066L4940 5090L4964 5090L4964 5066L4940 5066M5012 5066L5012 5090L5013 5090L5012 5066M6393 5066L6393 5139L6417 5139L6417 5066L6393 5066M4624 5090L4624 5114L4625 5114L4624 5090M4964 5090L4964 5114L4988 5114L4988 5090L4964 5090M5303 5090L5303 5114L5327 5114L5327 5090L5303 5090M9469 5090L9469 5115L9493 5115L9493 5139L9518 5139L9518 5163L9567 5163L9567 5162L9542 5162L9542 5138L9494 5138L9494 5114L9470 5114L9469 5090M10559 5090L10559 5115L10583 5115L10583 5139L10608 5139L10608 5163L10680 5163L10680 5162L10632 5162L10632 5138L10584 5138L10583 5090L10559 5090M4625 5114L4625 5138L4649 5138L4649 5114L4625 5114M5279 5115L5279 5139L5303 5139L5303 5115L5279 5115M4649 5138L4649 5163L4673 5163L4673 5187L4697 5187L4697 5211L4721 5211L4721 5187C4715.69 5187 4702.58 5189.38 4698.6 5185.4C4694.62 5181.42 4697 5168.31 4697 5163C4691.69 5163 4678.58 5165.38 4674.6 5161.4C4670.51 5157.31 4673 5143.48 4673 5138L4649 5138M7895 5138L7894 5187L7870 5187L7870 5235L7871 5235L7871 5211L7895 5211L7895 5163L7919 5163L7919 5138L7895 5138M5278 5139L5278 5162L5254 5162L5254 5186L5231 5186L5231 5187L5255 5187L5255 5163L5279 5163L5278 5139M3778 5163L3778 5186L4207 5186L4329 5186L4364 5186C4368.62 5186 4375.55 5184.73 4379.85 5186.6C4383.78 5188.32 4383 5193.5 4383 5197L4383 5229L4383 5341L4383 5369C4383 5372.1 4383.82 5376.97 4381.4 5379.4C4378.97 5381.82 4374.1 5381 4371 5381L4343 5381L4230 5381L3778 5381L3777 5405L4407 5405L4407 5163L3778 5163M9615 5163L9615 5186L9929 5187L9929 5163L9615 5163M10293 5163L10293 5187L10316 5187L10316 5211L10317 5211L10317 5163L10293 5163M10705 5163L10705 5186L11019 5187L11019 5186L10995 5186L10995 5163L10705 5163M5230 5187L5230 5211L5231 5211L5230 5187M9203 5187L9203 5211L9227 5211L9227 5187L9203 5187M9978 5187L9978 5211L10002 5211L10002 5187L9978 5187M11044 5187L11044 5211L11092 5211L11092 5187L11044 5187M4721 5211L4722 5212L4721 5211M5206 5211L5207 5212L5206 5211M6344 5211L6344 5235L6345 5235L6345 5212L6369 5212L6344 5211M10026 5211L10026 5235L10074 5236C10074 5241.32 10071.6 5254.12 10075 5258.4C10078.3 5262.57 10094 5260 10099 5260L10099 5236L10051 5235L10051 5211L10026 5211M10317 5211L10317 5236L10341 5236L10341 5211L10317 5211M11092 5211L11092 5212L11116 5212C11116 5217.32 11113.6 5230.12 11117 5234.4C11120.3 5238.57 11136 5236 11141 5236L11141 5259L11188 5260L11188 5284L11189 5284L11189 5259L11165 5259L11165 5235L11140 5235L11140 5212L11092 5211M4722 5235L4722 5236L4746 5236L4722 5235M5182 5235L5182 5236L5206 5236L5182 5235M5860 5235L5860 5260L6320 5259L6320 5236L6344 5236C6333.26 5231.49 6314.68 5235 6303 5235C6270 5235 6237.05 5236 6204 5236C6089.34 5236 5974.57 5235 5860 5235M6635 5235L6635 5260L6659 5259L6659 5235L6635 5235M7846 5235L7846 5259L7847 5259L7847 5236L7870 5236L7846 5235M9227 5235L9227 5259L9251 5259L9251 5235L9227 5235M11431 5235L11431 5284L11455 5284L11455 5319L11456.6 5331.97L11479 5333L11479 5380L11480 5380L11480 5308L11456 5308L11456 5272L11454.4 5260.03L11432 5259L11431 5235M4746 5259L4746 5260L4770 5260L4746 5259M5157 5284L5133 5284L5133 5308L5157 5308L5157 5332L5158 5332L5158 5283L5181 5283L5182 5259C5176.49 5259 5163.02 5256.53 5158.6 5260.03C5154.43 5263.33 5157 5279 5157 5284M7822 5259L7822 5283L7823 5283L7823 5260L7846 5260L7822 5259M9251 5259L9251 5284L9276 5284C9276 5279 9278.57 5263.33 9274.4 5260.03C9269.97 5256.53 9256.51 5259 9251 5259M10341 5259L10341 5283C10346.5 5283 10360.3 5280.51 10364.4 5284.6C10368.5 5288.69 10366 5302.52 10366 5308L10390 5308C10390 5303 10392.6 5287.33 10388.4 5284.03C10384.1 5280.64 10371.3 5283 10366 5283C10366 5277.68 10368.4 5264.88 10365 5260.6C10361.7 5256.43 10346 5259 10341 5259M10099 5260L10099 5284L10123 5284L10123 5260L10099 5260M4770 5283L4770 5332L4771 5332L4771 5308L4795 5308L4795 5284L4770 5283M6611 5283L6611 5308L6635 5308L6635 5283L6611 5283M7798 5283L7798 5284L7822 5284L7798 5283M7797 5284L7797 5308L7798 5308L7797 5284M9276 5284L9276 5308L9300 5308L9300 5284L9276 5284M6587 5308L6587 5332L6611 5332L6611 5308L6587 5308M7749 5308L7749 5332L7726 5332L7726 5356L7797 5357L7797 5380L7798 5380L7798 5356L7750 5356L7750 5333L7773 5333L7773 5308L7749 5308M9323 5308L9323 5332L9324 5332L9323 5308M10414 5308L10414 5332L10438 5332L10438 5308L10414 5308M4746 5332L4746 5356L4770 5356L4770 5332L4746 5332M5158 5332L5158 5356C5163.31 5356 5176.42 5353.62 5180.4 5357.6C5184.49 5361.69 5182 5375.52 5182 5381L5206 5381L5206 5356L5182 5356L5182 5332L5158 5332M6563 5332L6563 5356L6587 5356L6587 5332L6563 5332M9348 5332L9349 5356L9396 5356L9396 5332L9348 5332M10147 5332L10147 5357L10171 5357L10171 5671L10147 5671L10147 5720L10148 5720L10148 5696L10170.4 5694.97L10172 5677L10172 5623L10196 5623L10195 5405L10172 5405L10171 5333L10147 5332M10438 5332L10438 5333L10462 5333L10462 5356L10487 5356L10486 5333.6L10473 5332L10438 5332M11237 5332C11237 5337 11234.4 5352.67 11238.6 5355.97C11242.9 5359.36 11255.7 5357 11261 5357L11261 5381L11262 5345L11260.4 5333.03L11237 5332M4722 5356L4722 5380L4746 5380L4746 5356L4722 5356M6538 5356L6538 5380L6514 5380L6514 5381L6562 5380L6563 5356L6538 5356M9397 5356L9397 5357L9421 5357L9421 5380L9590 5381L9590 5404L9808 5405L9808 5404L9760 5404L9760 5381L9493 5380L9493 5357L9397 5356M10487 5356L10487 5357L10534 5357L10534 5380L10680 5381L10680 5404L10898 5405L10898 5404L10850 5404L10850 5381L10583 5380L10583 5357L10487 5356M4721 5380L4698 5381C4698 5386.31 4700.38 5399.42 4696.4 5403.4C4692.31 5407.49 4678.48 5405 4673 5405L4673 5429L4649 5429L4649 5453L4673 5453C4673 5447.69 4670.62 5434.58 4674.6 5430.6C4678.69 5426.51 4692.52 5429 4698 5429L4698 5405L4722 5405L4721 5380M7798 5380L7798 5381L7822 5381L7798 5380M8404 5381L8404 5404C8399.15 5404 8382.03 5401.39 8379.6 5406.32C8377.19 5411.22 8379 5420.6 8379 5426L8379 5474L8379 5647L9033 5647L9033 5623L8403 5623L8403 5405L9033 5405L9033 5380L8404 5381M5206 5381L5206 5405L5230 5405L5230 5381L5206 5381M6490 5381L6489 5405L6514 5405L6514 5381L6490 5381M7822 5381L7822 5405L7847 5405L7846 5381L7822 5381M11262 5381L11262 5405L11285 5405L11285 5647L11262 5647L11262 5671L11286 5671L11286 5599L11310 5599L11310 5453L11286 5453L11286 5381L11262 5381M11480 5381L11480 5429L11503 5429L11503 5454L11504 5454L11504 5381L11480 5381M5230 5405L5230 5429L5254 5429L5254 5405L5230 5405M6417 5405L6417 5429L6465 5429L6465 5405L6417 5405M7870 5405L7870 5453L7894 5453L7895 5502L7919 5502L7919 5477L7895 5477L7895 5429L7871 5429L7870 5405M9833 5405L9833 5429L9857 5429L9857 5405L9833 5405M10923 5405L10923 5429L10947 5429L10947 5405L10923 5405M5254 5429C5254 5434 5251.43 5449.67 5255.6 5452.97C5260.02 5456.47 5273.49 5454 5279 5454C5279 5448.49 5281.47 5435.02 5277.97 5430.6C5274.67 5426.43 5259 5429 5254 5429M6248 5430L6248 5453L6369 5453L6369 5430L6393 5430C6381.78 5425.29 6362.21 5429 6350 5429C6315.97 5429 6281.96 5430 6248 5430M5860 5453L5861 5454L5860 5453M7095 5453L7095 5889L7096 5889L7096 5580L7096 5491C7096 5480.1 7099.21 5463.03 7095 5453M7507 5453L7507 5454L7532 5454L7532 5477L7580 5478L7580 5502L7604 5502L7604 5477L7579 5477L7579 5454L7507 5453M9881 5453L9881 5477L9905 5477L9905 5453L9881 5453M10971 5453L10971 5454L10995 5454L10971 5453M4625 5454L4625 5478L4649 5478L4649 5454L4625 5454M5279 5477L5279 5478L5303 5478L5279 5477M10995 5477L10995 5551L11019 5550L11019 5502L10996 5502L10995 5477M4624 5478L4624 5501L4601 5501L4601 5502L4625 5502L4624 5478M4964 5501L4964 5502L4988 5502L4964 5501M5303 5501L5303 5502L5327 5502L5303 5501M4600 5502L4600 5526L4601 5526L4600 5502M4940 5502L4940 5526L4964 5526L4964 5502L4940 5502M5327 5502L5327 5526L5328 5526L5327 5502M7604 5502L7604 5526L7628 5526L7628 5502L7604 5502M9905 5502L9905 5526L9906 5526L9905 5502M4576 5526L4576 5550L4577 5550L4576 5526M4916 5526L4916 5550L4940 5550L4940 5526L4916 5526M5012 5526L5013 5574L5037 5574L5037 5550L5013 5550L5012 5526M5351 5526L5352 5574C5357.31 5574 5370.42 5571.62 5374.4 5575.6C5378.49 5579.69 5376 5593.52 5376 5599L5400 5599L5400 5574L5376 5574L5376 5550L5352 5550L5351 5526M7628 5526L7629 5623L7652 5623L7652 5889L7653 5889L7653 5574L7629 5574C7629 5560.47 7633.21 5538.41 7628 5526M4552 5550L4552 5574L4553 5574L4553 5551L4576 5551L4552 5550M4915 5550L4892 5551L4891 5575C4897.17 5575 4908.11 5577.14 4913.68 5574.4C4918.3 5572.12 4916.71 5554.07 4915 5550M7919 5551L7919 5889L7943 5889L7943 5551L7919 5551M4528 5574L4528 5575L4552 5575L4528 5574M5037 5574L5037 5598L5061 5599L5061 5574L5037 5574M9881 5574L9881 5599L9905 5599L9905 5574L9881 5574M10971 5574L10971 5599L10995 5599L10995 5574L10971 5574M4867 5598L4867 5599L4891 5599L4867 5598M4504 5599L4504 5623L4528 5623L4528 5599L4504 5599M5061 5599L5061 5623L5085 5623L5085 5599L5061 5599M5400 5599L5400 5623L5424 5623L5424 5599L5400 5599M9857 5599L9857 5623L9881 5623L9881 5599L9857 5599M10947 5599L10947 5623L10971 5623L10971 5599L10947 5599M4843 5622L4843 5623L4867 5623L4843 5622M4479 5623L4479 5647L3777 5647L3777 5671L4479 5671C4479 5665.69 4476.62 5652.58 4480.6 5648.6C4484.69 5644.51 4498.52 5647 4504 5647L4504 5623L4479 5623M4842 5623L4842 5647L4843 5647L4842 5623M5085 5623L5085 5647L5109 5647L5109 5623L5085 5623M5424 5623L5424 5647L5448 5647L5448 5623L5424 5623M9227 5623L9227 5647L9833 5647L9833 5623L9227 5623M10317 5623L10317 5647L10946 5647L10946 5623L10317 5623M4818 5647L4818 5671L4819 5671L4818 5647M5109 5647L5109 5671L5110 5671L5109 5647M5448 5647L5448 5671L5472 5671L5472 5647L5448 5647M9033 5647L9033 5889L9057 5889L9057 5647L9033 5647M9203 5647L9203 5889L9227 5889L9227 5647L9203 5647M11503 5647L11503 5671L11480 5671L11480 5720L11504 5720L11504 5670L11503 5647M4794 5671L4794 5695L4795 5695L4795 5672L4818 5672L4794 5671M5133 5671L5133 5695L5134 5695L5133 5671M5472 5671C5472 5676 5469.43 5691.67 5473.6 5694.97C5478.03 5698.47 5491.49 5696 5497 5696L5496 5672L5472 5671M11261 5671L11261 5695C11255.7 5695 11242.9 5692.64 11238.6 5696.03C11234.4 5699.33 11237 5715 11237 5720L11260.4 5718.97L11262 5707L11261 5671M4770 5695L4770 5696L4794 5696L4770 5695M5134 5695L5134 5696L5157 5696L5157 5719L5158 5719L5158 5695L5134 5695M6514 5696L6514 5720L6550 5720L6561.97 5718.4L6563 5696L6586 5696L6586 6132L6587 6132L6587 5695L6514 5696M7361 5696L7361 5719L7338 5719L7338 6027L7338 6104C7338 6109.93 7340.8 6125.99 7336.4 6130.4C7333.52 6133.27 7326.69 6132 7323 6132L7288 6132L7148 6132L6587 6132L6587 6156L7362 6155L7362 5720L7410 5720L7411 6131L7434 6131L7434 6156L9856 6155L9856 6132L9954 6132L9954 6108L10002 6108L10002 6107L9906 6108L9906 6131L7435 6132L7434 5719L7410 5719L7410 5696L7361 5696M4746 5719L4746 5720L4770 5720L4746 5719M5158 5719L5158 5720L5181 5720L5181 5744L5182 5744L5182 5719L5158 5719M5497 5719L5497 5720L5521 5720L5497 5719M6369 5720L6369 5744L6465 5744L6465 5720L6369 5720M10123 5720L10123 5744L10147 5744L10147 5720L10123 5720M4721 5744L4721 5768L4697 5768L4697 5792L4698 5792L4698 5769L4722 5769L4721 5744M5182 5744L5182 5768L5206 5768L5206 5744L5182 5744M6103 5744L6102 6131L5182 6131L5182 6108L5158 6108C5158 6102.49 5160.47 6089.02 5156.97 6084.6C5153.67 6080.43 5138 6083 5133 6083L5133 6107L5157 6107C5157 6111.85 5154.39 6128.97 5159.32 6131.4C5164 6133.7 5172.85 6132 5178 6132L5223 6132L5383 6132L6127 6132L6127 5744L6103 5744M11479 5744L11479 5768L11456 5768L11455 5817L11432 5817L11431 5865L11432 5865L11432 5841L11456 5841L11456 5793L11478.4 5791.97L11480 5780L11479 5744M5206 5768L5206 5792L5230 5792C5230 5797 5227.43 5812.67 5231.6 5815.97C5236.02 5819.47 5249.49 5817 5255 5817C5255 5812 5257.57 5796.33 5253.4 5793.03C5249.12 5789.64 5236.32 5792 5231 5792C5231 5786.68 5233.36 5773.88 5229.97 5769.6C5226.67 5765.43 5211 5768 5206 5768M11189 5768L11189 5769L11213 5769L11189 5768M11188 5769L11188 5792L11141 5793L11141 5816L11116 5816L11116 5840L11092 5840L11092 5841L11140 5840L11140 5817L11165 5817L11165 5793L11189 5793L11188 5769M4673 5792L4673 5816L4697 5816L4697 5792L4673 5792M10051 5793L10051 5816L10026 5816L10026 5840L10002 5840L10002 5841L10050 5841L10050 5817L10075 5817L10075 5793L10099 5793C10086.3 5787.69 10064.7 5793 10051 5793M4649 5816L4649 5841L4673 5841L4673 5816L4649 5816M5255 5817L5255 5841L5279 5841L5279 5817L5255 5817M4625 5841L4625 5865L4649 5865L4649 5841L4625 5841M9954 5841L9954 5865L10002 5865L10002 5841L9954 5841M11044 5841L11044 5865L11068 5865L11068 5841L11044 5841M4600 5865L4600 5889L4625 5889L4625 5865L4600 5865M9832 5889L9905 5889L9905 5866L9929 5866C9922.56 5863.3 9912.95 5865 9906 5865L9857 5865C9851.53 5865 9838.01 5862.54 9833.6 5866.03C9829.53 5869.25 9832 5884.14 9832 5889M10923 5865L10923 5889L10995 5889L10995 5866L11019 5866L10989 5865L10923 5865M11407 5865L11407 5890L11431 5890L11431 5865L11407 5865M11383 5913L11383 5937L11407 5937L11407 5913L11383 5913M11359 5938L11359 5962L11383 5962L11383 5938L11359 5938M5036 5962L5036 5986L5037 5986L5036 5962M11334 5962L11334 5986L11310 5986L11310 6010L11286 6010L11286 6034L11262 6034L11262 6035L11310 6035L11310 6011L11334 6011C11334 6005.52 11331.5 5991.69 11335.6 5987.6C11339.7 5983.51 11353.5 5986 11359 5986L11359 5962L11334 5962M5037 5986L5037 5987L5060 5987L5060 6010L5061 6010L5061 5986L5037 5986M5061 6010L5061 6034L5085 6034L5085 6010L5061 6010M5085 6035L5085 6059L5109 6059L5109 6035L5085 6035M11261 6035L11261 6058L11238 6058L11238 6059L11262 6059L11261 6035M5109 6059L5109 6083L5133 6083L5133 6059L5109 6059M10051 6059L10051 6083L10075 6083L10075 6059L10051 6059M11213 6059L11213 6083L11237 6083L11237 6059L11213 6059M10002 6083L10002 6107L10027 6107L10027 6084L10050 6084C10037.6 6078.79 10015.5 6083 10002 6083M11164 6107L11068 6108L11068 6131L10099 6131L10099 6156L10995 6155L10995 6132L11116 6132L11116 6108L11189 6107L11189 6083C11184 6083 11168.3 6080.43 11165 6084.6C11161.6 6088.88 11164 6101.68 11164 6107z"/>
<path style="fill:#010101; stroke:none;" d="M0 7812L0 8436L624 8436L624 8435C569.667 8435 513.645 8422.07 462 8406.03C286.471 8351.49 137.033 8220.09 60.3086 8053C37.3622 8003.03 20.1912 7950.15 10.4244 7896C6.89373 7876.42 4.61435 7856.73 2.28549 7837C1.38124 7829.34 2.9551 7819.04 0 7812M12399 7812C12399 7858.36 12389.1 7905.92 12376.5 7950.29C12315.3 8165.99 12150.3 8340.12 11935 8407.03C11884.4 8422.74 11829.2 8435 11776 8435L11776 8436L12400 8436L12400 7994L12400 7866L12400 7830L12399 7812z"/>
<path style="fill:#01ffff; stroke:none;" d="M12382 7929L12383 7930L12382 7929M12378 7945L12379 7946L12378 7945M12377 7948L12378 7949L12377 7948z"/>
</svg>
