<svg width="22" height="25" viewBox="0 0 22 25" fill="none" xmlns="http://www.w3.org/2000/svg">
<path d="M20.5996 5.50041C16.0159 4.6077 11.3448 1.13434 11.2974 1.09942C11.1223 0.966858 10.8774 0.966858 10.7023 1.09942C10.6549 1.13448 5.9887 4.60524 1.40013 5.50041C1.16762 5.54541 1 5.75054 1 5.98306V15.2325C1.00244 15.315 1.25257 23.3545 10.955 24.2395H11H11.045C20.7499 23.3543 20.9973 15.3174 21 15.2249V5.9853C21 5.75034 20.8324 5.54522 20.5999 5.50023L20.5996 5.50041ZM18.8417 18.9134C17.3338 21.4465 14.6982 22.9018 10.9997 23.2494C2.24546 22.4293 1.99496 15.5123 1.99005 15.2252V6.39057C6.03099 5.48531 9.90707 2.88216 10.9997 2.10698C12.0925 2.88457 15.9683 5.48772 20.0094 6.39057V15.2149C20.0094 15.2348 19.9644 17.0278 18.8417 18.9131L18.8417 18.9134Z" fill="black" stroke="black" stroke-width="0.5"/>
<path d="M9.3698 17.5993C9.20269 17.5993 9.05073 17.5249 8.92931 17.4059L5.60242 13.8968C5.35933 13.644 5.37459 13.2425 5.60242 12.9898C5.8455 12.737 6.22529 12.7518 6.46838 12.9898L9.35472 16.038L15.7502 8.94533C15.9781 8.69256 16.3731 8.67774 16.6162 8.91556C16.8593 9.15349 16.8744 9.55488 16.6466 9.82258L9.82573 17.4059C9.68893 17.5249 9.53707 17.5992 9.36997 17.5992L9.3698 17.5993Z" fill="black" stroke="black" stroke-width="0.25"/>
</svg>
